NUM_Bold_01.ufo
<glyph name="exclam" format="1">
  <advance width="180"/>
  <unicode hex="0021"/>
  <outline>
    <contour>
      <point x="30" y="407" type="line"/>
      <point x="51" y="150" type="line"/>
      <point x="129" y="150" type="line"/>
      <point x="159" y="407" type="line"/>
    </contour>
    <contour>
      <point x="90" y="-6" type="curve"/>
      <point x="132" y="-6"/>
      <point x="160" y="19"/>
      <point x="160" y="56" type="curve"/>
      <point x="160" y="93"/>
      <point x="132" y="118"/>
      <point x="90" y="118" type="curve"/>
      <point x="49" y="118"/>
      <point x="21" y="93"/>
      <point x="21" y="56" type="curve"/>
      <point x="21" y="20"/>
      <point x="49" y="-6"/>
    </contour>
  </outline>
</glyph>
<glyph name="numbersign" format="1">
  <advance width="330"/>
  <unicode hex="0023"/>
  <outline>
    <contour>
      <point x="220" y="391" type="line"/>
      <point x="138" y="0" type="line"/>
      <point x="230" y="0" type="line"/>
      <point x="312" y="391" type="line"/>
    </contour>
    <contour>
      <point x="17" y="174" type="line"/>
      <point x="-1" y="95" type="line"/>
      <point x="288" y="95" type="line"/>
      <point x="306" y="174" type="line"/>
    </contour>
    <contour>
      <point x="100" y="391" type="line"/>
      <point x="18" y="0" type="line"/>
      <point x="110" y="0" type="line"/>
      <point x="192" y="391" type="line"/>
    </contour>
    <contour>
      <point x="42" y="295" type="line"/>
      <point x="24" y="216" type="line"/>
      <point x="313" y="216" type="line"/>
      <point x="331" y="295" type="line"/>
    </contour>
  </outline>
</glyph>
<glyph name="dollar" format="1">
  <advance width="330"/>
  <unicode hex="0024"/>
  <outline>
    <contour>
      <point x="162" y="-5" type="curve"/>
      <point x="259" y="-5"/>
      <point x="327" y="47"/>
      <point x="327" y="124" type="curve"/>
      <point x="327" y="259"/>
      <point x="140" y="224"/>
      <point x="140" y="277" type="curve"/>
      <point x="140" y="293"/>
      <point x="155" y="303"/>
      <point x="170" y="303" type="curve"/>
      <point x="197" y="303"/>
      <point x="206" y="288"/>
      <point x="209" y="268" type="curve"/>
      <point x="315" y="285" type="line"/>
      <point x="308" y="353"/>
      <point x="252" y="396"/>
      <point x="176" y="396" type="curve"/>
      <point x="83" y="396"/>
      <point x="18" y="344"/>
      <point x="18" y="267" type="curve"/>
      <point x="18" y="129"/>
      <point x="205" y="159"/>
      <point x="205" y="112" type="curve"/>
      <point x="205" y="96"/>
      <point x="189" y="88"/>
      <point x="166" y="88" type="curve"/>
      <point x="128" y="88"/>
      <point x="115" y="106"/>
      <point x="115" y="133" type="curve"/>
      <point x="3" y="117" type="line"/>
      <point x="7" y="37"/>
      <point x="64" y="-5"/>
    </contour>
    <contour>
      <point x="204" y="-66" type="line"/>
      <point x="204" y="35" type="line"/>
      <point x="127" y="35" type="line"/>
      <point x="127" y="-66" type="line"/>
    </contour>
    <contour>
      <point x="204" y="356" type="line"/>
      <point x="204" y="457" type="line"/>
      <point x="127" y="457" type="line"/>
      <point x="127" y="356" type="line"/>
    </contour>
  </outline>
</glyph>
<glyph name="percent" format="1">
  <advance width="494"/>
  <unicode hex="0025"/>
  <outline>
    <contour>
      <point x="350" y="391" type="line"/>
      <point x="47" y="0" type="line"/>
      <point x="144" y="0" type="line"/>
      <point x="447" y="391" type="line"/>
    </contour>
    <contour>
      <point x="116" y="200" type="curve"/>
      <point x="183" y="200"/>
      <point x="231" y="242"/>
      <point x="231" y="302" type="curve"/>
      <point x="231" y="361"/>
      <point x="190" y="397"/>
      <point x="125" y="397" type="curve"/>
      <point x="61" y="397"/>
      <point x="12" y="354"/>
      <point x="12" y="295" type="curve"/>
      <point x="12" y="237"/>
      <point x="53" y="200"/>
    </contour>
    <contour>
      <point x="120" y="264" type="curve"/>
      <point x="100" y="264"/>
      <point x="89" y="275"/>
      <point x="89" y="296" type="curve"/>
      <point x="89" y="320"/>
      <point x="102" y="334"/>
      <point x="124" y="334" type="curve"/>
      <point x="143" y="334"/>
      <point x="154" y="322"/>
      <point x="154" y="302" type="curve"/>
      <point x="154" y="279"/>
      <point x="141" y="264"/>
    </contour>
    <contour>
      <point x="368" y="-5" type="curve"/>
      <point x="435" y="-5"/>
      <point x="482" y="38"/>
      <point x="482" y="97" type="curve"/>
      <point x="482" y="155"/>
      <point x="442" y="192"/>
      <point x="378" y="192" type="curve"/>
      <point x="311" y="192"/>
      <point x="263" y="149"/>
      <point x="263" y="90" type="curve"/>
      <point x="263" y="32"/>
      <point x="304" y="-5"/>
    </contour>
    <contour>
      <point x="371" y="59" type="curve"/>
      <point x="352" y="59"/>
      <point x="340" y="69"/>
      <point x="340" y="91" type="curve"/>
      <point x="340" y="114"/>
      <point x="353" y="128"/>
      <point x="374" y="128" type="curve"/>
      <point x="393" y="128"/>
      <point x="405" y="118"/>
      <point x="405" y="98" type="curve"/>
      <point x="405" y="74"/>
      <point x="392" y="59"/>
    </contour>
  </outline>
</glyph>
<glyph name="ampersand" format="1">
  <advance width="475"/>
  <unicode hex="0026"/>
  <outline>
    <contour>
      <point x="186" y="-4" type="curve"/>
      <point x="320" y="-4"/>
      <point x="413" y="85"/>
      <point x="421" y="201" type="curve"/>
      <point x="329" y="201" type="line"/>
      <point x="322" y="132"/>
      <point x="278" y="81"/>
      <point x="210" y="81" type="curve"/>
      <point x="163" y="81"/>
      <point x="135" y="100"/>
      <point x="135" y="129" type="curve"/>
      <point x="135" y="219"/>
      <point x="299" y="183"/>
      <point x="299" y="300" type="curve"/>
      <point x="299" y="358"/>
      <point x="253" y="394"/>
      <point x="180" y="394" type="curve"/>
      <point x="101" y="394"/>
      <point x="45" y="350"/>
      <point x="45" y="286" type="curve"/>
      <point x="45" y="254"/>
      <point x="60" y="226"/>
      <point x="90" y="198" type="curve"/>
      <point x="253" y="47" type="line" smooth="yes"/>
      <point x="292" y="12"/>
      <point x="333" y="-5"/>
      <point x="387" y="-7" type="curve"/>
      <point x="422" y="-8"/>
      <point x="451" y="0"/>
      <point x="474" y="14" type="curve"/>
      <point x="450" y="91" type="line"/>
      <point x="436" y="83"/>
      <point x="427" y="81"/>
      <point x="411" y="81" type="curve"/>
      <point x="382" y="81"/>
      <point x="359" y="90"/>
      <point x="335" y="112" type="curve"/>
      <point x="205" y="231" type="line" smooth="yes"/>
      <point x="160" y="270"/>
      <point x="153" y="279"/>
      <point x="153" y="289" type="curve"/>
      <point x="153" y="308"/>
      <point x="164" y="317"/>
      <point x="181" y="317" type="curve"/>
      <point x="191" y="317"/>
      <point x="204" y="314"/>
      <point x="204" y="301" type="curve"/>
      <point x="204" y="248"/>
      <point x="19" y="249"/>
      <point x="19" y="117" type="curve"/>
      <point x="19" y="48"/>
      <point x="89" y="-4"/>
    </contour>
    <contour>
      <point x="289" y="251" type="line"/>
      <point x="289" y="164" type="line"/>
      <point x="454" y="164" type="line"/>
      <point x="454" y="251" type="line"/>
    </contour>
  </outline>
</glyph>
<glyph name="quotesingle" format="1">
  <advance width="168"/>
  <unicode hex="0027"/>
  <outline>
    <contour>
      <point x="24" y="391" type="line"/>
      <point x="47" y="166" type="line"/>
      <point x="121" y="166" type="line"/>
      <point x="144" y="391" type="line"/>
    </contour>
  </outline>
</glyph>
<glyph name="parenleft" format="1">
  <advance width="211"/>
  <unicode hex="0028"/>
  <outline>
    <contour>
      <point x="180" y="-120" type="curve"/>
      <point x="222" y="-69" type="line"/>
      <point x="159" y="-15"/>
      <point x="125" y="46"/>
      <point x="126" y="147" type="curve"/>
      <point x="127" y="248"/>
      <point x="159" y="309"/>
      <point x="222" y="364" type="curve"/>
      <point x="180" y="414" type="line"/>
      <point x="68" y="354"/>
      <point x="13" y="255"/>
      <point x="13" y="147" type="curve"/>
      <point x="13" y="38"/>
      <point x="68" y="-61"/>
    </contour>
  </outline>
</glyph>
<glyph name="parenright" format="1">
  <advance width="211"/>
  <unicode hex="0029"/>
  <outline>
    <contour>
      <point x="-11" y="-69" type="curve"/>
      <point x="31" y="-120" type="line"/>
      <point x="143" y="-61"/>
      <point x="198" y="38"/>
      <point x="198" y="147" type="curve"/>
      <point x="198" y="255"/>
      <point x="143" y="354"/>
      <point x="31" y="414" type="curve"/>
      <point x="-11" y="364" type="line"/>
      <point x="52" y="309"/>
      <point x="84" y="248"/>
      <point x="85" y="147" type="curve"/>
      <point x="86" y="46"/>
      <point x="52" y="-15"/>
    </contour>
  </outline>
</glyph>
<glyph name="asterisk" format="1">
  <advance width="286"/>
  <unicode hex="002A"/>
  <outline>
    <contour>
      <point x="261" y="254" type="curve"/>
      <point x="244" y="264"/>
      <point x="224" y="256"/>
      <point x="187" y="264" type="curve"/>
      <point x="224" y="273"/>
      <point x="244" y="264"/>
      <point x="261" y="274" type="curve"/>
      <point x="286" y="288"/>
      <point x="291" y="314"/>
      <point x="276" y="339" type="curve"/>
      <point x="261" y="364"/>
      <point x="234" y="372"/>
      <point x="209" y="358" type="curve"/>
      <point x="192" y="348"/>
      <point x="189" y="327"/>
      <point x="164" y="300" type="curve"/>
      <point x="177" y="335"/>
      <point x="195" y="349"/>
      <point x="195" y="368" type="curve"/>
      <point x="195" y="396"/>
      <point x="174" y="413"/>
      <point x="143" y="413" type="curve"/>
      <point x="112" y="413"/>
      <point x="91" y="396"/>
      <point x="91" y="368" type="curve"/>
      <point x="91" y="349"/>
      <point x="109" y="335"/>
      <point x="121" y="301" type="curve"/>
      <point x="97" y="328"/>
      <point x="94" y="348"/>
      <point x="77" y="358" type="curve"/>
      <point x="52" y="372"/>
      <point x="25" y="364"/>
      <point x="10" y="339" type="curve"/>
      <point x="-5" y="314"/>
      <point x="1" y="288"/>
      <point x="26" y="274" type="curve"/>
      <point x="43" y="264"/>
      <point x="63" y="273"/>
      <point x="99" y="264" type="curve"/>
      <point x="63" y="256"/>
      <point x="43" y="264"/>
      <point x="26" y="254" type="curve"/>
      <point x="1" y="241"/>
      <point x="-5" y="215"/>
      <point x="10" y="190" type="curve"/>
      <point x="25" y="165"/>
      <point x="52" y="157"/>
      <point x="77" y="170" type="curve"/>
      <point x="94" y="181"/>
      <point x="97" y="201"/>
      <point x="121" y="228" type="curve"/>
      <point x="109" y="193"/>
      <point x="91" y="180"/>
      <point x="91" y="160" type="curve"/>
      <point x="91" y="133"/>
      <point x="112" y="116"/>
      <point x="143" y="116" type="curve"/>
      <point x="174" y="116"/>
      <point x="195" y="133"/>
      <point x="195" y="160" type="curve"/>
      <point x="195" y="180"/>
      <point x="177" y="193"/>
      <point x="164" y="229" type="curve"/>
      <point x="189" y="202"/>
      <point x="192" y="181"/>
      <point x="209" y="170" type="curve"/>
      <point x="234" y="157"/>
      <point x="261" y="165"/>
      <point x="276" y="190" type="curve"/>
      <point x="291" y="215"/>
      <point x="286" y="241"/>
    </contour>
  </outline>
</glyph>
<glyph name="plus" format="1">
  <advance width="330"/>
  <unicode hex="002B"/>
  <outline>
    <contour>
      <point x="308" y="94" type="line"/>
      <point x="308" y="189" type="line"/>
      <point x="22" y="189" type="line"/>
      <point x="22" y="94" type="line"/>
    </contour>
    <contour>
      <point x="219" y="283" type="line"/>
      <point x="111" y="283" type="line"/>
      <point x="111" y="0" type="line"/>
      <point x="219" y="0" type="line"/>
    </contour>
  </outline>
</glyph>
<glyph name="comma" format="1">
  <advance width="186"/>
  <unicode hex="002C"/>
  <outline>
    <contour>
      <point x="18" y="-113" type="curve"/>
      <point x="74" y="-113" type="line"/>
      <point x="127" y="-66"/>
      <point x="167" y="8"/>
      <point x="167" y="55" type="curve"/>
      <point x="167" y="102"/>
      <point x="139" y="129"/>
      <point x="93" y="129" type="curve"/>
      <point x="49" y="129"/>
      <point x="19" y="102"/>
      <point x="19" y="71" type="curve"/>
      <point x="19" y="32"/>
      <point x="44" y="16"/>
      <point x="44" y="-25" type="curve"/>
      <point x="44" y="-49"/>
      <point x="35" y="-77"/>
    </contour>
  </outline>
</glyph>
<glyph name="hyphen" format="1">
  <advance width="255"/>
  <unicode hex="002D"/>
  <outline>
    <contour>
      <point x="33" y="189" type="line"/>
      <point x="33" y="96" type="line"/>
      <point x="222" y="96" type="line"/>
      <point x="222" y="189" type="line"/>
    </contour>
  </outline>
</glyph>
<glyph name="period" format="1">
  <advance width="186"/>
  <unicode hex="002E"/>
  <outline>
    <contour>
      <point x="93" y="-6" type="curve"/>
      <point x="139" y="-6"/>
      <point x="168" y="23"/>
      <point x="168" y="62" type="curve"/>
      <point x="168" y="101"/>
      <point x="139" y="130"/>
      <point x="93" y="130" type="curve"/>
      <point x="46" y="130"/>
      <point x="17" y="101"/>
      <point x="17" y="62" type="curve"/>
      <point x="17" y="23"/>
      <point x="46" y="-6"/>
    </contour>
  </outline>
</glyph>
<glyph name="slash" format="1">
  <advance width="238"/>
  <unicode hex="002F"/>
  <outline>
    <contour>
      <point x="138" y="407" type="line"/>
      <point x="0" y="-110" type="line"/>
      <point x="105" y="-110" type="line"/>
      <point x="242" y="407" type="line"/>
    </contour>
  </outline>
</glyph>
<glyph name="zero" format="1">
  <advance width="330"/>
  <unicode hex="0030"/>
  <outline>
    <contour>
      <point x="170" y="-6" type="curve"/>
      <point x="266" y="-4"/>
      <point x="319" y="86"/>
      <point x="319" y="203" type="curve"/>
      <point x="319" y="332"/>
      <point x="267" y="396"/>
      <point x="172" y="396" type="curve"/>
      <point x="68" y="396"/>
      <point x="11" y="311"/>
      <point x="11" y="188" type="curve"/>
      <point x="11" y="53"/>
      <point x="64" y="-8"/>
    </contour>
    <contour>
      <point x="165" y="88" type="curve"/>
      <point x="136" y="88"/>
      <point x="129" y="122"/>
      <point x="129" y="191" type="curve"/>
      <point x="129" y="261"/>
      <point x="139" y="302"/>
      <point x="168" y="302" type="curve"/>
      <point x="194" y="302"/>
      <point x="202" y="268"/>
      <point x="202" y="201" type="curve"/>
      <point x="202" y="130"/>
      <point x="194" y="88"/>
    </contour>
  </outline>
</glyph>
<glyph name="one" format="1">
  <advance width="330"/>
  <unicode hex="0031"/>
  <outline>
    <contour>
      <point x="129" y="292" type="line"/>
      <point x="129" y="55" type="line"/>
      <point x="245" y="55" type="line"/>
      <point x="245" y="391" type="line"/>
      <point x="179" y="391" type="line"/>
      <point x="25" y="288" type="line"/>
      <point x="80" y="211" type="line"/>
      <point x="196" y="292" type="line"/>
    </contour>
    <contour>
      <point x="40" y="87" type="line"/>
      <point x="40" y="0" type="line"/>
      <point x="326" y="0" type="line"/>
      <point x="326" y="87" type="line"/>
    </contour>
  </outline>
</glyph>
<glyph name="two" format="1">
  <advance width="330"/>
  <unicode hex="0032"/>
  <outline>
    <contour>
      <point x="23" y="74" type="curve"/>
      <point x="23" y="0" type="line"/>
      <point x="304" y="0" type="line"/>
      <point x="304" y="87" type="line"/>
      <point x="131" y="87" type="line"/>
      <point x="126" y="60" type="line"/>
      <point x="248" y="127"/>
      <point x="295" y="203"/>
      <point x="295" y="277" type="curve"/>
      <point x="296" y="345"/>
      <point x="248" y="396"/>
      <point x="163" y="396" type="curve"/>
      <point x="92" y="396"/>
      <point x="31" y="356"/>
      <point x="12" y="299" type="curve"/>
      <point x="95" y="256" type="line"/>
      <point x="103" y="280"/>
      <point x="122" y="300"/>
      <point x="148" y="300" type="curve"/>
      <point x="168" y="300"/>
      <point x="179" y="289"/>
      <point x="179" y="264" type="curve"/>
      <point x="179" y="215"/>
      <point x="121" y="138"/>
    </contour>
  </outline>
</glyph>
<glyph name="three" format="1">
  <advance width="330"/>
  <unicode hex="0033"/>
  <outline>
    <contour>
      <point x="129" y="-6" type="curve"/>
      <point x="234" y="-6"/>
      <point x="304" y="49"/>
      <point x="304" y="117" type="curve"/>
      <point x="304" y="163"/>
      <point x="280" y="191"/>
      <point x="235" y="203" type="curve"/>
      <point x="238" y="200" type="line"/>
      <point x="276" y="216"/>
      <point x="295" y="252"/>
      <point x="295" y="286" type="curve"/>
      <point x="295" y="356"/>
      <point x="240" y="396"/>
      <point x="163" y="396" type="curve"/>
      <point x="92" y="396"/>
      <point x="31" y="356"/>
      <point x="12" y="299" type="curve"/>
      <point x="95" y="256" type="line"/>
      <point x="103" y="280"/>
      <point x="122" y="300"/>
      <point x="147" y="300" type="curve"/>
      <point x="173" y="300"/>
      <point x="179" y="288"/>
      <point x="179" y="273" type="curve"/>
      <point x="179" y="258"/>
      <point x="173" y="239"/>
      <point x="130" y="239" type="curve"/>
      <point x="105" y="239" type="line"/>
      <point x="105" y="154" type="line"/>
      <point x="131" y="154" type="line" smooth="yes"/>
      <point x="172" y="154"/>
      <point x="189" y="143"/>
      <point x="189" y="122" type="curve"/>
      <point x="189" y="107"/>
      <point x="180" y="89"/>
      <point x="135" y="89" type="curve"/>
      <point x="102" y="89"/>
      <point x="74" y="98"/>
      <point x="48" y="112" type="curve"/>
      <point x="23" y="18" type="line"/>
      <point x="51" y="-1"/>
      <point x="102" y="-6"/>
    </contour>
  </outline>
</glyph>
<glyph name="four" format="1">
  <advance width="330"/>
  <unicode hex="0034"/>
  <outline>
    <contour>
      <point x="168" y="244" type="line"/>
      <point x="168" y="0" type="line"/>
      <point x="281" y="0" type="line"/>
      <point x="281" y="392" type="line"/>
      <point x="200" y="392" type="line"/>
      <point x="9" y="156" type="line"/>
      <point x="9" y="80" type="line"/>
      <point x="336" y="80" type="line"/>
      <point x="336" y="167" type="line"/>
      <point x="106" y="167" type="line"/>
      <point x="107" y="142" type="line"/>
      <point x="184" y="248" type="line"/>
    </contour>
  </outline>
</glyph>
<glyph name="five" format="1">
  <advance width="330"/>
  <unicode hex="0035"/>
  <outline>
    <contour>
      <point x="129" y="-6" type="curve"/>
      <point x="235" y="-6"/>
      <point x="304" y="51"/>
      <point x="304" y="123" type="curve"/>
      <point x="304" y="201"/>
      <point x="244" y="240"/>
      <point x="148" y="243" type="curve"/>
      <point x="118" y="244" type="line"/>
      <point x="163" y="220" type="line"/>
      <point x="172" y="335" type="line"/>
      <point x="124" y="304" type="line"/>
      <point x="283" y="304" type="line"/>
      <point x="283" y="392" type="line"/>
      <point x="64" y="392" type="line"/>
      <point x="45" y="157" type="line"/>
      <point x="116" y="154" type="line" smooth="yes"/>
      <point x="192" y="152"/>
      <point x="189" y="132"/>
      <point x="189" y="118" type="curve"/>
      <point x="189" y="107"/>
      <point x="180" y="89"/>
      <point x="135" y="89" type="curve"/>
      <point x="102" y="89"/>
      <point x="74" y="98"/>
      <point x="48" y="112" type="curve"/>
      <point x="23" y="18" type="line"/>
      <point x="51" y="-1"/>
      <point x="102" y="-6"/>
    </contour>
  </outline>
</glyph>
<glyph name="six" format="1">
  <advance width="330"/>
  <unicode hex="0036"/>
  <outline>
    <contour>
      <point x="177" y="-6" type="curve"/>
      <point x="270" y="-6"/>
      <point x="327" y="56"/>
      <point x="327" y="129" type="curve"/>
      <point x="327" y="211"/>
      <point x="264" y="250"/>
      <point x="202" y="250" type="curve"/>
      <point x="165" y="250"/>
      <point x="133" y="238"/>
      <point x="110" y="208" type="curve"/>
      <point x="130" y="191" type="line"/>
      <point x="130" y="215" type="line" smooth="yes"/>
      <point x="130" y="267"/>
      <point x="154" y="300"/>
      <point x="186" y="300" type="curve"/>
      <point x="210" y="300"/>
      <point x="223" y="290"/>
      <point x="232" y="269" type="curve"/>
      <point x="327" y="312" type="line"/>
      <point x="301" y="368"/>
      <point x="257" y="396"/>
      <point x="191" y="396" type="curve"/>
      <point x="101" y="396"/>
      <point x="15" y="325"/>
      <point x="15" y="191" type="curve"/>
      <point x="15" y="53"/>
      <point x="78" y="-6"/>
    </contour>
    <contour>
      <point x="177" y="81" type="curve"/>
      <point x="157" y="81"/>
      <point x="138" y="92"/>
      <point x="138" y="122" type="curve"/>
      <point x="138" y="142"/>
      <point x="150" y="163"/>
      <point x="172" y="163" type="curve"/>
      <point x="198" y="163"/>
      <point x="211" y="145"/>
      <point x="211" y="120" type="curve"/>
      <point x="211" y="105"/>
      <point x="200" y="81"/>
    </contour>
  </outline>
</glyph>
<glyph name="seven" format="1">
  <advance width="330"/>
  <unicode hex="0037"/>
  <outline>
    <contour>
      <point x="45" y="0" type="line"/>
      <point x="168" y="0" type="line"/>
      <point x="309" y="301" type="line"/>
      <point x="309" y="391" type="line"/>
      <point x="29" y="391" type="line"/>
      <point x="29" y="303" type="line"/>
      <point x="224" y="303" type="line"/>
      <point x="200" y="326" type="line"/>
    </contour>
  </outline>
</glyph>
<glyph name="eight" format="1">
  <advance width="330"/>
  <unicode hex="0038"/>
  <outline>
    <contour>
      <point x="165" y="-6" type="curve"/>
      <point x="263" y="-6"/>
      <point x="324" y="37"/>
      <point x="324" y="107" type="curve"/>
      <point x="324" y="160"/>
      <point x="279" y="203"/>
      <point x="219" y="208" type="curve"/>
      <point x="220" y="190" type="line"/>
      <point x="279" y="200"/>
      <point x="314" y="236"/>
      <point x="314" y="286" type="curve"/>
      <point x="314" y="350"/>
      <point x="247" y="396"/>
      <point x="165" y="396" type="curve"/>
      <point x="83" y="396"/>
      <point x="16" y="350"/>
      <point x="16" y="286" type="curve"/>
      <point x="16" y="236"/>
      <point x="51" y="200"/>
      <point x="110" y="190" type="curve"/>
      <point x="111" y="208" type="line"/>
      <point x="51" y="203"/>
      <point x="6" y="160"/>
      <point x="6" y="107" type="curve"/>
      <point x="6" y="37"/>
      <point x="67" y="-6"/>
    </contour>
    <contour>
      <point x="165" y="81" type="curve"/>
      <point x="137" y="81"/>
      <point x="121" y="95"/>
      <point x="121" y="119" type="curve"/>
      <point x="121" y="142"/>
      <point x="138" y="156"/>
      <point x="165" y="156" type="curve"/>
      <point x="193" y="156"/>
      <point x="209" y="142"/>
      <point x="209" y="119" type="curve"/>
      <point x="209" y="95"/>
      <point x="193" y="81"/>
    </contour>
    <contour>
      <point x="165" y="239" type="curve"/>
      <point x="145" y="239"/>
      <point x="132" y="253"/>
      <point x="132" y="274" type="curve"/>
      <point x="132" y="294"/>
      <point x="145" y="309"/>
      <point x="165" y="309" type="curve"/>
      <point x="186" y="309"/>
      <point x="198" y="295"/>
      <point x="198" y="274" type="curve"/>
      <point x="198" y="253"/>
      <point x="185" y="239"/>
    </contour>
  </outline>
</glyph>
<glyph name="less" format="1">
  <advance width="330"/>
  <unicode hex="003C"/>
  <outline>
    <contour>
      <point x="17" y="178" type="line"/>
      <point x="17" y="103" type="line"/>
      <point x="313" y="-11" type="line"/>
      <point x="313" y="83" type="line"/>
      <point x="90" y="167" type="line"/>
      <point x="90" y="114" type="line"/>
      <point x="313" y="198" type="line"/>
      <point x="313" y="293" type="line"/>
    </contour>
  </outline>
</glyph>
<glyph name="equal" format="1">
  <advance width="330"/>
  <unicode hex="003D"/>
  <outline>
    <contour>
      <point x="308" y="30" type="line"/>
      <point x="308" y="114" type="line"/>
      <point x="22" y="114" type="line"/>
      <point x="22" y="30" type="line"/>
    </contour>
    <contour>
      <point x="308" y="170" type="line"/>
      <point x="308" y="254" type="line"/>
      <point x="22" y="254" type="line"/>
      <point x="22" y="170" type="line"/>
    </contour>
  </outline>
</glyph>
<glyph name="greater" format="1">
  <advance width="330"/>
  <unicode hex="003E"/>
  <outline>
    <contour>
      <point x="17" y="-11" type="line"/>
      <point x="313" y="103" type="line"/>
      <point x="313" y="178" type="line"/>
      <point x="17" y="293" type="line"/>
      <point x="17" y="198" type="line"/>
      <point x="240" y="114" type="line"/>
      <point x="240" y="167" type="line"/>
      <point x="17" y="83" type="line"/>
    </contour>
  </outline>
</glyph>
<glyph name="question" format="1">
  <advance width="281"/>
  <unicode hex="003F"/>
  <outline>
    <contour>
      <point x="140" y="-6" type="curve"/>
      <point x="181" y="-6"/>
      <point x="209" y="19"/>
      <point x="209" y="56" type="curve"/>
      <point x="209" y="93"/>
      <point x="181" y="118"/>
      <point x="140" y="118" type="curve"/>
      <point x="98" y="118"/>
      <point x="70" y="93"/>
      <point x="70" y="56" type="curve"/>
      <point x="70" y="20"/>
      <point x="98" y="-6"/>
    </contour>
    <contour>
      <point x="95" y="153" type="curve"/>
      <point x="180" y="149" type="line"/>
      <point x="182" y="173"/>
      <point x="190" y="186"/>
      <point x="223" y="212" type="curve"/>
      <point x="249" y="232"/>
      <point x="264" y="259"/>
      <point x="264" y="298" type="curve"/>
      <point x="264" y="354"/>
      <point x="213" y="396"/>
      <point x="140" y="396" type="curve"/>
      <point x="70" y="396"/>
      <point x="8" y="356"/>
      <point x="-11" y="299" type="curve"/>
      <point x="72" y="256" type="line"/>
      <point x="81" y="283"/>
      <point x="101" y="300"/>
      <point x="125" y="300" type="curve"/>
      <point x="146" y="300"/>
      <point x="149" y="294"/>
      <point x="149" y="291" type="curve"/>
      <point x="149" y="284"/>
      <point x="141" y="275"/>
      <point x="129" y="266" type="curve"/>
      <point x="99" y="245"/>
      <point x="86" y="209"/>
    </contour>
  </outline>
</glyph>
<glyph name="at" format="1">
  <advance width="567"/>
  <unicode hex="0040"/>
  <outline>
    <contour>
      <point x="293" y="-117" type="curve"/>
      <point x="360" y="-117"/>
      <point x="407" y="-108"/>
      <point x="451" y="-87" type="curve"/>
      <point x="402" y="-11" type="line"/>
      <point x="368" y="-26"/>
      <point x="330" y="-34"/>
      <point x="293" y="-34" type="curve"/>
      <point x="183" y="-34"/>
      <point x="116" y="31"/>
      <point x="116" y="137" type="curve"/>
      <point x="116" y="246"/>
      <point x="189" y="318"/>
      <point x="304" y="318" type="curve"/>
      <point x="405" y="318"/>
      <point x="461" y="272"/>
      <point x="461" y="191" type="curve"/>
      <point x="461" y="135"/>
      <point x="451" y="95"/>
      <point x="436" y="95" type="curve"/>
      <point x="424" y="95"/>
      <point x="419" y="103"/>
      <point x="422" y="121" type="curve"/>
      <point x="447" y="272" type="line"/>
      <point x="380" y="282" type="line"/>
      <point x="356" y="237" type="line"/>
      <point x="383" y="258" type="line"/>
      <point x="359" y="278"/>
      <point x="331" y="287"/>
      <point x="297" y="287" type="curve"/>
      <point x="205" y="287"/>
      <point x="140" y="214"/>
      <point x="140" y="125" type="curve"/>
      <point x="140" y="57"/>
      <point x="182" y="14"/>
      <point x="246" y="14" type="curve"/>
      <point x="309" y="14"/>
      <point x="347" y="52"/>
      <point x="366" y="129" type="curve"/>
      <point x="330" y="124" type="line"/>
      <point x="313" y="56"/>
      <point x="346" y="14"/>
      <point x="414" y="14" type="curve"/>
      <point x="495" y="14"/>
      <point x="555" y="91"/>
      <point x="555" y="191" type="curve"/>
      <point x="555" y="323"/>
      <point x="462" y="399"/>
      <point x="303" y="399" type="curve"/>
      <point x="130" y="399"/>
      <point x="12" y="293"/>
      <point x="12" y="137" type="curve"/>
      <point x="12" y="-14"/>
      <point x="126" y="-117"/>
    </contour>
    <contour>
      <point x="281" y="97" type="curve"/>
      <point x="260" y="97"/>
      <point x="250" y="109"/>
      <point x="250" y="134" type="curve"/>
      <point x="250" y="170"/>
      <point x="275" y="204"/>
      <point x="311" y="204" type="curve"/>
      <point x="326" y="204"/>
      <point x="338" y="195"/>
      <point x="345" y="183" type="curve"/>
      <point x="336" y="228" type="line"/>
      <point x="328" y="181" type="line" smooth="yes"/>
      <point x="316" y="118"/>
      <point x="303" y="97"/>
    </contour>
  </outline>
</glyph>
<glyph name="A" format="1">
  <advance width="392"/>
  <unicode hex="0041"/>
  <outline>
    <contour>
      <point x="148" y="391" type="line"/>
      <point x="-26" y="0" type="line"/>
      <point x="96" y="0" type="line"/>
      <point x="219" y="303" type="line"/>
      <point x="174" y="305" type="line"/>
      <point x="294" y="0" type="line"/>
      <point x="416" y="0" type="line"/>
      <point x="249" y="391" type="line"/>
    </contour>
    <contour>
      <point x="128" y="162" type="line"/>
      <point x="76" y="68" type="line"/>
      <point x="322" y="68" type="line"/>
      <point x="273" y="162" type="line"/>
    </contour>
    <contour>
      <point x="196" y="0" type="move" name="bottom"/>
    </contour>
    <contour>
      <point x="416" y="0" type="move" name="ogonek"/>
    </contour>
    <contour>
      <point x="196" y="391" type="move" name="top"/>
    </contour>
  </outline>
</glyph>
<glyph name="B" format="1">
  <advance width="369"/>
  <unicode hex="0042"/>
  <outline>
    <contour>
      <point x="31" y="391" type="line"/>
      <point x="31" y="0" type="line"/>
      <point x="204" y="0" type="line" smooth="yes"/>
      <point x="306" y="0"/>
      <point x="366" y="52"/>
      <point x="366" y="118" type="curve"/>
      <point x="366" y="163"/>
      <point x="340" y="194"/>
      <point x="308" y="206" type="curve"/>
      <point x="308" y="189" type="line"/>
      <point x="337" y="205"/>
      <point x="357" y="240"/>
      <point x="357" y="279" type="curve"/>
      <point x="357" y="354"/>
      <point x="290" y="391"/>
      <point x="210" y="391" type="curve"/>
    </contour>
    <contour>
      <point x="202" y="92" type="curve"/>
      <point x="150" y="92" type="line"/>
      <point x="150" y="299" type="line"/>
      <point x="211" y="299" type="line" smooth="yes"/>
      <point x="228" y="299"/>
      <point x="237" y="288"/>
      <point x="237" y="272" type="curve"/>
      <point x="237" y="251"/>
      <point x="224" y="242"/>
      <point x="191" y="242" type="curve"/>
      <point x="140" y="242" type="line"/>
      <point x="140" y="151" type="line"/>
      <point x="206" y="151" type="line" smooth="yes"/>
      <point x="237" y="151"/>
      <point x="246" y="143"/>
      <point x="246" y="124" type="curve"/>
      <point x="246" y="102"/>
      <point x="231" y="92"/>
    </contour>
    <contour>
      <point x="200" y="0" type="move" name="bottom"/>
    </contour>
    <contour>
      <point x="201" y="392" type="move" name="top"/>
    </contour>
  </outline>
</glyph>
<glyph name="C" format="1">
  <advance width="385"/>
  <unicode hex="0043"/>
  <outline>
    <contour>
      <point x="398" y="78" type="curve"/>
      <point x="309" y="143" type="line"/>
      <point x="289" y="108"/>
      <point x="254" y="94"/>
      <point x="229" y="94" type="curve"/>
      <point x="169" y="94"/>
      <point x="135" y="129"/>
      <point x="135" y="190" type="curve"/>
      <point x="135" y="252"/>
      <point x="175" y="296"/>
      <point x="234" y="296" type="curve"/>
      <point x="258" y="296"/>
      <point x="291" y="284"/>
      <point x="307" y="253" type="curve"/>
      <point x="399" y="313" type="line"/>
      <point x="360" y="370"/>
      <point x="312" y="396"/>
      <point x="234" y="396" type="curve"/>
      <point x="103" y="396"/>
      <point x="12" y="311"/>
      <point x="12" y="187" type="curve"/>
      <point x="12" y="66"/>
      <point x="91" y="-6"/>
      <point x="227" y="-6" type="curve"/>
      <point x="299" y="-6"/>
      <point x="363" y="24"/>
    </contour>
    <contour>
      <point x="218" y="0" type="move" name="bottom"/>
    </contour>
    <contour>
      <point x="218" y="391" type="move" name="top"/>
    </contour>
  </outline>
</glyph>
<glyph name="D" format="1">
  <advance width="425"/>
  <unicode hex="0044"/>
  <outline>
    <contour>
      <point x="31" y="391" type="line"/>
      <point x="31" y="0" type="line"/>
      <point x="205" y="0" type="line" smooth="yes"/>
      <point x="324" y="0"/>
      <point x="414" y="83"/>
      <point x="414" y="196" type="curve"/>
      <point x="414" y="324"/>
      <point x="332" y="391"/>
      <point x="176" y="391" type="curve"/>
    </contour>
    <contour>
      <point x="201" y="100" type="curve"/>
      <point x="152" y="100" type="line"/>
      <point x="152" y="290" type="line"/>
      <point x="190" y="290" type="line" smooth="yes"/>
      <point x="259" y="290"/>
      <point x="291" y="259"/>
      <point x="291" y="193" type="curve"/>
      <point x="291" y="132"/>
      <point x="258" y="100"/>
    </contour>
    <contour>
      <point x="212" y="0" type="move" name="bottom"/>
    </contour>
    <contour>
      <point x="212" y="197" type="move" name="center"/>
    </contour>
    <contour>
      <point x="91" y="198" type="move" name="stroke"/>
    </contour>
    <contour>
      <point x="212" y="391" type="move" name="top"/>
    </contour>
  </outline>
</glyph>
<glyph name="E" format="1">
  <advance width="332"/>
  <unicode hex="0045"/>
  <outline>
    <contour>
      <point x="150" y="293" type="line"/>
      <point x="326" y="293" type="line"/>
      <point x="326" y="391" type="line"/>
      <point x="31" y="391" type="line"/>
      <point x="31" y="0" type="line"/>
      <point x="322" y="0" type="line"/>
      <point x="329" y="97" type="line"/>
      <point x="150" y="97" type="line"/>
      <point x="150" y="147" type="line"/>
      <point x="310" y="147" type="line"/>
      <point x="310" y="245" type="line"/>
      <point x="150" y="245" type="line"/>
    </contour>
    <contour>
      <point x="178" y="0" type="move" name="bottom"/>
    </contour>
    <contour>
      <point x="322" y="0" type="move" name="ogonek"/>
    </contour>
    <contour>
      <point x="178" y="391" type="move" name="top"/>
    </contour>
    <contour>
      <point x="9" y="391" type="move" name="topleft"/>
    </contour>
  </outline>
</glyph>
<glyph name="F" format="1">
  <advance width="310"/>
  <unicode hex="0046"/>
  <outline>
    <contour>
      <point x="150" y="293" type="line"/>
      <point x="312" y="293" type="line"/>
      <point x="312" y="391" type="line"/>
      <point x="31" y="391" type="line"/>
      <point x="31" y="0" type="line"/>
      <point x="150" y="0" type="line"/>
      <point x="150" y="142" type="line"/>
      <point x="296" y="142" type="line"/>
      <point x="296" y="239" type="line"/>
      <point x="150" y="239" type="line"/>
    </contour>
    <contour>
      <point x="172" y="0" type="move" name="bottom"/>
    </contour>
    <contour>
      <point x="172" y="391" type="move" name="top"/>
    </contour>
  </outline>
</glyph>
<glyph name="G" format="1">
  <advance width="436"/>
  <unicode hex="0047"/>
  <outline>
    <contour>
      <point x="418" y="223" type="line"/>
      <point x="232" y="223" type="line"/>
      <point x="232" y="132" type="line"/>
      <point x="321" y="132" type="line"/>
      <point x="302" y="188" type="line"/>
      <point x="302" y="151" type="line" smooth="yes"/>
      <point x="302" y="109"/>
      <point x="246" y="95"/>
      <point x="229" y="95" type="curve"/>
      <point x="172" y="95"/>
      <point x="138" y="130"/>
      <point x="138" y="190" type="curve"/>
      <point x="138" y="252"/>
      <point x="178" y="295"/>
      <point x="248" y="295" type="curve"/>
      <point x="273" y="295"/>
      <point x="308" y="283"/>
      <point x="324" y="253" type="curve"/>
      <point x="416" y="315" type="line"/>
      <point x="377" y="370"/>
      <point x="327" y="396"/>
      <point x="247" y="396" type="curve"/>
      <point x="102" y="396"/>
      <point x="12" y="311"/>
      <point x="12" y="187" type="curve"/>
      <point x="12" y="67"/>
      <point x="90" y="-6"/>
      <point x="213" y="-6" type="curve"/>
      <point x="252" y="-6"/>
      <point x="303" y="4"/>
      <point x="327" y="42" type="curve"/>
      <point x="312" y="44" type="line"/>
      <point x="322" y="0" type="line"/>
      <point x="418" y="0" type="line"/>
    </contour>
    <contour>
      <point x="218" y="0" type="move" name="bottom"/>
    </contour>
    <contour>
      <point x="218" y="391" type="move" name="top"/>
    </contour>
  </outline>
</glyph>
<glyph name="H" format="1">
  <advance width="431"/>
  <unicode hex="0048"/>
  <outline>
    <contour>
      <point x="279" y="391" type="line"/>
      <point x="279" y="0" type="line"/>
      <point x="400" y="0" type="line"/>
      <point x="400" y="391" type="line"/>
    </contour>
    <contour>
      <point x="31" y="391" type="line"/>
      <point x="31" y="0" type="line"/>
      <point x="152" y="0" type="line"/>
      <point x="152" y="391" type="line"/>
    </contour>
    <contour>
      <point x="81" y="245" type="line"/>
      <point x="81" y="147" type="line"/>
      <point x="354" y="147" type="line"/>
      <point x="354" y="245" type="line"/>
    </contour>
    <contour>
      <point x="215" y="0" type="move" name="bottom"/>
    </contour>
    <contour>
      <point x="215" y="314" type="move" name="center"/>
    </contour>
    <contour>
      <point x="215" y="391" type="move" name="top"/>
    </contour>
    <contour>
      <point x="9" y="391" type="move" name="topleft"/>
    </contour>
  </outline>
</glyph>
<glyph name="J" format="1">
  <advance width="294"/>
  <unicode hex="004A"/>
  <outline>
    <contour>
      <point x="119" y="-6" type="curve"/>
      <point x="209" y="-6"/>
      <point x="264" y="49"/>
      <point x="264" y="142" type="curve"/>
      <point x="264" y="391" type="line"/>
      <point x="144" y="391" type="line"/>
      <point x="144" y="128" type="line" smooth="yes"/>
      <point x="144" y="104"/>
      <point x="130" y="93"/>
      <point x="115" y="93" type="curve"/>
      <point x="99" y="93"/>
      <point x="89" y="105"/>
      <point x="79" y="127" type="curve"/>
      <point x="-19" y="86" type="line"/>
      <point x="1" y="24"/>
      <point x="53" y="-6"/>
    </contour>
    <contour>
      <point x="147" y="0" type="move" name="bottom"/>
    </contour>
    <contour>
      <point x="204" y="391" type="move" name="top"/>
    </contour>
  </outline>
</glyph>
<glyph name="K" format="1">
  <advance width="410"/>
  <unicode hex="004B"/>
  <outline>
    <contour>
      <point x="31" y="391" type="line"/>
      <point x="31" y="0" type="line"/>
      <point x="152" y="0" type="line"/>
      <point x="152" y="391" type="line"/>
    </contour>
    <contour>
      <point x="433" y="17" type="curve"/>
      <point x="405" y="104" type="line"/>
      <point x="391" y="95"/>
      <point x="377" y="93"/>
      <point x="361" y="93" type="curve"/>
      <point x="344" y="93"/>
      <point x="328" y="100"/>
      <point x="322" y="113" type="curve"/>
      <point x="305" y="152" type="line" smooth="yes"/>
      <point x="287" y="182"/>
      <point x="257" y="206"/>
      <point x="215" y="206" type="curve"/>
      <point x="246" y="178" type="line"/>
      <point x="428" y="391" type="line"/>
      <point x="285" y="391" type="line"/>
      <point x="119" y="192" type="line"/>
      <point x="119" y="149" type="line"/>
      <point x="161" y="149"/>
      <point x="172" y="144"/>
      <point x="193" y="113" type="curve"/>
      <point x="222" y="55" type="line" smooth="yes"/>
      <point x="244" y="17"/>
      <point x="290" y="-7"/>
      <point x="348" y="-7" type="curve"/>
      <point x="379" y="-7"/>
      <point x="415" y="3"/>
    </contour>
    <contour>
      <point x="202" y="0" type="move" name="bottom"/>
    </contour>
    <contour>
      <point x="202" y="391" type="move" name="top"/>
    </contour>
  </outline>
</glyph>
<glyph name="L" format="1">
  <advance width="310"/>
  <unicode hex="004C"/>
  <outline>
    <contour>
      <point x="31" y="391" type="line"/>
      <point x="31" y="0" type="line"/>
      <point x="305" y="0" type="line"/>
      <point x="312" y="99" type="line"/>
      <point x="152" y="99" type="line"/>
      <point x="152" y="391" type="line"/>
    </contour>
    <contour>
      <point x="169" y="0" type="move" name="bottom"/>
    </contour>
    <contour>
      <point x="91" y="214" type="move" name="center"/>
    </contour>
    <contour>
      <point x="258" y="250" type="move" name="dotacc"/>
    </contour>
    <contour>
      <point x="91" y="391" type="move" name="top"/>
    </contour>
    <contour>
      <point x="207" y="391" type="move" name="topright"/>
    </contour>
  </outline>
</glyph>
<glyph name="M" format="1">
  <advance width="532"/>
  <unicode hex="004D"/>
  <outline>
    <contour>
      <point x="43" y="391" type="line"/>
      <point x="32" y="0" type="line"/>
      <point x="144" y="0" type="line"/>
      <point x="152" y="321" type="line"/>
      <point x="81" y="270" type="line"/>
      <point x="221" y="0" type="line"/>
      <point x="305" y="0" type="line"/>
      <point x="449" y="278" type="line"/>
      <point x="377" y="321" type="line"/>
      <point x="381" y="0" type="line"/>
      <point x="498" y="0" type="line"/>
      <point x="491" y="391" type="line"/>
      <point x="393" y="391" type="line"/>
      <point x="234" y="78" type="line"/>
      <point x="303" y="78" type="line"/>
      <point x="141" y="391" type="line"/>
    </contour>
    <contour>
      <point x="263" y="0" type="move" name="bottom"/>
    </contour>
    <contour>
      <point x="263" y="391" type="move" name="top"/>
    </contour>
  </outline>
</glyph>
<glyph name="N" format="1">
  <advance width="425"/>
  <unicode hex="004E"/>
  <outline>
    <contour>
      <point x="394" y="391" type="line"/>
      <point x="278" y="391" type="line"/>
      <point x="278" y="100" type="line"/>
      <point x="321" y="128" type="line"/>
      <point x="139" y="391" type="line"/>
      <point x="31" y="391" type="line"/>
      <point x="31" y="0" type="line"/>
      <point x="148" y="0" type="line"/>
      <point x="148" y="290" type="line"/>
      <point x="105" y="262" type="line"/>
      <point x="286" y="0" type="line"/>
      <point x="394" y="0" type="line"/>
    </contour>
    <contour>
      <point x="212" y="0" type="move" name="bottom"/>
    </contour>
    <contour>
      <point x="212" y="392" type="move" name="top"/>
    </contour>
  </outline>
</glyph>
<glyph name="O" format="1">
  <advance width="434"/>
  <unicode hex="004F"/>
  <outline>
    <contour>
      <point x="222" y="-6" type="curve"/>
      <point x="338" y="-4"/>
      <point x="422" y="76"/>
      <point x="422" y="203" type="curve"/>
      <point x="422" y="319"/>
      <point x="343" y="396"/>
      <point x="227" y="396" type="curve"/>
      <point x="90" y="396"/>
      <point x="12" y="310"/>
      <point x="12" y="188" type="curve"/>
      <point x="12" y="66"/>
      <point x="90" y="-8"/>
    </contour>
    <contour>
      <point x="216" y="94" type="curve"/>
      <point x="165" y="94"/>
      <point x="134" y="129"/>
      <point x="134" y="191" type="curve"/>
      <point x="134" y="253"/>
      <point x="171" y="297"/>
      <point x="222" y="297" type="curve"/>
      <point x="269" y="297"/>
      <point x="300" y="258"/>
      <point x="300" y="201" type="curve"/>
      <point x="300" y="134"/>
      <point x="265" y="94"/>
    </contour>
    <contour>
      <point x="217" y="0" type="move" name="bottom"/>
    </contour>
    <contour>
      <point x="217" y="195" type="move" name="center"/>
    </contour>
    <contour>
      <point x="280" y="0" type="move" name="ogonek"/>
    </contour>
    <contour>
      <point x="217" y="391" type="move" name="top"/>
    </contour>
    <contour>
      <point x="12" y="391" type="move" name="topleft"/>
    </contour>
    <contour>
      <point x="295" y="391" type="move" name="topright"/>
    </contour>
  </outline>
</glyph>
<glyph name="P" format="1">
  <advance width="367"/>
  <unicode hex="0050"/>
  <outline>
    <contour>
      <point x="31" y="0" type="line"/>
      <point x="149" y="0" type="line"/>
      <point x="149" y="298" type="line"/>
      <point x="188" y="298" type="line" smooth="yes"/>
      <point x="227" y="298"/>
      <point x="245" y="292"/>
      <point x="245" y="259" type="curve"/>
      <point x="245" y="227"/>
      <point x="221" y="219"/>
      <point x="182" y="219" type="curve"/>
      <point x="124" y="219" type="line"/>
      <point x="124" y="126" type="line"/>
      <point x="176" y="126" type="line" smooth="yes"/>
      <point x="291" y="126"/>
      <point x="365" y="177"/>
      <point x="365" y="261" type="curve"/>
      <point x="365" y="345"/>
      <point x="309" y="390"/>
      <point x="188" y="390" type="curve"/>
      <point x="31" y="390" type="line"/>
    </contour>
    <contour>
      <point x="181" y="0" type="move" name="bottom"/>
    </contour>
    <contour>
      <point x="180" y="391" type="move" name="top"/>
    </contour>
  </outline>
</glyph>
<glyph name="Q" format="1">
  <advance width="434"/>
  <unicode hex="0051"/>
  <outline>
    <contour>
      <point x="281" y="56" type="line"/>
      <point x="162" y="56" type="line"/>
      <point x="162" y="8" type="line" smooth="yes"/>
      <point x="162" y="-66"/>
      <point x="215" y="-116"/>
      <point x="299" y="-116" type="curve"/>
      <point x="360" y="-116"/>
      <point x="408" y="-89"/>
      <point x="415" y="-24" type="curve"/>
      <point x="317" y="-13" type="line"/>
      <point x="316" y="-24"/>
      <point x="308" y="-28"/>
      <point x="300" y="-28" type="curve"/>
      <point x="287" y="-28"/>
      <point x="281" y="-17"/>
      <point x="281" y="1" type="curve"/>
    </contour>
    <contour>
      <point x="222" y="-6" type="curve"/>
      <point x="338" y="-4"/>
      <point x="422" y="76"/>
      <point x="422" y="203" type="curve"/>
      <point x="422" y="319"/>
      <point x="343" y="396"/>
      <point x="227" y="396" type="curve"/>
      <point x="90" y="396"/>
      <point x="12" y="310"/>
      <point x="12" y="188" type="curve"/>
      <point x="12" y="66"/>
      <point x="90" y="-8"/>
    </contour>
    <contour>
      <point x="216" y="94" type="curve"/>
      <point x="165" y="94"/>
      <point x="134" y="129"/>
      <point x="134" y="191" type="curve"/>
      <point x="134" y="253"/>
      <point x="171" y="297"/>
      <point x="222" y="297" type="curve"/>
      <point x="269" y="297"/>
      <point x="300" y="258"/>
      <point x="300" y="201" type="curve"/>
      <point x="300" y="134"/>
      <point x="265" y="94"/>
    </contour>
    <contour>
      <point x="218" y="391" type="move" name="top"/>
    </contour>
  </outline>
</glyph>
<glyph name="R" format="1">
  <advance width="387"/>
  <unicode hex="0052"/>
  <outline>
    <contour>
      <point x="414" y="17" type="curve"/>
      <point x="385" y="104" type="line"/>
      <point x="372" y="95"/>
      <point x="358" y="93"/>
      <point x="341" y="93" type="curve"/>
      <point x="325" y="93"/>
      <point x="309" y="101"/>
      <point x="302" y="113" type="curve"/>
      <point x="306" y="117" type="line" smooth="yes"/>
      <point x="289" y="142"/>
      <point x="266" y="153"/>
      <point x="241" y="153" type="curve"/>
      <point x="199" y="141" type="line"/>
      <point x="203" y="141" type="line" smooth="yes"/>
      <point x="287" y="141"/>
      <point x="350" y="186"/>
      <point x="350" y="261" type="curve"/>
      <point x="350" y="341"/>
      <point x="293" y="391"/>
      <point x="173" y="391" type="curve"/>
      <point x="31" y="391" type="line"/>
      <point x="31" y="0" type="line"/>
      <point x="150" y="0" type="line"/>
      <point x="150" y="299" type="line"/>
      <point x="166" y="299" type="line" smooth="yes"/>
      <point x="202" y="299"/>
      <point x="230" y="291"/>
      <point x="230" y="262" type="curve"/>
      <point x="230" y="237"/>
      <point x="217" y="226"/>
      <point x="166" y="226" type="curve"/>
      <point x="124" y="226" type="line"/>
      <point x="124" y="138" type="line"/>
      <point x="132" y="138" type="line" smooth="yes"/>
      <point x="149" y="138"/>
      <point x="159" y="137"/>
      <point x="174" y="113" type="curve"/>
      <point x="203" y="55" type="line" smooth="yes"/>
      <point x="226" y="17"/>
      <point x="270" y="-7"/>
      <point x="328" y="-7" type="curve"/>
      <point x="360" y="-7"/>
      <point x="395" y="3"/>
    </contour>
    <contour>
      <point x="200" y="0" type="move" name="bottom"/>
    </contour>
    <contour>
      <point x="200" y="391" type="move" name="top"/>
    </contour>
  </outline>
</glyph>
<glyph name="S" format="1">
  <advance width="341"/>
  <unicode hex="0053"/>
  <outline>
    <contour>
      <point x="166" y="-5" type="curve"/>
      <point x="268" y="-5"/>
      <point x="336" y="47"/>
      <point x="336" y="124" type="curve"/>
      <point x="336" y="259"/>
      <point x="147" y="224"/>
      <point x="147" y="277" type="curve"/>
      <point x="147" y="293"/>
      <point x="161" y="303"/>
      <point x="182" y="303" type="curve"/>
      <point x="204" y="303"/>
      <point x="224" y="288"/>
      <point x="227" y="268" type="curve"/>
      <point x="333" y="285" type="line"/>
      <point x="326" y="353"/>
      <point x="269" y="396"/>
      <point x="188" y="396" type="curve"/>
      <point x="89" y="396"/>
      <point x="25" y="344"/>
      <point x="25" y="267" type="curve"/>
      <point x="24" y="129"/>
      <point x="214" y="159"/>
      <point x="214" y="112" type="curve"/>
      <point x="214" y="96"/>
      <point x="198" y="88"/>
      <point x="169" y="88" type="curve"/>
      <point x="137" y="88"/>
      <point x="113" y="106"/>
      <point x="113" y="133" type="curve"/>
      <point x="1" y="117" type="line"/>
      <point x="5" y="37"/>
      <point x="62" y="-5"/>
    </contour>
    <contour>
      <point x="176" y="0" type="move" name="bottom"/>
    </contour>
    <contour>
      <point x="176" y="391" type="move" name="top"/>
    </contour>
  </outline>
</glyph>
<glyph name="T" format="1">
  <advance width="342"/>
  <unicode hex="0054"/>
  <outline>
    <contour>
      <point x="345" y="292" type="line"/>
      <point x="362" y="391" type="line"/>
      <point x="-11" y="391" type="line"/>
      <point x="-11" y="292" type="line"/>
      <point x="111" y="292" type="line"/>
      <point x="111" y="0" type="line"/>
      <point x="231" y="0" type="line"/>
      <point x="231" y="292" type="line"/>
    </contour>
    <contour>
      <point x="171" y="0" type="move" name="bottom"/>
    </contour>
    <contour>
      <point x="171" y="198" type="move" name="stroke"/>
    </contour>
    <contour>
      <point x="171" y="391" type="move" name="top"/>
    </contour>
  </outline>
</glyph>
<glyph name="U" format="1">
  <advance width="431"/>
  <unicode hex="0055"/>
  <outline>
    <contour>
      <point x="400" y="391" type="line"/>
      <point x="281" y="391" type="line"/>
      <point x="282" y="183" type="line" smooth="yes"/>
      <point x="283" y="121"/>
      <point x="255" y="94"/>
      <point x="221" y="94" type="curve"/>
      <point x="180" y="94"/>
      <point x="150" y="117"/>
      <point x="150" y="174" type="curve"/>
      <point x="150" y="391" type="line"/>
      <point x="30" y="391" type="line"/>
      <point x="30" y="164" type="line" smooth="yes"/>
      <point x="30" y="54"/>
      <point x="98" y="-8"/>
      <point x="224" y="-6" type="curve"/>
      <point x="326" y="-4"/>
      <point x="402" y="71"/>
      <point x="402" y="175" type="curve"/>
    </contour>
    <contour>
      <point x="215" y="0" type="move" name="bottom"/>
    </contour>
    <contour>
      <point x="278" y="0" type="move" name="ogonek"/>
    </contour>
    <contour>
      <point x="215" y="391" type="move" name="top"/>
    </contour>
    <contour>
      <point x="362" y="391" type="move" name="topright"/>
    </contour>
  </outline>
</glyph>
<glyph name="V" format="1">
  <advance width="385"/>
  <unicode hex="0056"/>
  <outline>
    <contour>
      <point x="408" y="391" type="line"/>
      <point x="289" y="391" type="line"/>
      <point x="168" y="22" type="line"/>
      <point x="219" y="22" type="line"/>
      <point x="118" y="391" type="line"/>
      <point x="-10" y="391" type="line"/>
      <point x="102" y="0" type="line"/>
      <point x="274" y="0" type="line"/>
    </contour>
    <contour>
      <point x="196" y="0" type="move" name="bottom"/>
    </contour>
    <contour>
      <point x="196" y="391" type="move" name="top"/>
    </contour>
  </outline>
</glyph>
<glyph name="W" format="1">
  <advance width="586"/>
  <unicode hex="0057"/>
  <outline>
    <contour>
      <point x="598" y="391" type="line"/>
      <point x="485" y="391" type="line"/>
      <point x="404" y="83" type="line"/>
      <point x="442" y="83" type="line"/>
      <point x="377" y="391" type="line"/>
      <point x="231" y="391" type="line"/>
      <point x="152" y="83" type="line"/>
      <point x="190" y="83" type="line"/>
      <point x="120" y="391" type="line"/>
      <point x="-2" y="391" type="line"/>
      <point x="96" y="0" type="line"/>
      <point x="232" y="0" type="line"/>
      <point x="304" y="281" type="line"/>
      <point x="290" y="281" type="line"/>
      <point x="350" y="0" type="line"/>
      <point x="486" y="0" type="line"/>
    </contour>
    <contour>
      <point x="291" y="0" type="move" name="bottom"/>
    </contour>
    <contour>
      <point x="304" y="391" type="move" name="top"/>
    </contour>
  </outline>
</glyph>
<glyph name="X" format="1">
  <advance width="368"/>
  <unicode hex="0058"/>
  <outline>
    <contour>
      <point x="181" y="104" type="line"/>
      <point x="232" y="0" type="line"/>
      <point x="370" y="0" type="line"/>
      <point x="247" y="203" type="line"/>
      <point x="185" y="293" type="line"/>
      <point x="133" y="391" type="line"/>
      <point x="-2" y="391" type="line"/>
      <point x="117" y="196" type="line"/>
    </contour>
    <contour>
      <point x="-7" y="0" type="line"/>
      <point x="124" y="0" type="line"/>
      <point x="181" y="104" type="line"/>
      <point x="247" y="203" type="line"/>
      <point x="364" y="391" type="line"/>
      <point x="236" y="391" type="line"/>
      <point x="185" y="293" type="line"/>
      <point x="117" y="196" type="line"/>
    </contour>
    <contour>
      <point x="185" y="0" type="move" name="bottom"/>
    </contour>
    <contour>
      <point x="185" y="391" type="move" name="top"/>
    </contour>
  </outline>
</glyph>
<glyph name="Y" format="1">
  <advance width="358"/>
  <unicode hex="0059"/>
  <outline>
    <contour>
      <point x="227" y="150" type="line"/>
      <point x="371" y="391" type="line"/>
      <point x="245" y="391" type="line"/>
      <point x="168" y="243" type="line"/>
      <point x="204" y="243" type="line"/>
      <point x="119" y="391" type="line"/>
      <point x="-17" y="391" type="line"/>
      <point x="133" y="148" type="line"/>
      <point x="120" y="193" type="line"/>
      <point x="120" y="0" type="line"/>
      <point x="241" y="0" type="line"/>
      <point x="241" y="196" type="line"/>
    </contour>
    <contour>
      <point x="180" y="0" type="move" name="bottom"/>
    </contour>
    <contour>
      <point x="182" y="391" type="move" name="top"/>
    </contour>
    <contour>
      <point x="18" y="391" type="move" name="topleft"/>
    </contour>
  </outline>
</glyph>
<glyph name="Z" format="1">
  <advance width="367"/>
  <unicode hex="005A"/>
  <outline>
    <contour>
      <point x="19" y="81" type="line"/>
      <point x="19" y="0" type="line"/>
      <point x="352" y="0" type="line"/>
      <point x="359" y="99" type="line"/>
      <point x="135" y="99" type="line"/>
      <point x="147" y="59" type="line"/>
      <point x="352" y="309" type="line"/>
      <point x="352" y="391" type="line"/>
      <point x="30" y="391" type="line"/>
      <point x="30" y="292" type="line"/>
      <point x="233" y="292" type="line"/>
      <point x="225" y="332" type="line"/>
    </contour>
    <contour>
      <point x="186" y="0" type="move" name="bottom"/>
    </contour>
    <contour>
      <point x="184" y="195" type="move" name="center"/>
    </contour>
    <contour>
      <point x="186" y="391" type="move" name="top"/>
    </contour>
  </outline>
</glyph>
<glyph name="bracketleft" format="1">
  <advance width="210"/>
  <unicode hex="005B"/>
  <outline>
    <contour>
      <point x="31" y="-110" type="line"/>
      <point x="213" y="-110" type="line"/>
      <point x="213" y="-31" type="line"/>
      <point x="141" y="-31" type="line"/>
      <point x="141" y="328" type="line"/>
      <point x="213" y="328" type="line"/>
      <point x="213" y="407" type="line"/>
      <point x="31" y="407" type="line"/>
    </contour>
  </outline>
</glyph>
<glyph name="backslash" format="1">
  <advance width="238"/>
  <unicode hex="005C"/>
  <outline>
    <contour>
      <point x="134" y="-110" type="line"/>
      <point x="238" y="-110" type="line"/>
      <point x="101" y="407" type="line"/>
      <point x="-4" y="407" type="line"/>
    </contour>
  </outline>
</glyph>
<glyph name="bracketright" format="1">
  <advance width="210"/>
  <unicode hex="005D"/>
  <outline>
    <contour>
      <point x="-3" y="-31" type="line"/>
      <point x="-3" y="-110" type="line"/>
      <point x="178" y="-110" type="line"/>
      <point x="178" y="407" type="line"/>
      <point x="-3" y="407" type="line"/>
      <point x="-3" y="328" type="line"/>
      <point x="69" y="328" type="line"/>
      <point x="69" y="-31" type="line"/>
    </contour>
  </outline>
</glyph>
<glyph name="asciicircum" format="1">
  <advance width="330"/>
  <unicode hex="005E"/>
  <outline>
    <contour>
      <point x="318" y="49" type="line"/>
      <point x="205" y="341" type="line"/>
      <point x="125" y="341" type="line"/>
      <point x="12" y="49" type="line"/>
      <point x="111" y="49" type="line"/>
      <point x="191" y="272" type="line"/>
      <point x="138" y="272" type="line"/>
      <point x="217" y="49" type="line"/>
    </contour>
  </outline>
</glyph>
<glyph name="underscore" format="1">
  <advance width="331"/>
  <unicode hex="005F"/>
  <outline>
    <contour>
      <point x="11" y="0" type="line"/>
      <point x="11" y="-87" type="line"/>
      <point x="319" y="-87" type="line"/>
      <point x="319" y="0" type="line"/>
    </contour>
  </outline>
</glyph>
<glyph name="a" format="1">
  <advance width="354"/>
  <unicode hex="0061"/>
  <outline>
    <contour>
      <point x="328" y="0" type="line"/>
      <point x="328" y="281" type="line"/>
      <point x="248" y="281" type="line"/>
      <point x="236" y="234" type="line"/>
      <point x="244" y="246" type="line"/>
      <point x="228" y="271"/>
      <point x="200" y="287"/>
      <point x="163" y="287" type="curve"/>
      <point x="81" y="287"/>
      <point x="11" y="225"/>
      <point x="11" y="130" type="curve"/>
      <point x="11" y="52"/>
      <point x="55" y="-6"/>
      <point x="135" y="-6" type="curve"/>
      <point x="193" y="-6"/>
      <point x="229" y="23"/>
      <point x="243" y="82" type="curve"/>
      <point x="223" y="99" type="line"/>
      <point x="215" y="0" type="line"/>
    </contour>
    <contour>
      <point x="176" y="196" type="curve"/>
      <point x="199" y="196"/>
      <point x="215" y="178"/>
      <point x="215" y="149" type="curve"/>
      <point x="215" y="110"/>
      <point x="191" y="85"/>
      <point x="163" y="85" type="curve"/>
      <point x="141" y="85"/>
      <point x="127" y="102"/>
      <point x="127" y="133" type="curve"/>
      <point x="127" y="168"/>
      <point x="144" y="196"/>
    </contour>
    <contour>
      <point x="181" y="0" type="move" name="bottom"/>
    </contour>
    <contour>
      <point x="328" y="0" type="move" name="ogonek"/>
    </contour>
    <contour>
      <point x="181" y="283" type="move" name="top"/>
    </contour>
  </outline>
</glyph>
<glyph name="c" format="1">
  <advance width="277"/>
  <unicode hex="0063"/>
  <outline>
    <contour>
      <point x="162" y="-6" type="curve"/>
      <point x="210" y="-6"/>
      <point x="259" y="8"/>
      <point x="286" y="54" type="curve"/>
      <point x="211" y="113" type="line"/>
      <point x="202" y="93"/>
      <point x="187" y="85"/>
      <point x="172" y="85" type="curve"/>
      <point x="143" y="85"/>
      <point x="127" y="104"/>
      <point x="127" y="138" type="curve"/>
      <point x="127" y="172"/>
      <point x="148" y="196"/>
      <point x="171" y="196" type="curve"/>
      <point x="189" y="196"/>
      <point x="199" y="189"/>
      <point x="210" y="170" type="curve"/>
      <point x="288" y="226" type="line"/>
      <point x="263" y="270"/>
      <point x="220" y="287"/>
      <point x="170" y="287" type="curve"/>
      <point x="76" y="287"/>
      <point x="11" y="226"/>
      <point x="11" y="136" type="curve"/>
      <point x="11" y="46"/>
      <point x="73" y="-6"/>
    </contour>
    <contour>
      <point x="154" y="0" type="move" name="bottom"/>
    </contour>
    <contour>
      <point x="152" y="283" type="move" name="top"/>
    </contour>
  </outline>
</glyph>
<glyph name="e" format="1">
  <advance width="305"/>
  <unicode hex="0065"/>
  <outline>
    <contour>
      <point x="174" y="-6" type="curve"/>
      <point x="235" y="-6"/>
      <point x="269" y="13"/>
      <point x="293" y="40" type="curve"/>
      <point x="231" y="101" type="line"/>
      <point x="218" y="90"/>
      <point x="196" y="83"/>
      <point x="183" y="83" type="curve"/>
      <point x="146" y="83"/>
      <point x="124" y="105"/>
      <point x="124" y="122" type="curve"/>
      <point x="124" y="149" type="line" smooth="yes"/>
      <point x="124" y="195"/>
      <point x="139" y="212"/>
      <point x="164" y="212" type="curve"/>
      <point x="188" y="212"/>
      <point x="199" y="199"/>
      <point x="195" y="172" type="curve"/>
      <point x="217" y="183" type="line"/>
      <point x="98" y="183" type="line"/>
      <point x="98" y="111" type="line"/>
      <point x="291" y="111" type="line"/>
      <point x="305" y="213"/>
      <point x="266" y="287"/>
      <point x="163" y="287" type="curve"/>
      <point x="76" y="287"/>
      <point x="11" y="228"/>
      <point x="11" y="137" type="curve"/>
      <point x="11" y="50"/>
      <point x="75" y="-6"/>
    </contour>
    <contour>
      <point x="160" y="0" type="move" name="bottom"/>
    </contour>
    <contour>
      <point x="250" y="0" type="move" name="ogonek"/>
    </contour>
    <contour>
      <point x="160" y="283" type="move" name="top"/>
    </contour>
  </outline>
</glyph>
<glyph name="f" format="1">
  <advance width="223"/>
  <unicode hex="0066"/>
  <outline>
    <contour>
      <point x="45" y="284" type="curve"/>
      <point x="45" y="0" type="line"/>
      <point x="158" y="0" type="line"/>
      <point x="158" y="217" type="line"/>
      <point x="156" y="267" type="line"/>
      <point x="156" y="292" type="line" smooth="yes"/>
      <point x="156" y="313"/>
      <point x="167" y="324"/>
      <point x="183" y="324" type="curve"/>
      <point x="192" y="324"/>
      <point x="200" y="318"/>
      <point x="202" y="310" type="curve"/>
      <point x="297" y="320" type="line"/>
      <point x="287" y="385"/>
      <point x="246" y="413"/>
      <point x="186" y="413" type="curve"/>
      <point x="108" y="413"/>
      <point x="45" y="361"/>
    </contour>
    <contour>
      <point x="220" y="283" type="line"/>
      <point x="-5" y="283" type="line"/>
      <point x="-5" y="196" type="line"/>
      <point x="220" y="196" type="line"/>
    </contour>
  </outline>
</glyph>
<glyph name="g" format="1">
  <advance width="357"/>
  <unicode hex="0067"/>
  <outline>
    <contour>
      <point x="131" y="-116" type="curve"/>
      <point x="247" y="-116"/>
      <point x="330" y="-59"/>
      <point x="330" y="63" type="curve"/>
      <point x="330" y="281" type="line"/>
      <point x="251" y="281" type="line"/>
      <point x="238" y="234" type="line"/>
      <point x="246" y="246" type="line"/>
      <point x="230" y="271"/>
      <point x="202" y="287"/>
      <point x="163" y="287" type="curve"/>
      <point x="77" y="287"/>
      <point x="11" y="224"/>
      <point x="11" y="134" type="curve"/>
      <point x="11" y="61"/>
      <point x="57" y="8"/>
      <point x="142" y="8" type="curve"/>
      <point x="200" y="8"/>
      <point x="233" y="36"/>
      <point x="248" y="96" type="curve"/>
      <point x="225" y="113" type="line"/>
      <point x="219" y="51" type="line" smooth="yes"/>
      <point x="213" y="0"/>
      <point x="194" y="-24"/>
      <point x="139" y="-24" type="curve"/>
      <point x="96" y="-24"/>
      <point x="70" y="-14"/>
      <point x="45" y="-1" type="curve"/>
      <point x="19" y="-91" type="line"/>
      <point x="45" y="-109"/>
      <point x="96" y="-116"/>
    </contour>
    <contour>
      <point x="176" y="196" type="curve"/>
      <point x="201" y="196"/>
      <point x="217" y="180"/>
      <point x="217" y="154" type="curve"/>
      <point x="217" y="123"/>
      <point x="195" y="98"/>
      <point x="166" y="98" type="curve"/>
      <point x="142" y="98"/>
      <point x="127" y="114"/>
      <point x="127" y="141" type="curve"/>
      <point x="127" y="173"/>
      <point x="145" y="196"/>
    </contour>
    <contour>
      <point x="175" y="-110" type="move" name="bottom"/>
    </contour>
    <contour>
      <point x="181" y="283" type="move" name="top"/>
    </contour>
  </outline>
</glyph>
<glyph name="i" format="1">
  <advance width="166"/>
  <unicode hex="0069"/>
  <outline>
    <component base="dotlessi"/>
    <component base="uni0307.i" xOffset="-97"/>
    <contour>
      <point x="88" y="0" type="move" name="bottom"/>
    </contour>
  </outline>
</glyph>
<glyph name="l" format="1">
  <advance width="185"/>
  <unicode hex="006C"/>
  <outline>
    <contour>
      <point x="128" y="-6" type="curve"/>
      <point x="159" y="-6"/>
      <point x="187" y="3"/>
      <point x="200" y="14" type="curve"/>
      <point x="174" y="89" type="line"/>
      <point x="168" y="84"/>
      <point x="163" y="83"/>
      <point x="157" y="83" type="curve"/>
      <point x="147" y="83"/>
      <point x="139" y="90"/>
      <point x="139" y="104" type="curve"/>
      <point x="139" y="407" type="line"/>
      <point x="26" y="407" type="line"/>
      <point x="26" y="98" type="line" smooth="yes"/>
      <point x="26" y="28"/>
      <point x="64" y="-6"/>
    </contour>
    <contour>
      <point x="88" y="0" type="move" name="bottom"/>
    </contour>
    <contour>
      <point x="83" y="209" type="move" name="center"/>
    </contour>
    <contour>
      <point x="226" y="249" type="move" name="dotacc"/>
    </contour>
    <contour>
      <point x="83" y="391" type="move" name="top"/>
    </contour>
    <contour>
      <point x="151" y="407" type="move" name="topright"/>
    </contour>
  </outline>
</glyph>
<glyph name="m" format="1">
  <advance width="554"/>
  <unicode hex="006D"/>
  <outline>
    <contour>
      <point x="26" y="283" type="line"/>
      <point x="26" y="0" type="line"/>
      <point x="139" y="0" type="line"/>
      <point x="142" y="150"/>
      <point x="164" y="190"/>
      <point x="197" y="190" type="curve"/>
      <point x="215" y="190"/>
      <point x="223" y="171"/>
      <point x="223" y="150" type="curve"/>
      <point x="223" y="0" type="line"/>
      <point x="335" y="0" type="line"/>
      <point x="338" y="150"/>
      <point x="360" y="190"/>
      <point x="393" y="190" type="curve"/>
      <point x="411" y="190"/>
      <point x="419" y="171"/>
      <point x="420" y="150" type="curve"/>
      <point x="419" y="0" type="line"/>
      <point x="532" y="0" type="line"/>
      <point x="533" y="148" type="line" smooth="yes"/>
      <point x="533" y="236"/>
      <point x="498" y="287"/>
      <point x="426" y="287" type="curve"/>
      <point x="373" y="287"/>
      <point x="308" y="255"/>
      <point x="294" y="179" type="curve"/>
      <point x="334" y="183" type="line"/>
      <point x="325" y="259"/>
      <point x="278" y="287"/>
      <point x="232" y="287" type="curve"/>
      <point x="175" y="287"/>
      <point x="120" y="256"/>
      <point x="101" y="162" type="curve"/>
      <point x="130" y="177" type="line"/>
      <point x="138" y="283" type="line"/>
    </contour>
    <contour>
      <point x="279" y="0" type="move" name="bottom"/>
    </contour>
    <contour>
      <point x="279" y="283" type="move" name="top"/>
    </contour>
  </outline>
</glyph>
<glyph name="n" format="1">
  <advance width="361"/>
  <unicode hex="006E"/>
  <outline>
    <contour>
      <point x="26" y="283" type="line"/>
      <point x="26" y="0" type="line"/>
      <point x="139" y="0" type="line"/>
      <point x="142" y="152"/>
      <point x="166" y="190"/>
      <point x="203" y="190" type="curve"/>
      <point x="220" y="190"/>
      <point x="228" y="171"/>
      <point x="227" y="141" type="curve"/>
      <point x="226" y="0" type="line"/>
      <point x="339" y="0" type="line"/>
      <point x="340" y="148" type="line" smooth="yes"/>
      <point x="341" y="237"/>
      <point x="306" y="287"/>
      <point x="233" y="287" type="curve"/>
      <point x="168" y="287"/>
      <point x="116" y="239"/>
      <point x="104" y="162" type="curve"/>
      <point x="130" y="177" type="line"/>
      <point x="138" y="283" type="line"/>
    </contour>
    <contour>
      <point x="183" y="0" type="move" name="bottom"/>
    </contour>
    <contour>
      <point x="183" y="283" type="move" name="top"/>
    </contour>
  </outline>
</glyph>
<glyph name="o" format="1">
  <advance width="338"/>
  <unicode hex="006F"/>
  <outline>
    <contour>
      <point x="176" y="287" type="curve"/>
      <point x="76" y="287"/>
      <point x="11" y="222"/>
      <point x="11" y="133" type="curve"/>
      <point x="11" y="48"/>
      <point x="67" y="-6"/>
      <point x="160" y="-6" type="curve"/>
      <point x="261" y="-6"/>
      <point x="327" y="59"/>
      <point x="327" y="148" type="curve"/>
      <point x="327" y="233"/>
      <point x="269" y="287"/>
    </contour>
    <contour>
      <point x="167" y="85" type="curve"/>
      <point x="141" y="85"/>
      <point x="127" y="103"/>
      <point x="127" y="133" type="curve"/>
      <point x="127" y="173"/>
      <point x="144" y="196"/>
      <point x="171" y="196" type="curve"/>
      <point x="196" y="196"/>
      <point x="211" y="177"/>
      <point x="211" y="148" type="curve"/>
      <point x="211" y="109"/>
      <point x="194" y="85"/>
    </contour>
    <contour>
      <point x="169" y="0" type="move" name="bottom"/>
    </contour>
    <contour>
      <point x="169" y="142" type="move" name="center"/>
    </contour>
    <contour>
      <point x="231" y="0" type="move" name="ogonek"/>
    </contour>
    <contour>
      <point x="169" y="283" type="move" name="top"/>
    </contour>
    <contour>
      <point x="227" y="283" type="move" name="topright"/>
    </contour>
  </outline>
</glyph>
<glyph name="r" format="1">
  <advance width="237"/>
  <unicode hex="0072"/>
  <outline>
    <contour>
      <point x="243" y="181" type="curve"/>
      <point x="263" y="281" type="line"/>
      <point x="249" y="286"/>
      <point x="238" y="287"/>
      <point x="225" y="287" type="curve"/>
      <point x="172" y="287"/>
      <point x="124" y="253"/>
      <point x="115" y="155" type="curve"/>
      <point x="131" y="159" type="line"/>
      <point x="138" y="283" type="line"/>
      <point x="26" y="283" type="line"/>
      <point x="27" y="184" type="line"/>
      <point x="27" y="0" type="line"/>
      <point x="139" y="0" type="line"/>
      <point x="139" y="139"/>
      <point x="156" y="186"/>
      <point x="207" y="186" type="curve"/>
      <point x="223" y="186"/>
      <point x="236" y="184"/>
    </contour>
    <contour>
      <point x="83" y="0" type="move" name="bottom"/>
    </contour>
    <contour>
      <point x="145" y="283" type="move" name="top"/>
    </contour>
  </outline>
</glyph>
<glyph name="s" format="1">
  <advance width="279"/>
  <unicode hex="0073"/>
  <outline>
    <contour>
      <point x="139" y="-6" type="curve"/>
      <point x="216" y="-6"/>
      <point x="274" y="29"/>
      <point x="274" y="88" type="curve"/>
      <point x="275" y="196"/>
      <point x="124" y="173"/>
      <point x="124" y="200" type="curve"/>
      <point x="124" y="203"/>
      <point x="127" y="209"/>
      <point x="145" y="209" type="curve"/>
      <point x="167" y="209"/>
      <point x="179" y="199"/>
      <point x="183" y="187" type="curve"/>
      <point x="269" y="211" type="line"/>
      <point x="263" y="252"/>
      <point x="217" y="288"/>
      <point x="148" y="288" type="curve"/>
      <point x="69" y="288"/>
      <point x="15" y="246"/>
      <point x="15" y="190" type="curve"/>
      <point x="15" y="87"/>
      <point x="165" y="111"/>
      <point x="165" y="81" type="curve"/>
      <point x="165" y="74"/>
      <point x="157" y="72"/>
      <point x="136" y="72" type="curve"/>
      <point x="111" y="72"/>
      <point x="94" y="85"/>
      <point x="90" y="100" type="curve"/>
      <point x="-1" y="78" type="line"/>
      <point x="7" y="28"/>
      <point x="49" y="-6"/>
    </contour>
    <contour>
      <point x="150" y="0" type="move" name="bottom"/>
    </contour>
    <contour>
      <point x="150" y="283" type="move" name="top"/>
    </contour>
  </outline>
</glyph>
<glyph name="t" format="1">
  <advance width="257"/>
  <unicode hex="0074"/>
  <outline>
    <contour>
      <point x="167" y="-6" type="curve"/>
      <point x="214" y="-6"/>
      <point x="249" y="3"/>
      <point x="268" y="19" type="curve"/>
      <point x="236" y="98" type="line"/>
      <point x="220" y="87"/>
      <point x="205" y="84"/>
      <point x="190" y="84" type="curve"/>
      <point x="169" y="84"/>
      <point x="156" y="95"/>
      <point x="157" y="118" type="curve"/>
      <point x="161" y="340" type="line"/>
      <point x="49" y="340" type="line"/>
      <point x="44" y="106" type="line" smooth="yes"/>
      <point x="43" y="39"/>
      <point x="95" y="-6"/>
    </contour>
    <contour>
      <point x="1" y="283" type="line"/>
      <point x="1" y="196" type="line"/>
      <point x="242" y="196" type="line"/>
      <point x="242" y="283" type="line"/>
    </contour>
    <contour>
      <point x="157" y="0" type="move" name="bottom"/>
    </contour>
    <contour>
      <point x="121" y="147" type="move" name="stroke"/>
    </contour>
    <contour>
      <point x="105" y="340" type="move" name="top"/>
    </contour>
    <contour>
      <point x="178" y="407" type="move" name="topright"/>
    </contour>
  </outline>
</glyph>
<glyph name="u" format="1">
  <advance width="353"/>
  <unicode hex="0075"/>
  <outline>
    <contour>
      <point x="126" y="-6" type="curve"/>
      <point x="190" y="-6"/>
      <point x="239" y="43"/>
      <point x="252" y="110" type="curve"/>
      <point x="226" y="95" type="line"/>
      <point x="219" y="0" type="line"/>
      <point x="327" y="0" type="line"/>
      <point x="327" y="283" type="line"/>
      <point x="218" y="283" type="line"/>
      <point x="215" y="129"/>
      <point x="192" y="92"/>
      <point x="157" y="92" type="curve"/>
      <point x="140" y="92"/>
      <point x="133" y="110"/>
      <point x="134" y="134" type="curve"/>
      <point x="134" y="283" type="line"/>
      <point x="22" y="283" type="line"/>
      <point x="21" y="128" type="line" smooth="yes"/>
      <point x="20" y="44"/>
      <point x="54" y="-6"/>
    </contour>
    <contour>
      <point x="177" y="0" type="move" name="bottom"/>
    </contour>
    <contour>
      <point x="327" y="0" type="move" name="ogonek"/>
    </contour>
    <contour>
      <point x="177" y="283" type="move" name="top"/>
    </contour>
    <contour>
      <point x="252" y="283" type="move" name="topright"/>
    </contour>
  </outline>
</glyph>
<glyph name="v" format="1">
  <advance width="310"/>
  <unicode hex="0076"/>
  <outline>
    <contour>
      <point x="337" y="283" type="line"/>
      <point x="225" y="283" type="line"/>
      <point x="139" y="23" type="line"/>
      <point x="183" y="24" type="line"/>
      <point x="111" y="283" type="line"/>
      <point x="-12" y="283" type="line"/>
      <point x="76" y="0" type="line"/>
      <point x="238" y="0" type="line"/>
    </contour>
    <contour>
      <point x="156" y="0" type="move" name="bottom"/>
    </contour>
    <contour>
      <point x="168" y="283" type="move" name="top"/>
    </contour>
  </outline>
</glyph>
<glyph name="w" format="1">
  <advance width="503"/>
  <unicode hex="0077"/>
  <outline>
    <contour>
      <point x="516" y="284" type="line"/>
      <point x="406" y="284" type="line"/>
      <point x="333" y="34" type="line"/>
      <point x="371" y="34" type="line"/>
      <point x="308" y="284" type="line"/>
      <point x="203" y="284" type="line"/>
      <point x="131" y="34" type="line"/>
      <point x="171" y="34" type="line"/>
      <point x="104" y="284" type="line"/>
      <point x="-12" y="284" type="line"/>
      <point x="77" y="0" type="line"/>
      <point x="219" y="0" type="line"/>
      <point x="259" y="154" type="line"/>
      <point x="247" y="154" type="line"/>
      <point x="282" y="0" type="line"/>
      <point x="424" y="0" type="line"/>
    </contour>
    <contour>
      <point x="250" y="0" type="move" name="bottom"/>
    </contour>
    <contour>
      <point x="255" y="283" type="move" name="top"/>
    </contour>
  </outline>
</glyph>
<glyph name="x" format="1">
  <advance width="297"/>
  <unicode hex="0078"/>
  <outline>
    <contour>
      <point x="147" y="63" type="line"/>
      <point x="182" y="0" type="line"/>
      <point x="320" y="0" type="line"/>
      <point x="214" y="150" type="line"/>
      <point x="151" y="233" type="line"/>
      <point x="120" y="283" type="line"/>
      <point x="-16" y="283" type="line"/>
      <point x="82" y="146" type="line"/>
    </contour>
    <contour>
      <point x="-23" y="0" type="line"/>
      <point x="108" y="0" type="line"/>
      <point x="147" y="63" type="line"/>
      <point x="214" y="150" type="line"/>
      <point x="314" y="283" type="line"/>
      <point x="183" y="283" type="line"/>
      <point x="151" y="233" type="line"/>
      <point x="82" y="146" type="line"/>
    </contour>
    <contour>
      <point x="148" y="0" type="move" name="bottom"/>
    </contour>
    <contour>
      <point x="148" y="283" type="move" name="top"/>
    </contour>
  </outline>
</glyph>
<glyph name="y" format="1">
  <advance width="355"/>
  <unicode hex="0079"/>
  <outline>
    <contour>
      <point x="134" y="-116" type="curve"/>
      <point x="249" y="-116"/>
      <point x="329" y="-62"/>
      <point x="329" y="63" type="curve"/>
      <point x="329" y="283" type="line"/>
      <point x="220" y="283" type="line"/>
      <point x="217" y="147"/>
      <point x="196" y="106"/>
      <point x="158" y="106" type="curve"/>
      <point x="140" y="106"/>
      <point x="134" y="124"/>
      <point x="134" y="148" type="curve"/>
      <point x="134" y="283" type="line"/>
      <point x="22" y="283" type="line"/>
      <point x="21" y="141" type="line" smooth="yes"/>
      <point x="20" y="58"/>
      <point x="54" y="8"/>
      <point x="128" y="8" type="curve"/>
      <point x="192" y="8"/>
      <point x="241" y="57"/>
      <point x="254" y="124" type="curve"/>
      <point x="228" y="111" type="line"/>
      <point x="221" y="51" type="line" smooth="yes"/>
      <point x="215" y="0"/>
      <point x="196" y="-24"/>
      <point x="141" y="-24" type="curve"/>
      <point x="98" y="-24"/>
      <point x="72" y="-14"/>
      <point x="47" y="-1" type="curve"/>
      <point x="21" y="-91" type="line"/>
      <point x="47" y="-109"/>
      <point x="98" y="-116"/>
    </contour>
    <contour>
      <point x="373" y="0" type="move" name="bottom"/>
    </contour>
    <contour>
      <point x="177" y="283" type="move" name="top"/>
    </contour>
  </outline>
</glyph>
<glyph name="z" format="1">
  <advance width="257"/>
  <unicode hex="007A"/>
  <outline>
    <contour>
      <point x="9" y="81" type="line"/>
      <point x="9" y="0" type="line"/>
      <point x="256" y="0" type="line"/>
      <point x="256" y="87" type="line"/>
      <point x="118" y="87" type="line"/>
      <point x="117" y="51" type="line"/>
      <point x="255" y="207" type="line"/>
      <point x="255" y="283" type="line"/>
      <point x="11" y="283" type="line"/>
      <point x="11" y="196" type="line"/>
      <point x="153" y="196" type="line"/>
      <point x="155" y="242" type="line"/>
    </contour>
    <contour>
      <point x="133" y="0" type="move" name="bottom"/>
    </contour>
    <contour>
      <point x="127" y="142" type="move" name="center"/>
    </contour>
    <contour>
      <point x="133" y="283" type="move" name="top"/>
    </contour>
  </outline>
</glyph>
<glyph name="braceleft" format="1">
  <advance width="269"/>
  <unicode hex="007B"/>
  <outline>
    <contour>
      <point x="198" y="-15" type="curve"/>
      <point x="198" y="12"/>
      <point x="220" y="32"/>
      <point x="220" y="72" type="curve"/>
      <point x="220" y="98"/>
      <point x="204" y="143"/>
      <point x="109" y="153" type="curve"/>
      <point x="109" y="145" type="line"/>
      <point x="204" y="155"/>
      <point x="220" y="199"/>
      <point x="220" y="226" type="curve"/>
      <point x="220" y="266"/>
      <point x="198" y="286"/>
      <point x="198" y="313" type="curve"/>
      <point x="198" y="330"/>
      <point x="212" y="346"/>
      <point x="234" y="348" type="curve"/>
      <point x="222" y="411" type="line"/>
      <point x="117" y="401"/>
      <point x="82" y="350"/>
      <point x="82" y="311" type="curve"/>
      <point x="82" y="276"/>
      <point x="104" y="251"/>
      <point x="104" y="224" type="curve"/>
      <point x="104" y="198"/>
      <point x="100" y="182"/>
      <point x="43" y="182" type="curve"/>
      <point x="43" y="116" type="line"/>
      <point x="100" y="116"/>
      <point x="104" y="100"/>
      <point x="104" y="74" type="curve"/>
      <point x="104" y="47"/>
      <point x="82" y="22"/>
      <point x="82" y="-13" type="curve"/>
      <point x="82" y="-52"/>
      <point x="117" y="-103"/>
      <point x="222" y="-113" type="curve"/>
      <point x="234" y="-50" type="line"/>
      <point x="212" y="-48"/>
      <point x="198" y="-32"/>
    </contour>
  </outline>
</glyph>
<glyph name="bar" format="1">
  <advance width="188"/>
  <unicode hex="007C"/>
  <outline>
    <contour>
      <point x="37" y="407" type="line"/>
      <point x="37" y="-110" type="line"/>
      <point x="151" y="-110" type="line"/>
      <point x="151" y="407" type="line"/>
    </contour>
  </outline>
</glyph>
<glyph name="braceright" format="1">
  <advance width="269"/>
  <unicode hex="007D"/>
  <outline>
    <contour>
      <point x="72" y="-15" type="curve"/>
      <point x="72" y="-32"/>
      <point x="57" y="-48"/>
      <point x="35" y="-50" type="curve"/>
      <point x="48" y="-113" type="line"/>
      <point x="153" y="-103"/>
      <point x="187" y="-52"/>
      <point x="187" y="-13" type="curve"/>
      <point x="187" y="22"/>
      <point x="165" y="47"/>
      <point x="165" y="74" type="curve"/>
      <point x="165" y="100"/>
      <point x="169" y="116"/>
      <point x="226" y="116" type="curve"/>
      <point x="226" y="182" type="line"/>
      <point x="169" y="182"/>
      <point x="165" y="198"/>
      <point x="165" y="224" type="curve"/>
      <point x="165" y="251"/>
      <point x="187" y="276"/>
      <point x="187" y="311" type="curve"/>
      <point x="187" y="350"/>
      <point x="153" y="401"/>
      <point x="48" y="411" type="curve"/>
      <point x="35" y="348" type="line"/>
      <point x="57" y="346"/>
      <point x="72" y="330"/>
      <point x="72" y="313" type="curve"/>
      <point x="72" y="286"/>
      <point x="50" y="266"/>
      <point x="50" y="226" type="curve"/>
      <point x="50" y="199"/>
      <point x="66" y="155"/>
      <point x="161" y="145" type="curve"/>
      <point x="161" y="153" type="line"/>
      <point x="66" y="143"/>
      <point x="50" y="98"/>
      <point x="50" y="72" type="curve"/>
      <point x="50" y="32"/>
      <point x="72" y="12"/>
    </contour>
  </outline>
</glyph>
<glyph name="asciitilde" format="1">
  <advance width="330"/>
  <unicode hex="007E"/>
  <outline>
    <contour>
      <point x="220" y="78" type="curve"/>
      <point x="257" y="78"/>
      <point x="293" y="98"/>
      <point x="311" y="145" type="curve"/>
      <point x="257" y="192" type="line"/>
      <point x="247" y="178"/>
      <point x="237" y="173"/>
      <point x="217" y="173" type="curve"/>
      <point x="195" y="173"/>
      <point x="152" y="206"/>
      <point x="110" y="206" type="curve"/>
      <point x="73" y="206"/>
      <point x="37" y="185"/>
      <point x="19" y="139" type="curve"/>
      <point x="73" y="91" type="line"/>
      <point x="83" y="106"/>
      <point x="93" y="111"/>
      <point x="113" y="111" type="curve"/>
      <point x="135" y="111"/>
      <point x="178" y="78"/>
    </contour>
  </outline>
</glyph>
<glyph name="exclamdown" format="1">
  <advance width="180"/>
  <unicode hex="00A1"/>
  <outline>
    <contour>
      <point x="51" y="133" type="line"/>
      <point x="20" y="-110" type="line"/>
      <point x="149" y="-110" type="line"/>
      <point x="129" y="133" type="line"/>
    </contour>
    <contour>
      <point x="90" y="165" type="curve"/>
      <point x="134" y="165"/>
      <point x="160" y="192"/>
      <point x="160" y="227" type="curve"/>
      <point x="160" y="262"/>
      <point x="134" y="289"/>
      <point x="90" y="289" type="curve"/>
      <point x="47" y="289"/>
      <point x="21" y="262"/>
      <point x="21" y="227" type="curve"/>
      <point x="21" y="193"/>
      <point x="47" y="165"/>
    </contour>
  </outline>
</glyph>
<glyph name="cent" format="1">
  <advance width="330"/>
  <unicode hex="00A2"/>
  <outline>
    <contour>
      <point x="189" y="-6" type="curve"/>
      <point x="237" y="-6"/>
      <point x="286" y="8"/>
      <point x="314" y="54" type="curve"/>
      <point x="238" y="113" type="line"/>
      <point x="229" y="93"/>
      <point x="214" y="85"/>
      <point x="199" y="85" type="curve"/>
      <point x="170" y="85"/>
      <point x="154" y="104"/>
      <point x="154" y="138" type="curve"/>
      <point x="154" y="172"/>
      <point x="175" y="196"/>
      <point x="198" y="196" type="curve"/>
      <point x="216" y="196"/>
      <point x="226" y="189"/>
      <point x="237" y="170" type="curve"/>
      <point x="315" y="226" type="line"/>
      <point x="290" y="270"/>
      <point x="247" y="287"/>
      <point x="197" y="287" type="curve"/>
      <point x="103" y="287"/>
      <point x="38" y="226"/>
      <point x="38" y="136" type="curve"/>
      <point x="38" y="46"/>
      <point x="100" y="-6"/>
    </contour>
    <contour>
      <point x="230" y="-66" type="line"/>
      <point x="230" y="35" type="line"/>
      <point x="154" y="35" type="line"/>
      <point x="154" y="-66" type="line"/>
    </contour>
    <contour>
      <point x="154" y="349" type="line"/>
      <point x="154" y="248" type="line"/>
      <point x="230" y="248" type="line"/>
      <point x="230" y="349" type="line"/>
    </contour>
  </outline>
</glyph>
<glyph name="currency" format="1">
  <advance width="330"/>
  <unicode hex="00A4"/>
  <outline>
    <contour>
      <point x="165" y="53" type="curve"/>
      <point x="241" y="53"/>
      <point x="301" y="114"/>
      <point x="301" y="190" type="curve"/>
      <point x="301" y="267"/>
      <point x="240" y="328"/>
      <point x="165" y="328" type="curve"/>
      <point x="89" y="328"/>
      <point x="29" y="267"/>
      <point x="29" y="190" type="curve"/>
      <point x="29" y="114"/>
      <point x="89" y="53"/>
    </contour>
    <contour>
      <point x="0" y="89" type="line"/>
      <point x="62" y="32" type="line"/>
      <point x="137" y="103" type="line"/>
      <point x="74" y="159" type="line"/>
    </contour>
    <contour>
      <point x="183" y="105" type="line"/>
      <point x="259" y="33" type="line"/>
      <point x="320" y="90" type="line"/>
      <point x="245" y="163" type="line"/>
    </contour>
    <contour>
      <point x="165" y="142" type="curve"/>
      <point x="141" y="142"/>
      <point x="127" y="164"/>
      <point x="127" y="190" type="curve"/>
      <point x="127" y="216"/>
      <point x="143" y="240"/>
      <point x="165" y="239" type="curve"/>
      <point x="186" y="238"/>
      <point x="203" y="216"/>
      <point x="203" y="190" type="curve"/>
      <point x="203" y="164"/>
      <point x="186" y="142"/>
    </contour>
    <contour>
      <point x="0" y="284" type="line"/>
      <point x="62" y="225" type="line"/>
      <point x="124" y="283" type="line"/>
      <point x="62" y="341" type="line"/>
    </contour>
    <contour>
      <point x="200" y="284" type="line"/>
      <point x="262" y="226" type="line"/>
      <point x="330" y="291" type="line"/>
      <point x="268" y="349" type="line"/>
    </contour>
  </outline>
</glyph>
<glyph name="yen" format="1">
  <advance width="330"/>
  <unicode hex="00A5"/>
  <outline>
    <contour>
      <point x="201" y="150" type="line"/>
      <point x="345" y="391" type="line"/>
      <point x="219" y="391" type="line"/>
      <point x="142" y="243" type="line"/>
      <point x="210" y="243" type="line"/>
      <point x="125" y="391" type="line"/>
      <point x="-11" y="391" type="line"/>
      <point x="139" y="148" type="line"/>
      <point x="110" y="212" type="line"/>
      <point x="110" y="0" type="line"/>
      <point x="231" y="0" type="line"/>
      <point x="231" y="214" type="line"/>
    </contour>
    <contour>
      <point x="34" y="125" type="line"/>
      <point x="34" y="53" type="line"/>
      <point x="296" y="53" type="line"/>
      <point x="296" y="125" type="line"/>
    </contour>
    <contour>
      <point x="34" y="220" type="line"/>
      <point x="34" y="148" type="line"/>
      <point x="296" y="148" type="line"/>
      <point x="296" y="220" type="line"/>
    </contour>
  </outline>
</glyph>
<glyph name="brokenbar" format="1">
  <advance width="188"/>
  <unicode hex="00A6"/>
  <outline>
    <contour>
      <point x="151" y="-110" type="line"/>
      <point x="151" y="88" type="line"/>
      <point x="37" y="88" type="line"/>
      <point x="37" y="-110" type="line"/>
    </contour>
    <contour>
      <point x="37" y="407" type="line"/>
      <point x="37" y="209" type="line"/>
      <point x="151" y="209" type="line"/>
      <point x="151" y="407" type="line"/>
    </contour>
  </outline>
</glyph>
<glyph name="section" format="1">
  <advance width="298"/>
  <unicode hex="00A7"/>
  <outline>
    <contour>
      <point x="158" y="175" type="curve"/>
      <point x="158" y="126" type="line"/>
      <point x="225" y="126"/>
      <point x="283" y="150"/>
      <point x="283" y="207" type="curve"/>
      <point x="283" y="295"/>
      <point x="135" y="279"/>
      <point x="135" y="308" type="curve"/>
      <point x="135" y="311"/>
      <point x="138" y="318"/>
      <point x="155" y="318" type="curve"/>
      <point x="176" y="318"/>
      <point x="188" y="308"/>
      <point x="192" y="296" type="curve"/>
      <point x="278" y="320" type="line"/>
      <point x="272" y="360"/>
      <point x="226" y="396"/>
      <point x="158" y="396" type="curve"/>
      <point x="80" y="396"/>
      <point x="26" y="355"/>
      <point x="26" y="298" type="curve"/>
      <point x="26" y="200"/>
      <point x="174" y="218"/>
      <point x="174" y="189" type="curve"/>
      <point x="174" y="180"/>
      <point x="166" y="175"/>
    </contour>
    <contour>
      <point x="141" y="215" type="curve"/>
      <point x="141" y="264" type="line"/>
      <point x="74" y="264"/>
      <point x="15" y="240"/>
      <point x="15" y="183" type="curve"/>
      <point x="15" y="95"/>
      <point x="163" y="112"/>
      <point x="163" y="82" type="curve"/>
      <point x="163" y="79"/>
      <point x="161" y="73"/>
      <point x="143" y="73" type="curve"/>
      <point x="123" y="73"/>
      <point x="111" y="83"/>
      <point x="106" y="95" type="curve"/>
      <point x="20" y="71" type="line"/>
      <point x="26" y="30"/>
      <point x="73" y="-6"/>
      <point x="140" y="-6" type="curve"/>
      <point x="219" y="-6"/>
      <point x="272" y="36"/>
      <point x="272" y="92" type="curve"/>
      <point x="272" y="191"/>
      <point x="124" y="173"/>
      <point x="124" y="201" type="curve"/>
      <point x="124" y="210"/>
      <point x="133" y="215"/>
    </contour>
  </outline>
</glyph>
<glyph name="logicalnot" format="1">
  <advance width="330"/>
  <unicode hex="00AC"/>
  <outline>
    <contour>
      <point x="313" y="189" type="line"/>
      <point x="17" y="189" type="line"/>
      <point x="17" y="94" type="line"/>
      <point x="204" y="94" type="line"/>
      <point x="204" y="0" type="line"/>
      <point x="313" y="0" type="line"/>
    </contour>
  </outline>
</glyph>
<glyph name="degree" format="1">
  <advance width="229"/>
  <unicode hex="00B0"/>
  <outline>
    <contour>
      <point x="115" y="210" type="curve"/>
      <point x="170" y="210"/>
      <point x="212" y="248"/>
      <point x="212" y="302" type="curve"/>
      <point x="212" y="356"/>
      <point x="170" y="394"/>
      <point x="115" y="394" type="curve"/>
      <point x="59" y="394"/>
      <point x="17" y="356"/>
      <point x="17" y="302" type="curve"/>
      <point x="17" y="248"/>
      <point x="59" y="210"/>
    </contour>
    <contour>
      <point x="115" y="270" type="curve"/>
      <point x="99" y="270"/>
      <point x="85" y="283"/>
      <point x="85" y="303" type="curve"/>
      <point x="85" y="322"/>
      <point x="99" y="335"/>
      <point x="115" y="335" type="curve"/>
      <point x="129" y="335"/>
      <point x="144" y="322"/>
      <point x="144" y="303" type="curve"/>
      <point x="144" y="283"/>
      <point x="129" y="270"/>
    </contour>
  </outline>
</glyph>
<glyph name="plusminus" format="1">
  <advance width="330"/>
  <unicode hex="00B1"/>
  <outline>
    <contour>
      <point x="17" y="84" type="line"/>
      <point x="17" y="0" type="line"/>
      <point x="313" y="0" type="line"/>
      <point x="313" y="84" type="line"/>
    </contour>
    <contour>
      <point x="276" y="151" type="line"/>
      <point x="276" y="235" type="line"/>
      <point x="54" y="235" type="line"/>
      <point x="54" y="151" type="line"/>
    </contour>
    <contour>
      <point x="214" y="283" type="line"/>
      <point x="116" y="283" type="line"/>
      <point x="116" y="103" type="line"/>
      <point x="214" y="103" type="line"/>
    </contour>
  </outline>
</glyph>
<glyph name="paragraph" format="1">
  <advance width="489"/>
  <unicode hex="00B6"/>
  <outline>
    <contour>
      <point x="1" y="260" type="curve"/>
      <point x="1" y="175"/>
      <point x="69" y="126"/>
      <point x="171" y="126" type="curve"/>
      <point x="224" y="126" type="line"/>
      <point x="185" y="151" type="line"/>
      <point x="185" y="0" type="line"/>
      <point x="302" y="0" type="line"/>
      <point x="302" y="390" type="line"/>
      <point x="177" y="390" type="line" smooth="yes"/>
      <point x="69" y="390"/>
      <point x="1" y="344"/>
    </contour>
    <contour>
      <point x="457" y="391" type="line"/>
      <point x="340" y="391" type="line"/>
      <point x="340" y="0" type="line"/>
      <point x="457" y="0" type="line"/>
    </contour>
  </outline>
</glyph>
<glyph name="questiondown" format="1">
  <advance width="281"/>
  <unicode hex="00BF"/>
  <outline>
    <contour>
      <point x="141" y="290" type="curve"/>
      <point x="100" y="290"/>
      <point x="72" y="265"/>
      <point x="72" y="228" type="curve"/>
      <point x="72" y="191"/>
      <point x="100" y="166"/>
      <point x="141" y="166" type="curve"/>
      <point x="183" y="166"/>
      <point x="211" y="191"/>
      <point x="211" y="228" type="curve"/>
      <point x="211" y="264"/>
      <point x="183" y="290"/>
    </contour>
    <contour>
      <point x="186" y="131" type="curve"/>
      <point x="101" y="135" type="line"/>
      <point x="99" y="110"/>
      <point x="91" y="97"/>
      <point x="58" y="71" type="curve"/>
      <point x="32" y="50"/>
      <point x="17" y="23"/>
      <point x="17" y="-16" type="curve"/>
      <point x="17" y="-73"/>
      <point x="68" y="-116"/>
      <point x="141" y="-116" type="curve"/>
      <point x="211" y="-116"/>
      <point x="273" y="-76"/>
      <point x="292" y="-18" type="curve"/>
      <point x="209" y="26" type="line"/>
      <point x="200" y="-2"/>
      <point x="180" y="-20"/>
      <point x="156" y="-20" type="curve"/>
      <point x="135" y="-20"/>
      <point x="132" y="-13"/>
      <point x="132" y="-10" type="curve"/>
      <point x="132" y="-2"/>
      <point x="140" y="6"/>
      <point x="152" y="16" type="curve"/>
      <point x="182" y="38"/>
      <point x="195" y="74"/>
    </contour>
  </outline>
</glyph>
<glyph name="AE" format="1">
  <advance width="540"/>
  <unicode hex="00C6"/>
  <outline>
    <contour>
      <point x="148" y="391" type="line"/>
      <point x="-26" y="0" type="line"/>
      <point x="97" y="0" type="line"/>
      <point x="222" y="313" type="line"/>
      <point x="190" y="293" type="line"/>
      <point x="273" y="293" type="line"/>
      <point x="273" y="391" type="line"/>
    </contour>
    <contour>
      <point x="128" y="164" type="line"/>
      <point x="76" y="66" type="line"/>
      <point x="273" y="66" type="line"/>
      <point x="273" y="164" type="line"/>
    </contour>
    <contour>
      <point x="364" y="293" type="line"/>
      <point x="533" y="293" type="line"/>
      <point x="533" y="391" type="line"/>
      <point x="244" y="391" type="line"/>
      <point x="244" y="0" type="line"/>
      <point x="530" y="0" type="line"/>
      <point x="537" y="97" type="line"/>
      <point x="364" y="97" type="line"/>
      <point x="364" y="147" type="line"/>
      <point x="518" y="147" type="line"/>
      <point x="518" y="245" type="line"/>
      <point x="364" y="245" type="line"/>
    </contour>
    <contour>
      <point x="304" y="0" type="move" name="bottom"/>
    </contour>
    <contour>
      <point x="304" y="391" type="move" name="top"/>
    </contour>
  </outline>
</glyph>
<glyph name="multiply" format="1">
  <advance width="330"/>
  <unicode hex="00D7"/>
  <outline>
    <contour>
      <point x="233" y="5" type="line"/>
      <point x="306" y="72" type="line"/>
      <point x="97" y="279" type="line"/>
      <point x="24" y="211" type="line"/>
    </contour>
    <contour>
      <point x="306" y="211" type="line"/>
      <point x="233" y="279" type="line"/>
      <point x="24" y="72" type="line"/>
      <point x="97" y="5" type="line"/>
    </contour>
  </outline>
</glyph>
<glyph name="Thorn" format="1">
  <advance width="366"/>
  <unicode hex="00DE"/>
  <outline>
    <contour>
      <point x="188" y="341" type="curve"/>
      <point x="127" y="341" type="line"/>
      <point x="127" y="249" type="line"/>
      <point x="188" y="249" type="line" smooth="yes"/>
      <point x="227" y="249"/>
      <point x="245" y="243"/>
      <point x="245" y="209" type="curve"/>
      <point x="245" y="178"/>
      <point x="221" y="170"/>
      <point x="182" y="170" type="curve"/>
      <point x="127" y="170" type="line"/>
      <point x="127" y="77" type="line"/>
      <point x="176" y="77" type="line" smooth="yes"/>
      <point x="291" y="77"/>
      <point x="365" y="128"/>
      <point x="365" y="212" type="curve"/>
      <point x="365" y="296"/>
      <point x="309" y="341"/>
    </contour>
    <contour>
      <point x="149" y="0" type="line"/>
      <point x="149" y="391" type="line"/>
      <point x="31" y="390" type="line"/>
      <point x="31" y="0" type="line"/>
    </contour>
  </outline>
</glyph>
<glyph name="germandbls" format="1">
  <advance width="418"/>
  <unicode hex="00DF"/>
  <outline>
    <contour>
      <point x="298" y="-6" type="curve"/>
      <point x="379" y="-6"/>
      <point x="428" y="40"/>
      <point x="428" y="92" type="curve"/>
      <point x="428" y="200"/>
      <point x="295" y="186"/>
      <point x="295" y="207" type="curve"/>
      <point x="295" y="229"/>
      <point x="365" y="251"/>
      <point x="365" y="320" type="curve"/>
      <point x="365" y="375"/>
      <point x="308" y="413"/>
      <point x="230" y="413" type="curve"/>
      <point x="123" y="413"/>
      <point x="47" y="348"/>
      <point x="47" y="260" type="curve"/>
      <point x="47" y="0" type="line"/>
      <point x="160" y="0" type="line"/>
      <point x="160" y="259" type="line" smooth="yes"/>
      <point x="160" y="311"/>
      <point x="188" y="333"/>
      <point x="228" y="333" type="curve"/>
      <point x="254" y="333"/>
      <point x="264" y="324"/>
      <point x="264" y="312" type="curve"/>
      <point x="264" y="280"/>
      <point x="188" y="259"/>
      <point x="188" y="190" type="curve"/>
      <point x="188" y="94"/>
      <point x="319" y="117"/>
      <point x="319" y="86" type="curve"/>
      <point x="319" y="76"/>
      <point x="313" y="73"/>
      <point x="301" y="73" type="curve"/>
      <point x="288" y="73"/>
      <point x="280" y="78"/>
      <point x="272" y="93" type="curve"/>
      <point x="172" y="71" type="line"/>
      <point x="189" y="21"/>
      <point x="224" y="-6"/>
    </contour>
    <contour>
      <point x="-5" y="285" type="line"/>
      <point x="-5" y="198" type="line"/>
      <point x="110" y="198" type="line"/>
      <point x="110" y="285" type="line"/>
    </contour>
  </outline>
</glyph>
<glyph name="ae" format="1">
  <advance width="461"/>
  <unicode hex="00E6"/>
  <outline>
    <contour>
      <point x="133" y="-6" type="curve"/>
      <point x="182" y="-6"/>
      <point x="216" y="9"/>
      <point x="242" y="52" type="curve"/>
      <point x="217" y="48" type="line"/>
      <point x="247" y="9"/>
      <point x="278" y="-6"/>
      <point x="330" y="-6" type="curve"/>
      <point x="392" y="-6"/>
      <point x="425" y="13"/>
      <point x="449" y="40" type="curve"/>
      <point x="387" y="100" type="line"/>
      <point x="374" y="89"/>
      <point x="352" y="82"/>
      <point x="339" y="82" type="curve"/>
      <point x="301" y="82"/>
      <point x="284" y="105"/>
      <point x="284" y="120" type="curve"/>
      <point x="284" y="151" type="line" smooth="yes"/>
      <point x="284" y="195"/>
      <point x="295" y="213"/>
      <point x="324" y="213" type="curve"/>
      <point x="344" y="213"/>
      <point x="355" y="199"/>
      <point x="352" y="172" type="curve"/>
      <point x="375" y="183" type="line"/>
      <point x="266" y="183" type="line"/>
      <point x="266" y="111" type="line"/>
      <point x="447" y="111" type="line"/>
      <point x="461" y="213"/>
      <point x="422" y="287"/>
      <point x="319" y="287" type="curve"/>
      <point x="291" y="287"/>
      <point x="245" y="268"/>
      <point x="227" y="234" type="curve"/>
      <point x="258" y="224" type="line"/>
      <point x="238" y="274"/>
      <point x="188" y="287"/>
      <point x="147" y="287" type="curve"/>
      <point x="82" y="287"/>
      <point x="32" y="255"/>
      <point x="11" y="202" type="curve"/>
      <point x="107" y="185" type="line"/>
      <point x="115" y="196"/>
      <point x="123" y="204"/>
      <point x="143" y="204" type="curve"/>
      <point x="157" y="204"/>
      <point x="170" y="195"/>
      <point x="170" y="179" type="curve"/>
      <point x="170" y="97" type="line" smooth="yes"/>
      <point x="170" y="78"/>
      <point x="165" y="72"/>
      <point x="150" y="72" type="curve"/>
      <point x="133" y="72"/>
      <point x="121" y="79"/>
      <point x="121" y="92" type="curve"/>
      <point x="121" y="105"/>
      <point x="126" y="111"/>
      <point x="148" y="111" type="curve"/>
      <point x="203" y="111" type="line"/>
      <point x="203" y="183" type="line"/>
      <point x="136" y="183" type="line" smooth="yes"/>
      <point x="52" y="183"/>
      <point x="12" y="141"/>
      <point x="12" y="88" type="curve"/>
      <point x="12" y="33"/>
      <point x="63" y="-6"/>
    </contour>
    <contour>
      <point x="227" y="0" type="move" name="bottom"/>
    </contour>
    <contour>
      <point x="227" y="283" type="move" name="top"/>
    </contour>
  </outline>
</glyph>
<glyph name="eth" format="1">
  <advance width="356"/>
  <unicode hex="00F0"/>
  <outline>
    <contour>
      <point x="169" y="-6" type="curve"/>
      <point x="274" y="-6"/>
      <point x="348" y="69"/>
      <point x="348" y="178" type="curve"/>
      <point x="348" y="287"/>
      <point x="255" y="383"/>
      <point x="112" y="417" type="curve"/>
      <point x="76" y="340" type="line"/>
      <point x="162" y="321"/>
      <point x="224" y="266"/>
      <point x="235" y="204" type="curve"/>
      <point x="270" y="185" type="line"/>
      <point x="247" y="238"/>
      <point x="210" y="259"/>
      <point x="157" y="259" type="curve"/>
      <point x="73" y="259"/>
      <point x="12" y="203"/>
      <point x="12" y="125" type="curve"/>
      <point x="12" y="46"/>
      <point x="72" y="-6"/>
    </contour>
    <contour>
      <point x="173" y="85" type="curve"/>
      <point x="149" y="85"/>
      <point x="129" y="100"/>
      <point x="129" y="125" type="curve"/>
      <point x="129" y="155"/>
      <point x="146" y="173"/>
      <point x="178" y="173" type="curve"/>
      <point x="209" y="173"/>
      <point x="226" y="157"/>
      <point x="226" y="133" type="curve"/>
      <point x="226" y="109"/>
      <point x="208" y="85"/>
    </contour>
    <contour>
      <point x="77" y="319" type="line"/>
      <point x="88" y="261" type="line"/>
      <point x="343" y="301" type="line"/>
      <point x="332" y="359" type="line"/>
    </contour>
  </outline>
</glyph>
<glyph name="divide" format="1">
  <advance width="330"/>
  <unicode hex="00F7"/>
  <outline>
    <contour>
      <point x="308" y="99" type="line"/>
      <point x="308" y="183" type="line"/>
      <point x="22" y="183" type="line"/>
      <point x="22" y="99" type="line"/>
    </contour>
    <contour>
      <point x="165" y="-6" type="curve"/>
      <point x="196" y="-6"/>
      <point x="224" y="16"/>
      <point x="224" y="47" type="curve"/>
      <point x="224" y="78"/>
      <point x="196" y="100"/>
      <point x="165" y="100" type="curve"/>
      <point x="134" y="100"/>
      <point x="106" y="78"/>
      <point x="106" y="47" type="curve"/>
      <point x="106" y="16"/>
      <point x="134" y="-6"/>
    </contour>
    <contour>
      <point x="165" y="182" type="curve"/>
      <point x="196" y="182"/>
      <point x="224" y="205"/>
      <point x="224" y="235" type="curve"/>
      <point x="224" y="266"/>
      <point x="196" y="289"/>
      <point x="165" y="289" type="curve"/>
      <point x="134" y="289"/>
      <point x="106" y="266"/>
      <point x="106" y="235" type="curve"/>
      <point x="106" y="205"/>
      <point x="134" y="182"/>
    </contour>
  </outline>
</glyph>
<glyph name="thorn" format="1">
  <advance width="354"/>
  <unicode hex="00FE"/>
  <outline>
    <contour>
      <point x="26" y="407" type="line"/>
      <point x="26" y="-110" type="line"/>
      <point x="139" y="-110" type="line"/>
      <point x="139" y="0" type="line"/>
      <point x="136" y="50" type="line"/>
      <point x="110" y="35" type="line"/>
      <point x="127" y="9"/>
      <point x="154" y="-6"/>
      <point x="191" y="-6" type="curve"/>
      <point x="273" y="-6"/>
      <point x="343" y="56"/>
      <point x="343" y="151" type="curve"/>
      <point x="343" y="229"/>
      <point x="300" y="287"/>
      <point x="219" y="287" type="curve"/>
      <point x="161" y="287"/>
      <point x="126" y="258"/>
      <point x="111" y="199" type="curve"/>
      <point x="132" y="184" type="line"/>
      <point x="139" y="283" type="line"/>
      <point x="139" y="407" type="line"/>
    </contour>
    <contour>
      <point x="179" y="85" type="curve"/>
      <point x="155" y="85"/>
      <point x="140" y="104"/>
      <point x="140" y="133" type="curve"/>
      <point x="140" y="171"/>
      <point x="164" y="196"/>
      <point x="191" y="196" type="curve"/>
      <point x="214" y="196"/>
      <point x="228" y="180"/>
      <point x="228" y="149" type="curve"/>
      <point x="228" y="113"/>
      <point x="210" y="85"/>
    </contour>
  </outline>
</glyph>
<glyph name="eogonek" format="1">
  <advance width="305"/>
  <unicode hex="0119"/>
  <outline>
    <contour>
      <point x="211" y="-123" type="curve"/>
      <point x="245" y="-123"/>
      <point x="273" y="-113"/>
      <point x="288" y="-95" type="curve"/>
      <point x="252" y="-46" type="line"/>
      <point x="246" y="-54"/>
      <point x="233" y="-60"/>
      <point x="225" y="-60" type="curve"/>
      <point x="213" y="-60"/>
      <point x="205" y="-55"/>
      <point x="205" y="-45" type="curve"/>
      <point x="205" y="-29"/>
      <point x="211" y="-17"/>
      <point x="257" y="12" type="curve"/>
      <point x="272" y="21"/>
      <point x="284" y="31"/>
      <point x="291" y="42" type="curve"/>
      <point x="231" y="100" type="line"/>
      <point x="218" y="89"/>
      <point x="196" y="82"/>
      <point x="183" y="82" type="curve"/>
      <point x="146" y="82"/>
      <point x="124" y="105"/>
      <point x="124" y="122" type="curve"/>
      <point x="124" y="149" type="line" smooth="yes"/>
      <point x="124" y="195"/>
      <point x="140" y="213"/>
      <point x="164" y="213" type="curve"/>
      <point x="188" y="213"/>
      <point x="199" y="199"/>
      <point x="195" y="172" type="curve"/>
      <point x="217" y="183" type="line"/>
      <point x="98" y="183" type="line"/>
      <point x="98" y="111" type="line"/>
      <point x="291" y="111" type="line"/>
      <point x="305" y="213"/>
      <point x="266" y="287"/>
      <point x="163" y="287" type="curve"/>
      <point x="76" y="287"/>
      <point x="11" y="228"/>
      <point x="11" y="137" type="curve"/>
      <point x="11" y="50"/>
      <point x="76" y="-6"/>
      <point x="174" y="-6" type="curve"/>
      <point x="180" y="-6" type="line"/>
      <point x="154" y="5" type="line"/>
      <point x="125" y="-10"/>
      <point x="112" y="-30"/>
      <point x="112" y="-56" type="curve"/>
      <point x="112" y="-96"/>
      <point x="155" y="-123"/>
    </contour>
    <contour>
      <point x="160" y="283" type="move" name="top"/>
    </contour>
  </outline>
</glyph>
<glyph name="dotlessi" format="1">
  <advance width="166"/>
  <unicode hex="0131"/>
  <outline>
    <contour>
      <point x="140" y="0" type="line"/>
      <point x="140" y="283" type="line"/>
      <point x="26" y="283" type="line"/>
      <point x="26" y="0" type="line"/>
    </contour>
    <contour>
      <point x="83" y="0" type="move" name="bottom"/>
    </contour>
    <contour>
      <point x="140" y="0" type="move" name="ogonek"/>
    </contour>
    <contour>
      <point x="83" y="283" type="move" name="top"/>
    </contour>
  </outline>
</glyph>
<glyph name="kgreenlandic" format="1">
  <advance width="350"/>
  <unicode hex="0138"/>
  <outline>
    <contour>
      <point x="26" y="283" type="line"/>
      <point x="26" y="0" type="line"/>
      <point x="139" y="0" type="line"/>
      <point x="139" y="283" type="line"/>
    </contour>
    <contour>
      <point x="378" y="12" type="curve"/>
      <point x="354" y="89" type="line"/>
      <point x="343" y="83"/>
      <point x="333" y="81"/>
      <point x="319" y="81" type="curve"/>
      <point x="299" y="81"/>
      <point x="281" y="91"/>
      <point x="273" y="106" type="curve"/>
      <point x="264" y="127" type="line" smooth="yes"/>
      <point x="250" y="149"/>
      <point x="223" y="160"/>
      <point x="177" y="160" type="curve"/>
      <point x="231" y="132" type="line"/>
      <point x="367" y="284" type="line"/>
      <point x="235" y="284" type="line"/>
      <point x="126" y="160" type="line"/>
      <point x="95" y="119" type="line"/>
      <point x="136" y="119"/>
      <point x="150" y="110"/>
      <point x="169" y="79" type="curve"/>
      <point x="177" y="57" type="line" smooth="yes"/>
      <point x="206" y="11"/>
      <point x="238" y="-5"/>
      <point x="297" y="-7" type="curve"/>
      <point x="325" y="-8"/>
      <point x="352" y="-3"/>
    </contour>
  </outline>
</glyph>
<glyph name="Eng" format="1">
  <advance width="425"/>
  <unicode hex="014A"/>
  <outline>
    <contour>
      <point x="257" y="-116" type="curve"/>
      <point x="327" y="-116"/>
      <point x="394" y="-61"/>
      <point x="394" y="35" type="curve"/>
      <point x="394" y="391" type="line"/>
      <point x="278" y="391" type="line"/>
      <point x="278" y="100" type="line"/>
      <point x="321" y="128" type="line"/>
      <point x="139" y="391" type="line"/>
      <point x="31" y="391" type="line"/>
      <point x="31" y="0" type="line"/>
      <point x="148" y="0" type="line"/>
      <point x="148" y="290" type="line"/>
      <point x="105" y="262" type="line"/>
      <point x="286" y="0" type="line"/>
      <point x="279" y="44" type="line"/>
      <point x="279" y="10" type="line" smooth="yes"/>
      <point x="279" y="-6"/>
      <point x="265" y="-17"/>
      <point x="256" y="-17" type="curve"/>
      <point x="245" y="-17"/>
      <point x="236" y="-5"/>
      <point x="231" y="17" type="curve"/>
      <point x="133" y="-24" type="line"/>
      <point x="147" y="-86"/>
      <point x="196" y="-116"/>
    </contour>
  </outline>
</glyph>
<glyph name="eng" format="1">
  <advance width="361"/>
  <unicode hex="014B"/>
  <outline>
    <contour>
      <point x="338" y="30" type="curve"/>
      <point x="340" y="148" type="line" smooth="yes"/>
      <point x="341" y="237"/>
      <point x="306" y="287"/>
      <point x="233" y="287" type="curve"/>
      <point x="168" y="287"/>
      <point x="116" y="239"/>
      <point x="104" y="162" type="curve"/>
      <point x="130" y="177" type="line"/>
      <point x="138" y="283" type="line"/>
      <point x="26" y="283" type="line"/>
      <point x="26" y="0" type="line"/>
      <point x="139" y="0" type="line"/>
      <point x="142" y="152"/>
      <point x="166" y="190"/>
      <point x="203" y="190" type="curve"/>
      <point x="220" y="190"/>
      <point x="228" y="171"/>
      <point x="227" y="141" type="curve"/>
      <point x="226" y="28" type="line" smooth="yes"/>
      <point x="226" y="-7"/>
      <point x="212" y="-21"/>
      <point x="192" y="-21" type="curve"/>
      <point x="181" y="-21"/>
      <point x="170" y="-20"/>
      <point x="163" y="-17" type="curve"/>
      <point x="146" y="-99" type="line"/>
      <point x="161" y="-104"/>
      <point x="181" y="-106"/>
      <point x="200" y="-106" type="curve"/>
      <point x="281" y="-106"/>
      <point x="338" y="-57"/>
    </contour>
  </outline>
</glyph>
<glyph name="OE" format="1">
  <advance width="563"/>
  <unicode hex="0152"/>
  <outline>
    <contour>
      <point x="560" y="97" type="line"/>
      <point x="387" y="97" type="line"/>
      <point x="387" y="148" type="line"/>
      <point x="541" y="148" type="line"/>
      <point x="541" y="244" type="line"/>
      <point x="387" y="244" type="line"/>
      <point x="387" y="295" type="line"/>
      <point x="556" y="295" type="line"/>
      <point x="556" y="391" type="line"/>
      <point x="353" y="391" type="line" smooth="yes"/>
      <point x="303" y="391"/>
      <point x="284" y="394"/>
      <point x="242" y="394" type="curve"/>
      <point x="110" y="394"/>
      <point x="12" y="317"/>
      <point x="12" y="183" type="curve"/>
      <point x="12" y="66"/>
      <point x="92" y="-4"/>
      <point x="251" y="-4" type="curve"/>
      <point x="290" y="-4"/>
      <point x="316" y="0"/>
      <point x="348" y="0" type="curve"/>
      <point x="553" y="0" type="line"/>
    </contour>
    <contour>
      <point x="267" y="293" type="curve"/>
      <point x="267" y="97" type="line"/>
      <point x="256" y="95"/>
      <point x="246" y="93"/>
      <point x="234" y="93" type="curve"/>
      <point x="164" y="93"/>
      <point x="134" y="131"/>
      <point x="134" y="186" type="curve"/>
      <point x="134" y="255"/>
      <point x="169" y="297"/>
      <point x="238" y="297" type="curve"/>
      <point x="246" y="297"/>
      <point x="257" y="296"/>
    </contour>
    <contour>
      <point x="327" y="0" type="move" name="bottom"/>
    </contour>
    <contour>
      <point x="327" y="391" type="move" name="top"/>
    </contour>
  </outline>
</glyph>
<glyph name="oe" format="1">
  <advance width="503"/>
  <unicode hex="0153"/>
  <outline>
    <contour>
      <point x="167" y="287" type="curve"/>
      <point x="76" y="287"/>
      <point x="11" y="222"/>
      <point x="11" y="133" type="curve"/>
      <point x="11" y="48"/>
      <point x="67" y="-6"/>
      <point x="157" y="-6" type="curve"/>
      <point x="253" y="-6"/>
      <point x="303" y="59"/>
      <point x="303" y="148" type="curve"/>
      <point x="303" y="233"/>
      <point x="262" y="287"/>
    </contour>
    <contour>
      <point x="167" y="85" type="curve"/>
      <point x="141" y="85"/>
      <point x="127" y="103"/>
      <point x="127" y="133" type="curve"/>
      <point x="127" y="173"/>
      <point x="144" y="196"/>
      <point x="171" y="196" type="curve"/>
      <point x="196" y="196"/>
      <point x="211" y="177"/>
      <point x="211" y="148" type="curve"/>
      <point x="211" y="109"/>
      <point x="194" y="85"/>
    </contour>
    <contour>
      <point x="372" y="-6" type="curve"/>
      <point x="434" y="-6"/>
      <point x="467" y="13"/>
      <point x="491" y="40" type="curve"/>
      <point x="430" y="100" type="line"/>
      <point x="416" y="89"/>
      <point x="394" y="82"/>
      <point x="381" y="82" type="curve"/>
      <point x="343" y="82"/>
      <point x="326" y="105"/>
      <point x="326" y="120" type="curve"/>
      <point x="326" y="151" type="line" smooth="yes"/>
      <point x="326" y="195"/>
      <point x="337" y="213"/>
      <point x="367" y="213" type="curve"/>
      <point x="386" y="213"/>
      <point x="397" y="199"/>
      <point x="394" y="172" type="curve"/>
      <point x="417" y="183" type="line"/>
      <point x="308" y="183" type="line"/>
      <point x="308" y="111" type="line"/>
      <point x="489" y="111" type="line"/>
      <point x="503" y="213"/>
      <point x="464" y="287"/>
      <point x="361" y="287" type="curve"/>
      <point x="298" y="287"/>
      <point x="236" y="226"/>
      <point x="236" y="137" type="curve"/>
      <point x="236" y="47"/>
      <point x="285" y="-6"/>
    </contour>
    <contour>
      <point x="269" y="0" type="move" name="bottom"/>
    </contour>
    <contour>
      <point x="269" y="283" type="move" name="top"/>
    </contour>
  </outline>
</glyph>
<glyph name="Uogonek" format="1">
  <advance width="431"/>
  <unicode hex="0172"/>
  <outline>
    <contour>
      <point x="239" y="-123" type="curve"/>
      <point x="273" y="-123"/>
      <point x="302" y="-113"/>
      <point x="316" y="-95" type="curve"/>
      <point x="280" y="-46" type="line"/>
      <point x="274" y="-54"/>
      <point x="261" y="-60"/>
      <point x="253" y="-60" type="curve"/>
      <point x="241" y="-60"/>
      <point x="234" y="-55"/>
      <point x="234" y="-45" type="curve"/>
      <point x="234" y="-30"/>
      <point x="238" y="-16"/>
      <point x="293" y="7" type="curve"/>
      <point x="360" y="35"/>
      <point x="402" y="96"/>
      <point x="402" y="175" type="curve"/>
      <point x="400" y="391" type="line"/>
      <point x="281" y="391" type="line"/>
      <point x="282" y="183" type="line" smooth="yes"/>
      <point x="283" y="121"/>
      <point x="255" y="94"/>
      <point x="221" y="94" type="curve"/>
      <point x="180" y="94"/>
      <point x="150" y="117"/>
      <point x="150" y="174" type="curve"/>
      <point x="150" y="391" type="line"/>
      <point x="30" y="391" type="line"/>
      <point x="30" y="164" type="line" smooth="yes"/>
      <point x="30" y="54"/>
      <point x="98" y="-8"/>
      <point x="224" y="-6" type="curve"/>
      <point x="232" y="-6" type="line"/>
      <point x="213" y="18" type="line"/>
      <point x="154" y="-2"/>
      <point x="140" y="-29"/>
      <point x="140" y="-56" type="curve"/>
      <point x="140" y="-96"/>
      <point x="183" y="-123"/>
    </contour>
    <contour>
      <point x="217" y="391" type="move" name="top"/>
    </contour>
  </outline>
</glyph>
<glyph name="florin" format="1">
  <advance width="330"/>
  <unicode hex="0192"/>
  <outline>
    <contour>
      <point x="277" y="283" type="line"/>
      <point x="52" y="283" type="line"/>
      <point x="52" y="196" type="line"/>
      <point x="277" y="196" type="line"/>
    </contour>
    <contour>
      <point x="243" y="413" type="curve"/>
      <point x="165" y="413"/>
      <point x="96" y="361"/>
      <point x="103" y="279" type="curve"/>
      <point x="123" y="35" type="line" smooth="yes"/>
      <point x="126" y="-8"/>
      <point x="110" y="-18"/>
      <point x="85" y="-18" type="curve"/>
      <point x="65" y="-18"/>
      <point x="43" y="-13"/>
      <point x="33" y="-12" type="curve"/>
      <point x="20" y="-98" type="line"/>
      <point x="38" y="-103"/>
      <point x="62" y="-106"/>
      <point x="89" y="-106" type="curve"/>
      <point x="176" y="-106"/>
      <point x="246" y="-60"/>
      <point x="236" y="37" type="curve"/>
      <point x="215" y="217" type="line"/>
      <point x="213" y="267" type="line"/>
      <point x="212" y="287" type="line" smooth="yes"/>
      <point x="210" y="313"/>
      <point x="223" y="324"/>
      <point x="240" y="324" type="curve"/>
      <point x="249" y="324"/>
      <point x="257" y="318"/>
      <point x="258" y="310" type="curve"/>
      <point x="354" y="320" type="line"/>
      <point x="344" y="385"/>
      <point x="303" y="413"/>
    </contour>
  </outline>
</glyph>
<glyph name="Uhorn" format="1">
  <advance width="431"/>
  <unicode hex="01AF"/>
  <outline>
    <contour>
      <point x="499" y="446" type="curve"/>
      <point x="403" y="453" type="line"/>
      <point x="402" y="402"/>
      <point x="397" y="391"/>
      <point x="363" y="391" type="curve"/>
      <point x="281" y="391" type="line"/>
      <point x="282" y="183" type="line" smooth="yes"/>
      <point x="283" y="121"/>
      <point x="255" y="94"/>
      <point x="221" y="94" type="curve"/>
      <point x="180" y="94"/>
      <point x="150" y="117"/>
      <point x="150" y="174" type="curve"/>
      <point x="150" y="391" type="line"/>
      <point x="30" y="391" type="line"/>
      <point x="30" y="164" type="line" smooth="yes"/>
      <point x="30" y="54"/>
      <point x="98" y="-8"/>
      <point x="224" y="-6" type="curve"/>
      <point x="326" y="-4"/>
      <point x="402" y="71"/>
      <point x="402" y="175" type="curve"/>
      <point x="401" y="339" type="line"/>
      <point x="346" y="309" type="line"/>
      <point x="382" y="309" type="line" smooth="yes"/>
      <point x="458" y="309"/>
      <point x="504" y="371"/>
    </contour>
    <contour>
      <point x="215" y="0" type="move" name="bottom"/>
    </contour>
    <contour>
      <point x="215" y="391" type="move" name="top"/>
    </contour>
  </outline>
</glyph>
<glyph name="uhorn" format="1">
  <advance width="353"/>
  <unicode hex="01B0"/>
  <outline>
    <contour>
      <point x="382" y="339" type="curve"/>
      <point x="285" y="346" type="line"/>
      <point x="283" y="290"/>
      <point x="276" y="283"/>
      <point x="249" y="283" type="curve"/>
      <point x="218" y="283" type="line"/>
      <point x="215" y="129"/>
      <point x="192" y="92"/>
      <point x="157" y="92" type="curve"/>
      <point x="140" y="92"/>
      <point x="133" y="110"/>
      <point x="134" y="134" type="curve"/>
      <point x="134" y="283" type="line"/>
      <point x="22" y="283" type="line"/>
      <point x="21" y="128" type="line" smooth="yes"/>
      <point x="20" y="44"/>
      <point x="54" y="-6"/>
      <point x="126" y="-6" type="curve"/>
      <point x="190" y="-6"/>
      <point x="239" y="43"/>
      <point x="252" y="110" type="curve"/>
      <point x="226" y="95" type="line"/>
      <point x="219" y="0" type="line"/>
      <point x="327" y="0" type="line"/>
      <point x="327" y="243" type="line"/>
      <point x="259" y="209" type="line"/>
      <point x="332" y="209"/>
      <point x="385" y="263"/>
    </contour>
    <contour>
      <point x="176" y="0" type="move" name="bottom"/>
    </contour>
    <contour>
      <point x="176" y="283" type="move" name="top"/>
    </contour>
  </outline>
</glyph>
<glyph name="gravecomb" format="1">
  <advance width="354"/>
  <unicode hex="0300"/>
  <outline>
    <contour>
      <point x="50" y="387" type="line"/>
      <point x="136" y="315" type="line"/>
      <point x="233" y="315" type="line"/>
      <point x="163" y="413" type="line"/>
    </contour>
    <contour>
      <point x="184" y="283" type="move" name="_top"/>
    </contour>
    <contour>
      <point x="184" y="412" type="move" name="top"/>
    </contour>
  </outline>
</glyph>
<glyph name="acutecomb" format="1">
  <advance width="351"/>
  <unicode hex="0301"/>
  <outline>
    <contour>
      <point x="138" y="315" type="line"/>
      <point x="235" y="315" type="line"/>
      <point x="321" y="387" type="line"/>
      <point x="208" y="413" type="line"/>
    </contour>
    <contour>
      <point x="184" y="283" type="move" name="_top"/>
    </contour>
    <contour>
      <point x="184" y="412" type="move" name="top"/>
    </contour>
  </outline>
</glyph>
<glyph name="hookabovecomb" format="1">
  <advance width="349"/>
  <unicode hex="0309"/>
  <outline>
    <contour>
      <point x="192" y="413" type="curve"/>
      <point x="155" y="413"/>
      <point x="120" y="400"/>
      <point x="99" y="378" type="curve"/>
      <point x="138" y="344" type="line"/>
      <point x="149" y="356"/>
      <point x="164" y="363"/>
      <point x="179" y="363" type="curve"/>
      <point x="182" y="363"/>
      <point x="186" y="363"/>
      <point x="186" y="360" type="curve"/>
      <point x="186" y="355"/>
      <point x="154" y="350"/>
      <point x="154" y="326" type="curve"/>
      <point x="154" y="315" type="line"/>
      <point x="214" y="315" type="line"/>
      <point x="214" y="329"/>
      <point x="273" y="327"/>
      <point x="273" y="368" type="curve"/>
      <point x="273" y="398"/>
      <point x="236" y="413"/>
    </contour>
    <contour>
      <point x="184" y="283" type="move" name="_top"/>
    </contour>
    <contour>
      <point x="184" y="412" type="move" name="top"/>
    </contour>
  </outline>
</glyph>
<glyph name="dotbelowcomb" format="1">
  <advance width="358"/>
  <unicode hex="0323"/>
  <outline>
    <contour>
      <point x="179" y="-144" type="curve"/>
      <point x="223" y="-144"/>
      <point x="251" y="-117"/>
      <point x="251" y="-84" type="curve"/>
      <point x="251" y="-50"/>
      <point x="223" y="-23"/>
      <point x="179" y="-23" type="curve"/>
      <point x="135" y="-23"/>
      <point x="108" y="-50"/>
      <point x="108" y="-84" type="curve"/>
      <point x="108" y="-117"/>
      <point x="135" y="-144"/>
    </contour>
    <contour>
      <point x="179" y="0" type="move" name="_bottom"/>
    </contour>
    <contour>
      <point x="179" y="-121" type="move" name="bottom"/>
    </contour>
  </outline>
</glyph>
<glyph name="pi" format="1">
  <advance width="394"/>
  <unicode hex="03C0"/>
  <outline>
    <contour>
      <point x="24" y="-1" type="curve"/>
      <point x="141" y="0" type="line"/>
      <point x="166" y="89"/>
      <point x="171" y="152"/>
      <point x="170" y="242" type="curve"/>
      <point x="61" y="242" type="line"/>
      <point x="61" y="159"/>
      <point x="55" y="99"/>
    </contour>
    <contour>
      <point x="-4" y="282" type="line"/>
      <point x="-4" y="195" type="line"/>
      <point x="373" y="195" type="line"/>
      <point x="373" y="282" type="line"/>
    </contour>
    <contour>
      <point x="311" y="-6" type="curve"/>
      <point x="352" y="-6"/>
      <point x="386" y="2"/>
      <point x="404" y="17" type="curve"/>
      <point x="373" y="95" type="line"/>
      <point x="361" y="87"/>
      <point x="350" y="84"/>
      <point x="335" y="84" type="curve"/>
      <point x="317" y="84"/>
      <point x="309" y="95"/>
      <point x="309" y="119" type="curve"/>
      <point x="309" y="242" type="line"/>
      <point x="198" y="242" type="line"/>
      <point x="198" y="107" type="line" smooth="yes"/>
      <point x="198" y="37"/>
      <point x="242" y="-6"/>
    </contour>
  </outline>
</glyph>
<glyph name="figuredash" format="1">
  <advance width="330"/>
  <unicode hex="2012"/>
  <outline>
    <contour>
      <point x="11" y="187" type="line"/>
      <point x="11" y="100" type="line"/>
      <point x="319" y="100" type="line"/>
      <point x="319" y="187" type="line"/>
    </contour>
  </outline>
</glyph>
<glyph name="endash" format="1">
  <advance width="275"/>
  <unicode hex="2013"/>
  <outline>
    <contour>
      <point x="11" y="187" type="line"/>
      <point x="11" y="100" type="line"/>
      <point x="264" y="100" type="line"/>
      <point x="264" y="187" type="line"/>
    </contour>
  </outline>
</glyph>
<glyph name="emdash" format="1">
  <advance width="550"/>
  <unicode hex="2014"/>
  <outline>
    <contour>
      <point x="11" y="187" type="line"/>
      <point x="11" y="100" type="line"/>
      <point x="539" y="100" type="line"/>
      <point x="539" y="187" type="line"/>
    </contour>
  </outline>
</glyph>
<glyph name="quoteleft" format="1">
  <advance width="191"/>
  <unicode hex="2018"/>
  <outline>
    <contour>
      <point x="171" y="413" type="curve"/>
      <point x="114" y="413" type="line"/>
      <point x="62" y="366"/>
      <point x="21" y="292"/>
      <point x="21" y="245" type="curve"/>
      <point x="21" y="198"/>
      <point x="49" y="170"/>
      <point x="95" y="170" type="curve"/>
      <point x="140" y="170"/>
      <point x="170" y="197"/>
      <point x="170" y="228" type="curve"/>
      <point x="170" y="268"/>
      <point x="146" y="284"/>
      <point x="146" y="325" type="curve"/>
      <point x="146" y="348"/>
      <point x="155" y="377"/>
    </contour>
  </outline>
</glyph>
<glyph name="quoteright" format="1">
  <advance width="191"/>
  <unicode hex="2019"/>
  <outline>
    <contour>
      <point x="21" y="170" type="curve"/>
      <point x="78" y="170" type="line"/>
      <point x="130" y="217"/>
      <point x="171" y="291"/>
      <point x="171" y="338" type="curve"/>
      <point x="171" y="385"/>
      <point x="143" y="413"/>
      <point x="97" y="413" type="curve"/>
      <point x="52" y="413"/>
      <point x="22" y="385"/>
      <point x="22" y="354" type="curve"/>
      <point x="22" y="315"/>
      <point x="46" y="299"/>
      <point x="46" y="258" type="curve"/>
      <point x="46" y="234"/>
      <point x="37" y="206"/>
    </contour>
  </outline>
</glyph>
<glyph name="dagger" format="1">
  <advance width="242"/>
  <unicode hex="2020"/>
  <outline>
    <contour>
      <point x="170" y="334" type="line"/>
      <point x="170" y="407" type="line"/>
      <point x="73" y="407" type="line"/>
      <point x="73" y="334" type="line"/>
      <point x="6" y="334" type="line"/>
      <point x="6" y="255" type="line"/>
      <point x="73" y="255" type="line"/>
      <point x="73" y="94" type="line"/>
      <point x="170" y="94" type="line"/>
      <point x="170" y="255" type="line"/>
      <point x="236" y="255" type="line"/>
      <point x="236" y="334" type="line"/>
    </contour>
  </outline>
</glyph>
<glyph name="daggerdbl" format="1">
  <advance width="242"/>
  <unicode hex="2021"/>
  <outline>
    <contour>
      <point x="170" y="255" type="line"/>
      <point x="236" y="255" type="line"/>
      <point x="236" y="334" type="line"/>
      <point x="170" y="334" type="line"/>
      <point x="170" y="407" type="line"/>
      <point x="73" y="407" type="line"/>
      <point x="73" y="334" type="line"/>
      <point x="6" y="334" type="line"/>
      <point x="6" y="255" type="line"/>
      <point x="73" y="255" type="line"/>
      <point x="73" y="191" type="line"/>
      <point x="6" y="191" type="line"/>
      <point x="6" y="113" type="line"/>
      <point x="73" y="113" type="line"/>
      <point x="73" y="40" type="line"/>
      <point x="170" y="40" type="line"/>
      <point x="170" y="113" type="line"/>
      <point x="236" y="113" type="line"/>
      <point x="236" y="191" type="line"/>
      <point x="170" y="191" type="line"/>
    </contour>
  </outline>
</glyph>
<glyph name="bullet" format="1">
  <advance width="238"/>
  <unicode hex="2022"/>
  <outline>
    <contour>
      <point x="119" y="57" type="curve"/>
      <point x="171" y="57"/>
      <point x="213" y="97"/>
      <point x="213" y="151" type="curve"/>
      <point x="213" y="204"/>
      <point x="171" y="245"/>
      <point x="119" y="245" type="curve"/>
      <point x="66" y="245"/>
      <point x="25" y="204"/>
      <point x="25" y="151" type="curve"/>
      <point x="25" y="97"/>
      <point x="66" y="57"/>
    </contour>
  </outline>
</glyph>
<glyph name="perthousand" format="1">
  <advance width="734"/>
  <unicode hex="2030"/>
  <outline>
    <contour>
      <point x="607" y="-5" type="curve"/>
      <point x="674" y="-5"/>
      <point x="721" y="38"/>
      <point x="721" y="97" type="curve"/>
      <point x="721" y="155"/>
      <point x="681" y="192"/>
      <point x="617" y="192" type="curve"/>
      <point x="550" y="192"/>
      <point x="502" y="149"/>
      <point x="502" y="90" type="curve"/>
      <point x="502" y="32"/>
      <point x="543" y="-5"/>
    </contour>
    <contour>
      <point x="610" y="59" type="curve"/>
      <point x="591" y="59"/>
      <point x="580" y="69"/>
      <point x="580" y="91" type="curve"/>
      <point x="580" y="114"/>
      <point x="592" y="128"/>
      <point x="613" y="128" type="curve"/>
      <point x="633" y="128"/>
      <point x="644" y="118"/>
      <point x="644" y="98" type="curve"/>
      <point x="644" y="74"/>
      <point x="631" y="59"/>
    </contour>
    <component base="percent"/>
  </outline>
</glyph>
<glyph name="guilsinglleft" format="1">
  <advance width="203"/>
  <unicode hex="2039"/>
  <outline>
    <contour>
      <point x="18" y="118" type="line"/>
      <point x="76" y="39" type="line"/>
      <point x="195" y="39" type="line"/>
      <point x="98" y="168" type="line"/>
      <point x="98" y="112" type="line"/>
      <point x="195" y="240" type="line"/>
      <point x="76" y="240" type="line"/>
      <point x="18" y="160" type="line"/>
    </contour>
  </outline>
</glyph>
<glyph name="guilsinglright" format="1">
  <advance width="203"/>
  <unicode hex="203A"/>
  <outline>
    <contour>
      <point x="8" y="39" type="line"/>
      <point x="127" y="39" type="line"/>
      <point x="185" y="118" type="line"/>
      <point x="185" y="160" type="line"/>
      <point x="127" y="240" type="line"/>
      <point x="8" y="240" type="line"/>
      <point x="105" y="112" type="line"/>
      <point x="105" y="168" type="line"/>
    </contour>
  </outline>
</glyph>
<glyph name="franc" format="1">
  <advance width="330"/>
  <unicode hex="20A3"/>
  <outline>
    <contour>
      <point x="151" y="293" type="line"/>
      <point x="313" y="293" type="line"/>
      <point x="313" y="391" type="line"/>
      <point x="32" y="391" type="line"/>
      <point x="32" y="0" type="line"/>
      <point x="151" y="0" type="line"/>
      <point x="151" y="142" type="line"/>
      <point x="297" y="142" type="line"/>
      <point x="297" y="239" type="line"/>
      <point x="151" y="239" type="line"/>
    </contour>
    <contour>
      <point x="12" y="106" type="line"/>
      <point x="12" y="33" type="line"/>
      <point x="230" y="33" type="line"/>
      <point x="230" y="106" type="line"/>
    </contour>
  </outline>
</glyph>
<glyph name="lira" format="1">
  <advance width="330"/>
  <unicode hex="20A4"/>
  <outline>
    <contour>
      <point x="6" y="65" type="curve"/>
      <point x="55" y="-7" type="line"/>
      <point x="74" y="8"/>
      <point x="101" y="17"/>
      <point x="124" y="17" type="curve"/>
      <point x="147" y="17"/>
      <point x="190" y="-6"/>
      <point x="221" y="-6" type="curve"/>
      <point x="265" y="-6"/>
      <point x="306" y="20"/>
      <point x="325" y="60" type="curve"/>
      <point x="260" y="109" type="line"/>
      <point x="250" y="97"/>
      <point x="236" y="89"/>
      <point x="218" y="89" type="curve"/>
      <point x="196" y="89"/>
      <point x="189" y="107"/>
      <point x="173" y="107" type="curve"/>
      <point x="160" y="107"/>
      <point x="164" y="107"/>
      <point x="153" y="102" type="curve"/>
      <point x="162" y="92" type="line"/>
      <point x="172" y="114"/>
      <point x="175" y="134"/>
      <point x="175" y="159" type="curve"/>
      <point x="175" y="218"/>
      <point x="151" y="219"/>
      <point x="151" y="265" type="curve"/>
      <point x="151" y="283"/>
      <point x="168" y="300"/>
      <point x="185" y="300" type="curve"/>
      <point x="212" y="300"/>
      <point x="228" y="290"/>
      <point x="243" y="261" type="curve"/>
      <point x="335" y="299" type="line"/>
      <point x="309" y="363"/>
      <point x="260" y="396"/>
      <point x="189" y="396" type="curve"/>
      <point x="103" y="396"/>
      <point x="32" y="334"/>
      <point x="32" y="270" type="curve"/>
      <point x="32" y="214"/>
      <point x="64" y="175"/>
      <point x="64" y="143" type="curve"/>
      <point x="64" y="111"/>
      <point x="36" y="74"/>
    </contour>
    <contour>
      <point x="1" y="185" type="line"/>
      <point x="1" y="112" type="line"/>
      <point x="220" y="112" type="line"/>
      <point x="220" y="185" type="line"/>
    </contour>
    <contour>
      <point x="1" y="279" type="line"/>
      <point x="1" y="207" type="line"/>
      <point x="220" y="207" type="line"/>
      <point x="220" y="279" type="line"/>
    </contour>
  </outline>
</glyph>
<glyph name="peseta" format="1">
  <advance width="330"/>
  <unicode hex="20A7"/>
  <outline>
    <contour>
      <point x="27" y="0" type="line"/>
      <point x="144" y="0" type="line"/>
      <point x="144" y="298" type="line"/>
      <point x="160" y="298" type="line" smooth="yes"/>
      <point x="167" y="298"/>
      <point x="185" y="292"/>
      <point x="185" y="259" type="curve"/>
      <point x="185" y="227"/>
      <point x="161" y="219"/>
      <point x="153" y="219" type="curve"/>
      <point x="124" y="219" type="line"/>
      <point x="124" y="126" type="line"/>
      <point x="147" y="126" type="line" smooth="yes"/>
      <point x="231" y="126"/>
      <point x="305" y="177"/>
      <point x="305" y="261" type="curve"/>
      <point x="305" y="345"/>
      <point x="249" y="390"/>
      <point x="159" y="390" type="curve"/>
      <point x="27" y="390" type="line"/>
    </contour>
    <contour>
      <point x="329" y="296" type="line"/>
      <point x="291" y="296" type="line"/>
      <point x="291" y="224" type="line"/>
      <point x="329" y="224" type="line"/>
    </contour>
    <contour>
      <point x="1" y="224" type="line"/>
      <point x="32" y="224" type="line"/>
      <point x="32" y="296" type="line"/>
      <point x="1" y="296" type="line"/>
    </contour>
  </outline>
</glyph>
<glyph name="dong" format="1">
  <advance width="332"/>
  <unicode hex="20AB"/>
  <outline>
    <contour>
      <point x="307" y="0" type="line"/>
      <point x="307" y="407" type="line"/>
      <point x="194" y="407" type="line"/>
      <point x="194" y="302" type="line"/>
      <point x="198" y="252" type="line"/>
      <point x="214" y="245" type="line"/>
      <point x="201" y="273"/>
      <point x="184" y="287"/>
      <point x="151" y="287" type="curve"/>
      <point x="77" y="287"/>
      <point x="12" y="228"/>
      <point x="12" y="130" type="curve"/>
      <point x="12" y="50"/>
      <point x="53" y="-6"/>
      <point x="125" y="-6" type="curve"/>
      <point x="179" y="-6"/>
      <point x="201" y="24"/>
      <point x="214" y="82" type="curve"/>
      <point x="204" y="99" type="line"/>
      <point x="196" y="0" type="line"/>
    </contour>
    <contour>
      <point x="164" y="196" type="curve"/>
      <point x="182" y="196"/>
      <point x="194" y="178"/>
      <point x="194" y="149" type="curve"/>
      <point x="194" y="110"/>
      <point x="176" y="85"/>
      <point x="155" y="85" type="curve"/>
      <point x="137" y="85"/>
      <point x="128" y="99"/>
      <point x="128" y="133" type="curve"/>
      <point x="128" y="171"/>
      <point x="141" y="196"/>
    </contour>
    <contour>
      <point x="112" y="382" type="line"/>
      <point x="112" y="309" type="line"/>
      <point x="334" y="309" type="line"/>
      <point x="334" y="382" type="line"/>
    </contour>
    <contour>
      <point x="23" y="-33" type="line"/>
      <point x="23" y="-105" type="line"/>
      <point x="307" y="-105" type="line"/>
      <point x="307" y="-33" type="line"/>
    </contour>
  </outline>
</glyph>
<glyph name="Euro" format="1">
  <advance width="330"/>
  <unicode hex="20AC"/>
  <outline>
    <contour>
      <point x="320" y="78" type="curve"/>
      <point x="233" y="130" type="line"/>
      <point x="222" y="101"/>
      <point x="205" y="87"/>
      <point x="198" y="87" type="curve"/>
      <point x="174" y="87"/>
      <point x="155" y="111"/>
      <point x="155" y="190" type="curve"/>
      <point x="155" y="271"/>
      <point x="176" y="302"/>
      <point x="201" y="302" type="curve"/>
      <point x="208" y="302"/>
      <point x="225" y="292"/>
      <point x="232" y="266" type="curve"/>
      <point x="322" y="313" type="line"/>
      <point x="290" y="377"/>
      <point x="251" y="396"/>
      <point x="200" y="396" type="curve"/>
      <point x="109" y="396"/>
      <point x="36" y="322"/>
      <point x="36" y="187" type="curve"/>
      <point x="36" y="56"/>
      <point x="100" y="-6"/>
      <point x="195" y="-6" type="curve"/>
      <point x="239" y="-6"/>
      <point x="291" y="16"/>
    </contour>
    <contour>
      <point x="1" y="279" type="line"/>
      <point x="1" y="207" type="line"/>
      <point x="199" y="207" type="line"/>
      <point x="199" y="279" type="line"/>
    </contour>
    <contour>
      <point x="1" y="185" type="line"/>
      <point x="1" y="112" type="line"/>
      <point x="199" y="112" type="line"/>
      <point x="199" y="185" type="line"/>
    </contour>
  </outline>
</glyph>
<glyph name="estimated" format="1">
  <advance width="492"/>
  <unicode hex="212E"/>
  <outline>
    <contour>
      <point x="246" y="-3" type="curve"/>
      <point x="337" y="-3"/>
      <point x="383" y="22"/>
      <point x="426" y="74" type="curve"/>
      <point x="387" y="74" type="line"/>
      <point x="350" y="37"/>
      <point x="307" y="15"/>
      <point x="245" y="15" type="curve"/>
      <point x="188" y="15"/>
      <point x="141" y="33"/>
      <point x="112" y="68" type="curve"/>
      <point x="109" y="72"/>
      <point x="108" y="79"/>
      <point x="108" y="84" type="curve"/>
      <point x="108" y="179" type="line" smooth="yes"/>
      <point x="108" y="181"/>
      <point x="109" y="182"/>
      <point x="111" y="182" type="curve"/>
      <point x="464" y="182" type="line"/>
      <point x="464" y="282"/>
      <point x="414" y="391"/>
      <point x="245" y="391" type="curve"/>
      <point x="109" y="391"/>
      <point x="28" y="293"/>
      <point x="28" y="190" type="curve"/>
      <point x="28" y="87"/>
      <point x="107" y="-3"/>
    </contour>
    <contour>
      <point x="381" y="199" type="curve"/>
      <point x="111" y="199" type="line"/>
      <point x="109" y="199"/>
      <point x="108" y="200"/>
      <point x="108" y="202" type="curve"/>
      <point x="108" y="306" type="line" smooth="yes"/>
      <point x="108" y="312"/>
      <point x="109" y="318"/>
      <point x="113" y="321" type="curve"/>
      <point x="152" y="360"/>
      <point x="201" y="373"/>
      <point x="244" y="373" type="curve"/>
      <point x="282" y="373"/>
      <point x="340" y="365"/>
      <point x="378" y="320" type="curve"/>
      <point x="382" y="316"/>
      <point x="384" y="311"/>
      <point x="384" y="306" type="curve"/>
      <point x="384" y="202" type="line" smooth="yes"/>
      <point x="384" y="200"/>
      <point x="383" y="199"/>
    </contour>
  </outline>
</glyph>
<glyph name="partialdiff" format="1">
  <advance width="330"/>
  <unicode hex="2202"/>
  <outline>
    <contour>
      <point x="154" y="-6" type="curve"/>
      <point x="261" y="-6"/>
      <point x="328" y="77"/>
      <point x="328" y="176" type="curve"/>
      <point x="328" y="322"/>
      <point x="226" y="411"/>
      <point x="71" y="411" type="curve"/>
      <point x="53" y="319" type="line"/>
      <point x="151" y="319"/>
      <point x="216" y="272"/>
      <point x="211" y="204" type="curve"/>
      <point x="247" y="185" type="line"/>
      <point x="224" y="237"/>
      <point x="193" y="259"/>
      <point x="142" y="259" type="curve"/>
      <point x="59" y="259"/>
      <point x="2" y="203"/>
      <point x="2" y="125" type="curve"/>
      <point x="2" y="43"/>
      <point x="60" y="-6"/>
    </contour>
    <contour>
      <point x="158" y="83" type="curve"/>
      <point x="136" y="83"/>
      <point x="119" y="101"/>
      <point x="119" y="125" type="curve"/>
      <point x="119" y="156"/>
      <point x="135" y="173"/>
      <point x="163" y="173" type="curve"/>
      <point x="188" y="173"/>
      <point x="206" y="158"/>
      <point x="206" y="132" type="curve"/>
      <point x="206" y="105"/>
      <point x="184" y="83"/>
    </contour>
  </outline>
</glyph>
<glyph name="emptyset" format="1">
  <advance width="330"/>
  <unicode hex="2205"/>
  <outline>
    <contour>
      <point x="-6" y="-8" type="line"/>
      <point x="54" y="-55" type="line"/>
      <point x="336" y="283" type="line"/>
      <point x="276" y="330" type="line"/>
    </contour>
    <contour>
      <point x="165" y="-3" type="curve"/>
      <point x="246" y="-3"/>
      <point x="305" y="59"/>
      <point x="305" y="138" type="curve"/>
      <point x="305" y="215"/>
      <point x="246" y="278"/>
      <point x="165" y="278" type="curve"/>
      <point x="84" y="278"/>
      <point x="25" y="215"/>
      <point x="25" y="138" type="curve"/>
      <point x="25" y="59"/>
      <point x="84" y="-3"/>
    </contour>
    <contour>
      <point x="165" y="82" type="curve"/>
      <point x="135" y="82"/>
      <point x="117" y="107"/>
      <point x="117" y="138" type="curve"/>
      <point x="117" y="168"/>
      <point x="135" y="193"/>
      <point x="165" y="193" type="curve"/>
      <point x="195" y="193"/>
      <point x="213" y="168"/>
      <point x="213" y="138" type="curve"/>
      <point x="213" y="107"/>
      <point x="195" y="82"/>
    </contour>
  </outline>
</glyph>
<glyph name="product" format="1">
  <advance width="330"/>
  <unicode hex="220F"/>
  <outline>
    <contour>
      <point x="186" y="391" type="line"/>
      <point x="186" y="0" type="line"/>
      <point x="299" y="0" type="line"/>
      <point x="299" y="391" type="line"/>
    </contour>
    <contour>
      <point x="31" y="391" type="line"/>
      <point x="31" y="0" type="line"/>
      <point x="144" y="0" type="line"/>
      <point x="144" y="391" type="line"/>
    </contour>
    <contour>
      <point x="91" y="391" type="line"/>
      <point x="91" y="295" type="line"/>
      <point x="233" y="295" type="line"/>
      <point x="233" y="391" type="line"/>
    </contour>
  </outline>
</glyph>
<glyph name="summation" format="1">
  <advance width="330"/>
  <unicode hex="2211"/>
  <outline>
    <contour>
      <point x="322" y="-110" type="line"/>
      <point x="322" y="-11" type="line"/>
      <point x="146" y="-11" type="line"/>
      <point x="146" y="-26" type="line"/>
      <point x="268" y="140" type="line"/>
      <point x="142" y="313" type="line"/>
      <point x="142" y="291" type="line"/>
      <point x="322" y="291" type="line"/>
      <point x="322" y="391" type="line"/>
      <point x="7" y="391" type="line"/>
      <point x="7" y="307" type="line"/>
      <point x="137" y="131" type="line"/>
      <point x="138" y="151" type="line"/>
      <point x="7" y="-26" type="line"/>
      <point x="7" y="-110" type="line"/>
    </contour>
  </outline>
</glyph>
<glyph name="minus" format="1">
  <advance width="330"/>
  <unicode hex="2212"/>
  <outline>
    <contour>
      <point x="308" y="94" type="line"/>
      <point x="308" y="189" type="line"/>
      <point x="22" y="189" type="line"/>
      <point x="22" y="94" type="line"/>
    </contour>
  </outline>
</glyph>
<glyph name="radical" format="1">
  <advance width="330"/>
  <unicode hex="221A"/>
  <outline>
    <contour>
      <point x="319" y="390" type="line"/>
      <point x="212" y="390" type="line"/>
      <point x="131" y="23" type="line"/>
      <point x="167" y="23" type="line"/>
      <point x="137" y="283" type="line"/>
      <point x="0" y="283" type="line"/>
      <point x="0" y="196" type="line"/>
      <point x="37" y="196" type="line"/>
      <point x="65" y="0" type="line"/>
      <point x="225" y="0" type="line"/>
    </contour>
  </outline>
</glyph>
<glyph name="infinity" format="1">
  <advance width="528"/>
  <unicode hex="221E"/>
  <outline>
    <contour>
      <point x="154" y="9" type="curve"/>
      <point x="212" y="9"/>
      <point x="265" y="54"/>
      <point x="279" y="105" type="curve"/>
      <point x="246" y="154" type="line"/>
      <point x="209" y="113"/>
      <point x="188" y="100"/>
      <point x="164" y="100" type="curve"/>
      <point x="136" y="100"/>
      <point x="120" y="114"/>
      <point x="120" y="140" type="curve"/>
      <point x="120" y="167"/>
      <point x="134" y="182"/>
      <point x="155" y="182" type="curve"/>
      <point x="214" y="182"/>
      <point x="238" y="9"/>
      <point x="373" y="9" type="curve"/>
      <point x="456" y="9"/>
      <point x="517" y="64"/>
      <point x="517" y="144" type="curve"/>
      <point x="517" y="217"/>
      <point x="454" y="273"/>
      <point x="374" y="273" type="curve"/>
      <point x="316" y="273"/>
      <point x="261" y="228"/>
      <point x="250" y="177" type="curve"/>
      <point x="282" y="128" type="line"/>
      <point x="320" y="169"/>
      <point x="340" y="182"/>
      <point x="364" y="182" type="curve"/>
      <point x="390" y="182"/>
      <point x="409" y="166"/>
      <point x="409" y="142" type="curve"/>
      <point x="409" y="114"/>
      <point x="394" y="100"/>
      <point x="373" y="100" type="curve"/>
      <point x="315" y="100"/>
      <point x="290" y="273"/>
      <point x="156" y="273" type="curve"/>
      <point x="71" y="273"/>
      <point x="11" y="218"/>
      <point x="11" y="138" type="curve"/>
      <point x="11" y="64"/>
      <point x="74" y="9"/>
    </contour>
  </outline>
</glyph>
<glyph name="integral" format="1">
  <advance width="330"/>
  <unicode hex="222B"/>
  <outline>
    <contour>
      <point x="235" y="413" type="curve"/>
      <point x="134" y="413"/>
      <point x="74" y="346"/>
      <point x="90" y="251" type="curve"/>
      <point x="125" y="54" type="line" smooth="yes"/>
      <point x="135" y="2"/>
      <point x="121" y="-15"/>
      <point x="91" y="-15" type="curve"/>
      <point x="78" y="-15"/>
      <point x="57" y="-13"/>
      <point x="39" y="-9" type="curve"/>
      <point x="27" y="-98" type="line"/>
      <point x="45" y="-103"/>
      <point x="70" y="-106"/>
      <point x="95" y="-106" type="curve"/>
      <point x="196" y="-106"/>
      <point x="255" y="-40"/>
      <point x="239" y="56" type="curve"/>
      <point x="203" y="253" type="line" smooth="yes"/>
      <point x="194" y="304"/>
      <point x="209" y="322"/>
      <point x="239" y="322" type="curve"/>
      <point x="252" y="322"/>
      <point x="273" y="320"/>
      <point x="291" y="316" type="curve"/>
      <point x="303" y="405" type="line"/>
      <point x="285" y="410"/>
      <point x="260" y="413"/>
    </contour>
  </outline>
</glyph>
<glyph name="approxequal" format="1">
  <advance width="330"/>
  <unicode hex="2248"/>
  <outline>
    <contour>
      <point x="220" y="149" type="curve"/>
      <point x="257" y="149"/>
      <point x="293" y="169"/>
      <point x="311" y="215" type="curve"/>
      <point x="257" y="253" type="line"/>
      <point x="247" y="238"/>
      <point x="237" y="233"/>
      <point x="217" y="233" type="curve"/>
      <point x="195" y="233"/>
      <point x="152" y="266"/>
      <point x="110" y="266" type="curve"/>
      <point x="73" y="266"/>
      <point x="37" y="246"/>
      <point x="19" y="199" type="curve"/>
      <point x="73" y="162" type="line"/>
      <point x="83" y="177"/>
      <point x="93" y="181"/>
      <point x="113" y="181" type="curve"/>
      <point x="135" y="181"/>
      <point x="178" y="149"/>
    </contour>
    <contour>
      <point x="220" y="17" type="curve"/>
      <point x="257" y="17"/>
      <point x="293" y="38"/>
      <point x="311" y="84" type="curve"/>
      <point x="257" y="121" type="line"/>
      <point x="247" y="107"/>
      <point x="237" y="102"/>
      <point x="217" y="102" type="curve"/>
      <point x="195" y="102"/>
      <point x="152" y="135"/>
      <point x="110" y="135" type="curve"/>
      <point x="73" y="135"/>
      <point x="37" y="114"/>
      <point x="19" y="68" type="curve"/>
      <point x="73" y="30" type="line"/>
      <point x="83" y="45"/>
      <point x="93" y="50"/>
      <point x="113" y="50" type="curve"/>
      <point x="135" y="50"/>
      <point x="178" y="17"/>
    </contour>
  </outline>
</glyph>
<glyph name="notequal" format="1">
  <advance width="330"/>
  <unicode hex="2260"/>
  <outline>
    <contour>
      <point x="251" y="276" type="line"/>
      <point x="193" y="300" type="line"/>
      <point x="79" y="5" type="line"/>
      <point x="138" y="-19" type="line"/>
    </contour>
    <contour>
      <point x="308" y="30" type="line"/>
      <point x="308" y="114" type="line"/>
      <point x="22" y="114" type="line"/>
      <point x="22" y="30" type="line"/>
    </contour>
    <contour>
      <point x="308" y="170" type="line"/>
      <point x="308" y="254" type="line"/>
      <point x="22" y="254" type="line"/>
      <point x="22" y="170" type="line"/>
    </contour>
  </outline>
</glyph>
<glyph name="lessequal" format="1">
  <advance width="330"/>
  <unicode hex="2264"/>
  <outline>
    <contour>
      <point x="17" y="158" type="line"/>
      <point x="313" y="96" type="line"/>
      <point x="313" y="172" type="line"/>
      <point x="90" y="214" type="line"/>
      <point x="90" y="174" type="line"/>
      <point x="313" y="216" type="line"/>
      <point x="313" y="293" type="line"/>
      <point x="17" y="231" type="line"/>
    </contour>
    <contour>
      <point x="17" y="84" type="line"/>
      <point x="17" y="0" type="line"/>
      <point x="313" y="0" type="line"/>
      <point x="313" y="84" type="line"/>
    </contour>
  </outline>
</glyph>
<glyph name="greaterequal" format="1">
  <advance width="330"/>
  <unicode hex="2265"/>
  <outline>
    <contour>
      <point x="17" y="172" type="line"/>
      <point x="17" y="96" type="line"/>
      <point x="313" y="158" type="line"/>
      <point x="313" y="231" type="line"/>
      <point x="17" y="293" type="line"/>
      <point x="17" y="216" type="line"/>
      <point x="240" y="174" type="line"/>
      <point x="240" y="214" type="line"/>
    </contour>
    <contour>
      <point x="17" y="0" type="line"/>
      <point x="313" y="0" type="line"/>
      <point x="313" y="84" type="line"/>
      <point x="17" y="84" type="line"/>
    </contour>
  </outline>
</glyph>
<glyph name="lozenge" format="1">
  <advance width="330"/>
  <unicode hex="25CA"/>
  <outline>
    <contour>
      <point x="204" y="0" type="line"/>
      <point x="305" y="195" type="line"/>
      <point x="204" y="391" type="line"/>
      <point x="126" y="391" type="line"/>
      <point x="25" y="195" type="line"/>
      <point x="126" y="0" type="line"/>
    </contour>
    <contour>
      <point x="212" y="164" type="line"/>
      <point x="212" y="227" type="line"/>
      <point x="137" y="69" type="line"/>
      <point x="193" y="69" type="line"/>
      <point x="118" y="227" type="line"/>
      <point x="118" y="164" type="line"/>
      <point x="193" y="321" type="line"/>
      <point x="138" y="321" type="line"/>
    </contour>
  </outline>
</glyph>
<glyph name="I_J.loclNLD" format="1">
  <advance width="392"/>
  <outline>
    <contour>
      <point x="195" y="-6" type="curve"/>
      <point x="294" y="-6"/>
      <point x="363" y="53"/>
      <point x="363" y="160" type="curve"/>
      <point x="363" y="391" type="line"/>
      <point x="242" y="391" type="line"/>
      <point x="242" y="146" type="line" smooth="yes"/>
      <point x="242" y="112"/>
      <point x="218" y="93"/>
      <point x="194" y="93" type="curve"/>
      <point x="171" y="93"/>
      <point x="154" y="100"/>
      <point x="134" y="129" type="curve"/>
      <point x="34" y="87" type="line"/>
      <point x="61" y="22"/>
      <point x="117" y="-6"/>
    </contour>
    <contour>
      <point x="31" y="391" type="line"/>
      <point x="31" y="171" type="line"/>
      <point x="152" y="171" type="line"/>
      <point x="152" y="391" type="line"/>
    </contour>
    <contour>
      <point x="91" y="391" type="move" name="top_1"/>
    </contour>
    <contour>
      <point x="302" y="391" type="move" name="top_2"/>
    </contour>
  </outline>
</glyph>
<glyph name="acutecomb.case" format="1">
  <advance width="351"/>
  <outline>
    <contour>
      <point x="138" y="423" type="line"/>
      <point x="235" y="423" type="line"/>
      <point x="321" y="494" type="line"/>
      <point x="208" y="520" type="line"/>
    </contour>
    <contour>
      <point x="184" y="391" type="move" name="_top"/>
    </contour>
    <contour>
      <point x="184" y="519" type="move" name="top"/>
    </contour>
  </outline>
</glyph>
<glyph name="eight.lf" format="1">
  <advance width="329"/>
  <outline>
    <contour>
      <point x="165" y="-6" type="curve"/>
      <point x="263" y="-6"/>
      <point x="324" y="37"/>
      <point x="324" y="107" type="curve"/>
      <point x="324" y="160"/>
      <point x="279" y="203"/>
      <point x="218" y="208" type="curve"/>
      <point x="220" y="190" type="line"/>
      <point x="279" y="200"/>
      <point x="313" y="236"/>
      <point x="313" y="286" type="curve"/>
      <point x="313" y="350"/>
      <point x="247" y="396"/>
      <point x="165" y="396" type="curve"/>
      <point x="83" y="396"/>
      <point x="16" y="350"/>
      <point x="16" y="286" type="curve"/>
      <point x="16" y="236"/>
      <point x="50" y="200"/>
      <point x="109" y="190" type="curve"/>
      <point x="111" y="208" type="line"/>
      <point x="50" y="203"/>
      <point x="5" y="160"/>
      <point x="5" y="107" type="curve"/>
      <point x="5" y="37"/>
      <point x="66" y="-6"/>
    </contour>
    <contour>
      <point x="165" y="81" type="curve"/>
      <point x="136" y="81"/>
      <point x="121" y="95"/>
      <point x="121" y="119" type="curve"/>
      <point x="121" y="142"/>
      <point x="137" y="156"/>
      <point x="165" y="156" type="curve"/>
      <point x="192" y="156"/>
      <point x="209" y="142"/>
      <point x="209" y="119" type="curve"/>
      <point x="209" y="95"/>
      <point x="193" y="81"/>
    </contour>
    <contour>
      <point x="165" y="239" type="curve"/>
      <point x="144" y="239"/>
      <point x="132" y="253"/>
      <point x="132" y="274" type="curve"/>
      <point x="132" y="294"/>
      <point x="145" y="309"/>
      <point x="165" y="309" type="curve"/>
      <point x="186" y="309"/>
      <point x="198" y="295"/>
      <point x="198" y="274" type="curve"/>
      <point x="198" y="253"/>
      <point x="184" y="239"/>
    </contour>
  </outline>
</glyph>
<glyph name="f.ss01" format="1">
  <advance width="223"/>
  <outline>
    <contour>
      <point x="45" y="286" type="curve"/>
      <point x="45" y="0" type="line"/>
      <point x="158" y="0" type="line"/>
      <point x="158" y="217" type="line"/>
      <point x="156" y="267" type="line"/>
      <point x="156" y="296" type="line" smooth="yes"/>
      <point x="156" y="315"/>
      <point x="168" y="324"/>
      <point x="184" y="324" type="curve"/>
      <point x="193" y="324"/>
      <point x="203" y="320"/>
      <point x="208" y="318" type="curve"/>
      <point x="257" y="392" type="line"/>
      <point x="241" y="405"/>
      <point x="216" y="413"/>
      <point x="184" y="413" type="curve"/>
      <point x="106" y="413"/>
      <point x="45" y="361"/>
    </contour>
    <contour>
      <point x="-5" y="283" type="line"/>
      <point x="-5" y="196" type="line"/>
      <point x="220" y="196" type="line"/>
      <point x="220" y="283" type="line"/>
    </contour>
  </outline>
</glyph>
<glyph name="f_f" format="1">
  <advance width="431"/>
  <outline>
    <contour>
      <point x="45" y="286" type="curve"/>
      <point x="45" y="0" type="line"/>
      <point x="158" y="0" type="line"/>
      <point x="158" y="217" type="line"/>
      <point x="156" y="267" type="line"/>
      <point x="156" y="296" type="line" smooth="yes"/>
      <point x="156" y="315"/>
      <point x="168" y="324"/>
      <point x="184" y="324" type="curve"/>
      <point x="193" y="324"/>
      <point x="203" y="320"/>
      <point x="208" y="318" type="curve"/>
      <point x="257" y="392" type="line"/>
      <point x="241" y="405"/>
      <point x="216" y="413"/>
      <point x="184" y="413" type="curve"/>
      <point x="106" y="413"/>
      <point x="45" y="361"/>
    </contour>
    <contour>
      <point x="250" y="286" type="curve"/>
      <point x="250" y="0" type="line"/>
      <point x="363" y="0" type="line"/>
      <point x="363" y="217" type="line"/>
      <point x="361" y="267" type="line"/>
      <point x="361" y="296" type="line" smooth="yes"/>
      <point x="361" y="313"/>
      <point x="373" y="324"/>
      <point x="390" y="324" type="curve"/>
      <point x="397" y="324"/>
      <point x="404" y="320"/>
      <point x="407" y="310" type="curve"/>
      <point x="505" y="320" type="line"/>
      <point x="493" y="385"/>
      <point x="456" y="413"/>
      <point x="391" y="413" type="curve"/>
      <point x="311" y="413"/>
      <point x="250" y="361"/>
    </contour>
    <contour>
      <point x="425" y="196" type="line"/>
      <point x="425" y="283" type="line"/>
      <point x="-5" y="283" type="line"/>
      <point x="-5" y="196" type="line"/>
    </contour>
  </outline>
</glyph>
<glyph name="f_f.ss01" format="1">
  <advance width="429"/>
  <outline>
    <contour>
      <point x="45" y="286" type="curve"/>
      <point x="45" y="0" type="line"/>
      <point x="158" y="0" type="line"/>
      <point x="158" y="217" type="line"/>
      <point x="156" y="267" type="line"/>
      <point x="156" y="296" type="line" smooth="yes"/>
      <point x="156" y="315"/>
      <point x="168" y="324"/>
      <point x="184" y="324" type="curve"/>
      <point x="193" y="324"/>
      <point x="203" y="320"/>
      <point x="208" y="318" type="curve"/>
      <point x="257" y="392" type="line"/>
      <point x="241" y="405"/>
      <point x="216" y="413"/>
      <point x="184" y="413" type="curve"/>
      <point x="106" y="413"/>
      <point x="45" y="361"/>
    </contour>
    <contour>
      <point x="425" y="196" type="line"/>
      <point x="425" y="283" type="line"/>
      <point x="-5" y="283" type="line"/>
      <point x="-5" y="196" type="line"/>
    </contour>
    <contour>
      <point x="250" y="286" type="curve"/>
      <point x="250" y="0" type="line"/>
      <point x="363" y="0" type="line"/>
      <point x="363" y="217" type="line"/>
      <point x="361" y="267" type="line"/>
      <point x="361" y="296" type="line" smooth="yes"/>
      <point x="361" y="315"/>
      <point x="373" y="324"/>
      <point x="390" y="324" type="curve"/>
      <point x="398" y="324"/>
      <point x="408" y="320"/>
      <point x="413" y="318" type="curve"/>
      <point x="462" y="392" type="line"/>
      <point x="446" y="405"/>
      <point x="421" y="413"/>
      <point x="389" y="413" type="curve"/>
      <point x="311" y="413"/>
      <point x="250" y="361"/>
    </contour>
  </outline>
</glyph>
<glyph name="f_i" format="1">
  <advance width="403"/>
  <outline>
    <contour>
      <point x="45" y="286" type="curve"/>
      <point x="45" y="0" type="line"/>
      <point x="158" y="0" type="line"/>
      <point x="158" y="217" type="line"/>
      <point x="156" y="267" type="line"/>
      <point x="156" y="296" type="line" smooth="yes"/>
      <point x="156" y="315"/>
      <point x="168" y="324"/>
      <point x="184" y="324" type="curve"/>
      <point x="193" y="324"/>
      <point x="203" y="320"/>
      <point x="208" y="318" type="curve"/>
      <point x="257" y="392" type="line"/>
      <point x="241" y="405"/>
      <point x="216" y="413"/>
      <point x="184" y="413" type="curve"/>
      <point x="106" y="413"/>
      <point x="45" y="361"/>
    </contour>
    <contour>
      <point x="320" y="302" type="curve"/>
      <point x="364" y="302"/>
      <point x="392" y="329"/>
      <point x="392" y="363" type="curve"/>
      <point x="392" y="397"/>
      <point x="364" y="424"/>
      <point x="320" y="424" type="curve"/>
      <point x="275" y="424"/>
      <point x="248" y="397"/>
      <point x="248" y="363" type="curve"/>
      <point x="248" y="329"/>
      <point x="276" y="302"/>
    </contour>
    <contour>
      <point x="377" y="0" type="line"/>
      <point x="377" y="283" type="line"/>
      <point x="-5" y="283" type="line"/>
      <point x="-5" y="196" type="line"/>
      <point x="264" y="196" type="line"/>
      <point x="264" y="0" type="line"/>
    </contour>
  </outline>
</glyph>
<glyph name="five.lf" format="1">
  <advance width="301"/>
  <outline>
    <contour>
      <point x="118" y="-6" type="curve"/>
      <point x="224" y="-6"/>
      <point x="293" y="51"/>
      <point x="293" y="123" type="curve"/>
      <point x="293" y="201"/>
      <point x="233" y="240"/>
      <point x="137" y="243" type="curve"/>
      <point x="107" y="244" type="line"/>
      <point x="151" y="220" type="line"/>
      <point x="160" y="335" type="line"/>
      <point x="113" y="304" type="line"/>
      <point x="272" y="304" type="line"/>
      <point x="272" y="392" type="line"/>
      <point x="52" y="392" type="line"/>
      <point x="33" y="157" type="line"/>
      <point x="104" y="154" type="line" smooth="yes"/>
      <point x="181" y="151"/>
      <point x="177" y="132"/>
      <point x="177" y="118" type="curve"/>
      <point x="177" y="107"/>
      <point x="168" y="89"/>
      <point x="124" y="89" type="curve"/>
      <point x="91" y="89"/>
      <point x="63" y="98"/>
      <point x="37" y="112" type="curve"/>
      <point x="12" y="18" type="line"/>
      <point x="40" y="-1"/>
      <point x="91" y="-6"/>
    </contour>
  </outline>
</glyph>
<glyph name="four.lf" format="1">
  <advance width="321"/>
  <outline>
    <contour>
      <point x="164" y="244" type="line"/>
      <point x="164" y="0" type="line"/>
      <point x="276" y="0" type="line"/>
      <point x="276" y="392" type="line"/>
      <point x="195" y="392" type="line"/>
      <point x="4" y="156" type="line"/>
      <point x="4" y="80" type="line"/>
      <point x="331" y="80" type="line"/>
      <point x="331" y="167" type="line"/>
      <point x="101" y="167" type="line"/>
      <point x="102" y="142" type="line"/>
      <point x="179" y="248" type="line"/>
    </contour>
  </outline>
</glyph>
<glyph name="gravecomb.case" format="1">
  <advance width="354"/>
  <outline>
    <contour>
      <point x="50" y="494" type="line"/>
      <point x="136" y="423" type="line"/>
      <point x="233" y="423" type="line"/>
      <point x="163" y="520" type="line"/>
    </contour>
    <contour>
      <point x="184" y="391" type="move" name="_top"/>
    </contour>
    <contour>
      <point x="184" y="519" type="move" name="top"/>
    </contour>
  </outline>
</glyph>
<glyph name="hookabovecomb.case" format="1">
  <advance width="349"/>
  <outline>
    <contour>
      <point x="192" y="520" type="curve"/>
      <point x="155" y="520"/>
      <point x="120" y="508"/>
      <point x="99" y="485" type="curve"/>
      <point x="138" y="451" type="line"/>
      <point x="149" y="463"/>
      <point x="164" y="471"/>
      <point x="179" y="471" type="curve"/>
      <point x="182" y="471"/>
      <point x="186" y="470"/>
      <point x="186" y="467" type="curve"/>
      <point x="186" y="463"/>
      <point x="154" y="457"/>
      <point x="154" y="434" type="curve"/>
      <point x="154" y="423" type="line"/>
      <point x="214" y="423" type="line"/>
      <point x="214" y="436"/>
      <point x="273" y="434"/>
      <point x="273" y="476" type="curve"/>
      <point x="273" y="506"/>
      <point x="236" y="520"/>
    </contour>
    <contour>
      <point x="184" y="391" type="move" name="_top"/>
    </contour>
    <contour>
      <point x="184" y="519" type="move" name="top"/>
    </contour>
  </outline>
</glyph>
<glyph name="l.ss01" format="1">
  <advance width="165"/>
  <outline>
    <contour>
      <point x="26" y="407" type="line"/>
      <point x="26" y="0" type="line"/>
      <point x="139" y="0" type="line"/>
      <point x="139" y="407" type="line"/>
    </contour>
  </outline>
</glyph>
<glyph name="one.lf" format="1">
  <advance width="237"/>
  <outline>
    <contour>
      <point x="90" y="292" type="line"/>
      <point x="90" y="0" type="line"/>
      <point x="206" y="0" type="line"/>
      <point x="206" y="391" type="line"/>
      <point x="140" y="391" type="line"/>
      <point x="-3" y="295" type="line"/>
      <point x="52" y="218" type="line"/>
      <point x="158" y="292" type="line"/>
    </contour>
  </outline>
</glyph>
<glyph name="periodcentered.loclCAT" format="1">
  <advance width="86"/>
  <outline>
    <contour>
      <point x="33" y="188" type="curve"/>
      <point x="77" y="188"/>
      <point x="105" y="215"/>
      <point x="105" y="249" type="curve"/>
      <point x="105" y="282"/>
      <point x="77" y="309"/>
      <point x="33" y="309" type="curve"/>
      <point x="-11" y="309"/>
      <point x="-39" y="282"/>
      <point x="-39" y="249" type="curve"/>
      <point x="-39" y="215"/>
      <point x="-11" y="188"/>
    </contour>
    <contour>
      <point x="33" y="249" type="move" name="_dotacc"/>
    </contour>
  </outline>
</glyph>
<glyph name="seven.lf" format="1">
  <advance width="274"/>
  <outline>
    <contour>
      <point x="10" y="0" type="line"/>
      <point x="133" y="0" type="line"/>
      <point x="274" y="301" type="line"/>
      <point x="274" y="391" type="line"/>
      <point x="-6" y="391" type="line"/>
      <point x="-6" y="303" type="line"/>
      <point x="189" y="303" type="line"/>
      <point x="165" y="326" type="line"/>
    </contour>
  </outline>
</glyph>
<glyph name="six.lf" format="1">
  <advance width="334"/>
  <outline>
    <contour>
      <point x="173" y="-6" type="curve"/>
      <point x="267" y="-6"/>
      <point x="324" y="56"/>
      <point x="324" y="129" type="curve"/>
      <point x="324" y="211"/>
      <point x="261" y="250"/>
      <point x="199" y="250" type="curve"/>
      <point x="162" y="250"/>
      <point x="130" y="238"/>
      <point x="107" y="208" type="curve"/>
      <point x="127" y="191" type="line"/>
      <point x="127" y="215" type="line" smooth="yes"/>
      <point x="127" y="267"/>
      <point x="151" y="300"/>
      <point x="183" y="300" type="curve"/>
      <point x="207" y="300"/>
      <point x="220" y="290"/>
      <point x="228" y="269" type="curve"/>
      <point x="323" y="312" type="line"/>
      <point x="298" y="368"/>
      <point x="254" y="396"/>
      <point x="188" y="396" type="curve"/>
      <point x="98" y="396"/>
      <point x="12" y="325"/>
      <point x="12" y="191" type="curve"/>
      <point x="12" y="53"/>
      <point x="75" y="-6"/>
    </contour>
    <contour>
      <point x="173" y="81" type="curve"/>
      <point x="154" y="81"/>
      <point x="135" y="92"/>
      <point x="135" y="122" type="curve"/>
      <point x="135" y="142"/>
      <point x="147" y="163"/>
      <point x="169" y="163" type="curve"/>
      <point x="195" y="163"/>
      <point x="208" y="145"/>
      <point x="208" y="120" type="curve"/>
      <point x="208" y="105"/>
      <point x="197" y="81"/>
    </contour>
  </outline>
</glyph>
<glyph name="three.lf" format="1">
  <advance width="299"/>
  <outline>
    <contour>
      <point x="121" y="-6" type="curve"/>
      <point x="226" y="-6"/>
      <point x="296" y="49"/>
      <point x="296" y="117" type="curve"/>
      <point x="296" y="163"/>
      <point x="272" y="191"/>
      <point x="227" y="203" type="curve"/>
      <point x="230" y="200" type="line"/>
      <point x="268" y="216"/>
      <point x="287" y="252"/>
      <point x="287" y="286" type="curve"/>
      <point x="287" y="356"/>
      <point x="232" y="396"/>
      <point x="155" y="396" type="curve"/>
      <point x="84" y="396"/>
      <point x="23" y="356"/>
      <point x="4" y="299" type="curve"/>
      <point x="87" y="256" type="line"/>
      <point x="95" y="280"/>
      <point x="114" y="300"/>
      <point x="139" y="300" type="curve"/>
      <point x="165" y="300"/>
      <point x="172" y="288"/>
      <point x="172" y="273" type="curve"/>
      <point x="172" y="258"/>
      <point x="165" y="239"/>
      <point x="123" y="239" type="curve"/>
      <point x="98" y="239" type="line"/>
      <point x="98" y="154" type="line"/>
      <point x="123" y="154" type="line" smooth="yes"/>
      <point x="165" y="154"/>
      <point x="181" y="143"/>
      <point x="181" y="122" type="curve"/>
      <point x="181" y="107"/>
      <point x="173" y="89"/>
      <point x="127" y="89" type="curve"/>
      <point x="94" y="89"/>
      <point x="66" y="98"/>
      <point x="40" y="112" type="curve"/>
      <point x="15" y="18" type="line"/>
      <point x="43" y="-1"/>
      <point x="95" y="-6"/>
    </contour>
  </outline>
</glyph>
<glyph name="tildecomb.case" format="1">
  <advance width="351"/>
  <outline>
    <contour>
      <point x="308" y="483" type="curve"/>
      <point x="269" y="517" type="line"/>
      <point x="262" y="501"/>
      <point x="247" y="496"/>
      <point x="236" y="496" type="curve"/>
      <point x="213" y="496"/>
      <point x="176" y="523"/>
      <point x="141" y="523" type="curve"/>
      <point x="103" y="523"/>
      <point x="73" y="502"/>
      <point x="60" y="459" type="curve"/>
      <point x="99" y="425" type="line"/>
      <point x="109" y="439"/>
      <point x="125" y="446"/>
      <point x="133" y="446" type="curve"/>
      <point x="156" y="446"/>
      <point x="193" y="419"/>
      <point x="227" y="419" type="curve"/>
      <point x="266" y="419"/>
      <point x="296" y="440"/>
    </contour>
    <contour>
      <point x="184" y="391" type="move" name="_top"/>
    </contour>
    <contour>
      <point x="184" y="519" type="move" name="top"/>
    </contour>
  </outline>
</glyph>
<glyph name="tildecomb_acutecomb" format="1">
  <advance width="333"/>
  <outline>
    <contour>
      <point x="308" y="376" type="curve"/>
      <point x="269" y="410" type="line"/>
      <point x="262" y="394"/>
      <point x="247" y="388"/>
      <point x="236" y="388" type="curve"/>
      <point x="213" y="388"/>
      <point x="176" y="415"/>
      <point x="141" y="415" type="curve"/>
      <point x="103" y="415"/>
      <point x="73" y="395"/>
      <point x="60" y="352" type="curve"/>
      <point x="99" y="318" type="line"/>
      <point x="109" y="332"/>
      <point x="125" y="338"/>
      <point x="133" y="338" type="curve"/>
      <point x="156" y="338"/>
      <point x="193" y="311"/>
      <point x="227" y="311" type="curve"/>
      <point x="266" y="311"/>
      <point x="296" y="333"/>
    </contour>
    <contour>
      <point x="209" y="530" type="line"/>
      <point x="136" y="429" type="line"/>
      <point x="233" y="429" type="line"/>
      <point x="322" y="505" type="line"/>
    </contour>
    <contour>
      <point x="184" y="283" type="move" name="_top"/>
    </contour>
  </outline>
</glyph>
<glyph name="two.lf" format="1">
  <advance width="305"/>
  <outline>
    <contour>
      <point x="14" y="74" type="curve"/>
      <point x="14" y="0" type="line"/>
      <point x="295" y="0" type="line"/>
      <point x="295" y="87" type="line"/>
      <point x="122" y="87" type="line"/>
      <point x="117" y="60" type="line"/>
      <point x="239" y="127"/>
      <point x="286" y="203"/>
      <point x="286" y="277" type="curve"/>
      <point x="287" y="345"/>
      <point x="238" y="396"/>
      <point x="154" y="396" type="curve"/>
      <point x="83" y="396"/>
      <point x="22" y="356"/>
      <point x="2" y="299" type="curve"/>
      <point x="86" y="256" type="line"/>
      <point x="94" y="280"/>
      <point x="113" y="300"/>
      <point x="138" y="300" type="curve"/>
      <point x="159" y="300"/>
      <point x="170" y="289"/>
      <point x="170" y="264" type="curve"/>
      <point x="170" y="215"/>
      <point x="112" y="138"/>
    </contour>
  </outline>
</glyph>
<glyph name="uni00B5" format="1">
  <advance width="353"/>
  <outline>
    <contour>
      <point x="328" y="283" type="line"/>
      <point x="219" y="283" type="line"/>
      <point x="216" y="129"/>
      <point x="193" y="92"/>
      <point x="158" y="92" type="curve"/>
      <point x="144" y="92"/>
      <point x="135" y="109"/>
      <point x="135" y="127" type="curve"/>
      <point x="135" y="283" type="line"/>
      <point x="21" y="283" type="line"/>
      <point x="21" y="-110" type="line"/>
      <point x="135" y="-110" type="line"/>
      <point x="127" y="12" type="line"/>
      <point x="114" y="-8" type="line"/>
      <point x="126" y="-9"/>
      <point x="136" y="-6"/>
      <point x="151" y="-6" type="curve"/>
      <point x="201" y="-6"/>
      <point x="242" y="43"/>
      <point x="255" y="134" type="curve"/>
      <point x="222" y="41" type="line"/>
      <point x="218" y="0" type="line"/>
      <point x="328" y="0" type="line"/>
    </contour>
  </outline>
</glyph>
<glyph name="uni018F" format="1">
  <advance width="438"/>
  <outline>
    <contour>
      <point x="212" y="396" type="curve"/>
      <point x="130" y="396"/>
      <point x="64" y="360"/>
      <point x="26" y="312" type="curve"/>
      <point x="116" y="247" type="line"/>
      <point x="138" y="278"/>
      <point x="176" y="296"/>
      <point x="213" y="296" type="curve"/>
      <point x="272" y="296"/>
      <point x="303" y="261"/>
      <point x="303" y="213" type="curve"/>
      <point x="303" y="190" type="line" smooth="yes"/>
      <point x="303" y="136"/>
      <point x="281" y="93"/>
      <point x="223" y="93" type="curve"/>
      <point x="170" y="93"/>
      <point x="151" y="109"/>
      <point x="144" y="155" type="curve"/>
      <point x="122" y="141" type="line"/>
      <point x="353" y="141" type="line"/>
      <point x="353" y="232" type="line"/>
      <point x="15" y="232" type="line"/>
      <point x="-8" y="91"/>
      <point x="75" y="-6"/>
      <point x="217" y="-6" type="curve"/>
      <point x="340" y="-6"/>
      <point x="427" y="87"/>
      <point x="427" y="199" type="curve"/>
      <point x="427" y="320"/>
      <point x="348" y="396"/>
    </contour>
  </outline>
</glyph>
<glyph name="uni01EA" format="1">
  <advance width="434"/>
  <outline>
    <contour>
      <point x="242" y="-123" type="curve"/>
      <point x="276" y="-123"/>
      <point x="305" y="-113"/>
      <point x="319" y="-95" type="curve"/>
      <point x="283" y="-46" type="line"/>
      <point x="277" y="-54"/>
      <point x="264" y="-60"/>
      <point x="256" y="-60" type="curve"/>
      <point x="244" y="-60"/>
      <point x="236" y="-55"/>
      <point x="236" y="-45" type="curve"/>
      <point x="236" y="-29"/>
      <point x="239" y="-19"/>
      <point x="308" y="11" type="curve"/>
      <point x="379" y="42"/>
      <point x="422" y="111"/>
      <point x="422" y="203" type="curve"/>
      <point x="422" y="319"/>
      <point x="343" y="396"/>
      <point x="227" y="396" type="curve"/>
      <point x="90" y="396"/>
      <point x="12" y="310"/>
      <point x="12" y="188" type="curve"/>
      <point x="12" y="66"/>
      <point x="90" y="-8"/>
      <point x="223" y="-6" type="curve"/>
      <point x="242" y="-6" type="line"/>
      <point x="196" y="7" type="line"/>
      <point x="157" y="-9"/>
      <point x="143" y="-29"/>
      <point x="143" y="-56" type="curve"/>
      <point x="143" y="-96"/>
      <point x="186" y="-123"/>
    </contour>
    <contour>
      <point x="216" y="94" type="curve"/>
      <point x="165" y="94"/>
      <point x="134" y="129"/>
      <point x="134" y="191" type="curve"/>
      <point x="134" y="253"/>
      <point x="171" y="297"/>
      <point x="222" y="297" type="curve"/>
      <point x="269" y="297"/>
      <point x="300" y="258"/>
      <point x="300" y="201" type="curve"/>
      <point x="300" y="134"/>
      <point x="265" y="94"/>
    </contour>
    <contour>
      <point x="218" y="391" type="move" name="top"/>
    </contour>
  </outline>
</glyph>
<glyph name="uni01EB" format="1">
  <advance width="338"/>
  <outline>
    <contour>
      <point x="241" y="10" type="curve"/>
      <point x="296" y="35"/>
      <point x="327" y="87"/>
      <point x="327" y="148" type="curve"/>
      <point x="327" y="233"/>
      <point x="269" y="287"/>
      <point x="176" y="287" type="curve"/>
      <point x="76" y="287"/>
      <point x="11" y="222"/>
      <point x="11" y="133" type="curve"/>
      <point x="11" y="48"/>
      <point x="67" y="-6"/>
      <point x="160" y="-6" type="curve"/>
      <point x="168" y="-6" type="line"/>
      <point x="139" y="7" type="line"/>
      <point x="107" y="-9"/>
      <point x="93" y="-29"/>
      <point x="93" y="-56" type="curve"/>
      <point x="93" y="-96"/>
      <point x="136" y="-123"/>
      <point x="192" y="-123" type="curve"/>
      <point x="226" y="-123"/>
      <point x="255" y="-113"/>
      <point x="269" y="-95" type="curve"/>
      <point x="233" y="-46" type="line"/>
      <point x="228" y="-54"/>
      <point x="214" y="-60"/>
      <point x="207" y="-60" type="curve"/>
      <point x="194" y="-60"/>
      <point x="187" y="-55"/>
      <point x="187" y="-45" type="curve"/>
      <point x="187" y="-31"/>
      <point x="189" y="-14"/>
    </contour>
    <contour>
      <point x="127" y="133" type="curve"/>
      <point x="127" y="173"/>
      <point x="144" y="196"/>
      <point x="171" y="196" type="curve"/>
      <point x="196" y="196"/>
      <point x="211" y="177"/>
      <point x="211" y="148" type="curve"/>
      <point x="211" y="109"/>
      <point x="194" y="85"/>
      <point x="167" y="85" type="curve"/>
      <point x="141" y="85"/>
      <point x="127" y="103"/>
    </contour>
    <contour>
      <point x="169" y="283" type="move" name="top"/>
    </contour>
  </outline>
</glyph>
<glyph name="uni0237" format="1">
  <advance width="170"/>
  <outline>
    <contour>
      <point x="-3" y="-106" type="curve"/>
      <point x="84" y="-106"/>
      <point x="144" y="-60"/>
      <point x="144" y="26" type="curve"/>
      <point x="144" y="283" type="line"/>
      <point x="31" y="283" type="line"/>
      <point x="31" y="24" type="line" smooth="yes"/>
      <point x="31" y="-8"/>
      <point x="18" y="-18"/>
      <point x="-8" y="-18" type="curve"/>
      <point x="-28" y="-18"/>
      <point x="-50" y="-13"/>
      <point x="-59" y="-12" type="curve"/>
      <point x="-72" y="-98" type="line"/>
      <point x="-54" y="-103"/>
      <point x="-30" y="-106"/>
    </contour>
    <contour>
      <point x="87" y="-110" type="move" name="bottom"/>
    </contour>
    <contour>
      <point x="87" y="283" type="move" name="top"/>
    </contour>
  </outline>
</glyph>
<glyph name="uni0259" format="1">
  <advance width="305"/>
  <outline>
    <contour>
      <point x="135" y="287" type="curve"/>
      <point x="81" y="287"/>
      <point x="40" y="268"/>
      <point x="12" y="241" type="curve"/>
      <point x="73" y="180" type="line"/>
      <point x="86" y="192"/>
      <point x="109" y="200"/>
      <point x="125" y="200" type="curve"/>
      <point x="160" y="200"/>
      <point x="181" y="176"/>
      <point x="181" y="159" type="curve"/>
      <point x="181" y="132" type="line" smooth="yes"/>
      <point x="181" y="86"/>
      <point x="168" y="68"/>
      <point x="144" y="68" type="curve"/>
      <point x="119" y="68"/>
      <point x="106" y="82"/>
      <point x="109" y="109" type="curve"/>
      <point x="88" y="98" type="line"/>
      <point x="207" y="98" type="line"/>
      <point x="207" y="170" type="line"/>
      <point x="15" y="170" type="line"/>
      <point x="0" y="68"/>
      <point x="39" y="-6"/>
      <point x="152" y="-6" type="curve"/>
      <point x="229" y="-6"/>
      <point x="294" y="53"/>
      <point x="294" y="144" type="curve"/>
      <point x="294" y="230"/>
      <point x="232" y="287"/>
    </contour>
  </outline>
</glyph>
<glyph name="uni02BB" format="1">
  <advance width="351"/>
  <outline>
    <contour>
      <point x="231" y="414" type="curve"/>
      <point x="182" y="414" type="line"/>
      <point x="147" y="405"/>
      <point x="124" y="373"/>
      <point x="124" y="350" type="curve"/>
      <point x="124" y="326"/>
      <point x="144" y="312"/>
      <point x="177" y="312" type="curve"/>
      <point x="211" y="312"/>
      <point x="231" y="326"/>
      <point x="231" y="343" type="curve"/>
      <point x="231" y="354"/>
      <point x="219" y="360"/>
      <point x="219" y="377" type="curve"/>
      <point x="219" y="387"/>
      <point x="221" y="399"/>
    </contour>
    <contour>
      <point x="177" y="283" type="move" name="_top"/>
    </contour>
    <contour>
      <point x="177" y="394" type="move" name="top"/>
    </contour>
  </outline>
</glyph>
<glyph name="uni02BC" format="1">
  <advance width="191"/>
  <outline>
    <contour>
      <point x="21" y="155" type="curve"/>
      <point x="78" y="155" type="line"/>
      <point x="132" y="201"/>
      <point x="174" y="275"/>
      <point x="174" y="322" type="curve"/>
      <point x="174" y="370"/>
      <point x="145" y="397"/>
      <point x="98" y="397" type="curve"/>
      <point x="52" y="397"/>
      <point x="22" y="370"/>
      <point x="22" y="330" type="curve"/>
      <point x="22" y="299"/>
      <point x="47" y="284"/>
      <point x="47" y="243" type="curve"/>
      <point x="47" y="219"/>
      <point x="38" y="191"/>
    </contour>
  </outline>
</glyph>
<glyph name="uni02BE" format="1">
  <advance width="337"/>
  <outline>
    <contour>
      <point x="165" y="353" type="curve"/>
      <point x="165" y="312" type="line"/>
      <point x="215" y="312"/>
      <point x="247" y="340"/>
      <point x="247" y="378" type="curve"/>
      <point x="247" y="415"/>
      <point x="214" y="443"/>
      <point x="165" y="443" type="curve"/>
      <point x="165" y="403" type="line"/>
      <point x="184" y="403"/>
      <point x="195" y="392"/>
      <point x="195" y="378" type="curve"/>
      <point x="195" y="362"/>
      <point x="185" y="353"/>
    </contour>
    <contour>
      <point x="165" y="283" type="move" name="_top"/>
    </contour>
    <contour>
      <point x="165" y="381" type="move" name="top"/>
    </contour>
  </outline>
</glyph>
<glyph name="uni02BF" format="1">
  <advance width="337"/>
  <outline>
    <contour>
      <point x="172" y="312" type="curve"/>
      <point x="172" y="353" type="line"/>
      <point x="152" y="353"/>
      <point x="142" y="362"/>
      <point x="142" y="378" type="curve"/>
      <point x="142" y="392"/>
      <point x="153" y="403"/>
      <point x="172" y="403" type="curve"/>
      <point x="172" y="443" type="line"/>
      <point x="124" y="443"/>
      <point x="91" y="415"/>
      <point x="91" y="378" type="curve"/>
      <point x="91" y="340"/>
      <point x="123" y="312"/>
    </contour>
    <contour>
      <point x="172" y="283" type="move" name="_top"/>
    </contour>
    <contour>
      <point x="172" y="381" type="move" name="top"/>
    </contour>
  </outline>
</glyph>
<glyph name="uni02C8" format="1">
  <advance width="340"/>
  <outline>
    <contour>
      <point x="120" y="414" type="line"/>
      <point x="120" y="315" type="line"/>
      <point x="220" y="315" type="line"/>
      <point x="220" y="414" type="line"/>
    </contour>
    <contour>
      <point x="170" y="283" type="move" name="_top"/>
    </contour>
    <contour>
      <point x="170" y="412" type="move" name="top"/>
    </contour>
  </outline>
</glyph>
<glyph name="uni02C9" format="1">
  <advance width="342"/>
  <outline>
    <contour>
      <point x="272" y="394" type="line"/>
      <point x="70" y="394" type="line"/>
      <point x="70" y="328" type="line"/>
      <point x="272" y="328" type="line"/>
    </contour>
    <contour>
      <point x="171" y="283" type="move" name="_top"/>
    </contour>
    <contour>
      <point x="171" y="412" type="move" name="top"/>
    </contour>
  </outline>
</glyph>
<glyph name="uni02CA" format="1">
  <advance width="351"/>
  <outline>
    <contour>
      <point x="137" y="315" type="line"/>
      <point x="234" y="315" type="line"/>
      <point x="320" y="387" type="line"/>
      <point x="207" y="413" type="line"/>
    </contour>
    <contour>
      <point x="183" y="283" type="move" name="_top"/>
    </contour>
    <contour>
      <point x="183" y="412" type="move" name="top"/>
    </contour>
  </outline>
</glyph>
<glyph name="uni02CB" format="1">
  <advance width="354"/>
  <outline>
    <contour>
      <point x="49" y="387" type="line"/>
      <point x="134" y="315" type="line"/>
      <point x="232" y="315" type="line"/>
      <point x="162" y="413" type="line"/>
    </contour>
    <contour>
      <point x="183" y="283" type="move" name="_top"/>
    </contour>
    <contour>
      <point x="183" y="412" type="move" name="top"/>
    </contour>
  </outline>
</glyph>
<glyph name="uni02CC" format="1">
  <advance width="340"/>
  <outline>
    <contour>
      <point x="120" y="-23" type="line"/>
      <point x="120" y="-129" type="line"/>
      <point x="220" y="-129" type="line"/>
      <point x="220" y="-23" type="line"/>
    </contour>
    <contour>
      <point x="170" y="0" type="move" name="_bottom"/>
    </contour>
    <contour>
      <point x="170" y="-121" type="move" name="bottom"/>
    </contour>
  </outline>
</glyph>
<glyph name="uni03010307.case" format="1">
  <advance width="362"/>
  <outline>
    <contour>
      <point x="164" y="423" type="line"/>
      <point x="261" y="423" type="line"/>
      <point x="347" y="494" type="line"/>
      <point x="234" y="520" type="line"/>
    </contour>
    <contour>
      <point x="160" y="511" type="curve"/>
      <point x="204" y="511"/>
      <point x="232" y="538"/>
      <point x="232" y="571" type="curve"/>
      <point x="232" y="605"/>
      <point x="204" y="632"/>
      <point x="160" y="632" type="curve"/>
      <point x="115" y="632"/>
      <point x="88" y="605"/>
      <point x="88" y="571" type="curve"/>
      <point x="88" y="538"/>
      <point x="116" y="511"/>
    </contour>
    <contour>
      <point x="184" y="391" type="move" name="_top"/>
    </contour>
  </outline>
</glyph>
<glyph name="uni03010307" format="1">
  <advance width="362"/>
  <outline>
    <contour>
      <point x="164" y="315" type="line"/>
      <point x="261" y="315" type="line"/>
      <point x="347" y="387" type="line"/>
      <point x="234" y="413" type="line"/>
    </contour>
    <contour>
      <point x="160" y="403" type="curve"/>
      <point x="204" y="403"/>
      <point x="232" y="430"/>
      <point x="232" y="464" type="curve"/>
      <point x="232" y="497"/>
      <point x="204" y="524"/>
      <point x="160" y="524" type="curve"/>
      <point x="115" y="524"/>
      <point x="88" y="497"/>
      <point x="88" y="464" type="curve"/>
      <point x="88" y="430"/>
      <point x="116" y="403"/>
    </contour>
    <contour>
      <point x="184" y="283" type="move" name="_top"/>
    </contour>
  </outline>
</glyph>
<glyph name="uni0302.case" format="1">
  <advance width="356"/>
  <outline>
    <contour>
      <point x="196" y="423" type="line"/>
      <point x="299" y="423" type="line"/>
      <point x="223" y="514" type="line"/>
      <point x="133" y="514" type="line"/>
      <point x="57" y="423" type="line"/>
      <point x="160" y="423" type="line"/>
      <point x="185" y="460" type="line"/>
      <point x="172" y="460" type="line"/>
    </contour>
    <contour>
      <point x="178" y="391" type="move" name="_top"/>
    </contour>
    <contour>
      <point x="178" y="519" type="move" name="top"/>
    </contour>
  </outline>
</glyph>
<glyph name="uni0302" format="1">
  <advance width="356"/>
  <outline>
    <contour>
      <point x="196" y="315" type="line"/>
      <point x="299" y="315" type="line"/>
      <point x="223" y="407" type="line"/>
      <point x="133" y="407" type="line"/>
      <point x="57" y="315" type="line"/>
      <point x="160" y="315" type="line"/>
      <point x="185" y="352" type="line"/>
      <point x="172" y="352" type="line"/>
    </contour>
    <contour>
      <point x="178" y="283" type="move" name="_top"/>
    </contour>
    <contour>
      <point x="178" y="412" type="move" name="top"/>
    </contour>
  </outline>
</glyph>
<glyph name="uni03020300.case" format="1">
  <advance width="369"/>
  <outline>
    <contour>
      <point x="139" y="514" type="line"/>
      <point x="63" y="423" type="line"/>
      <point x="166" y="423" type="line"/>
      <point x="191" y="460" type="line"/>
      <point x="178" y="460" type="line"/>
      <point x="202" y="423" type="line"/>
      <point x="305" y="423" type="line"/>
      <point x="229" y="514" type="line"/>
    </contour>
    <contour>
      <point x="11" y="498" type="line"/>
      <point x="108" y="498" type="line"/>
      <point x="38" y="595" type="line"/>
      <point x="-75" y="570" type="line"/>
    </contour>
    <contour>
      <point x="184" y="391" type="move" name="_top"/>
    </contour>
  </outline>
</glyph>
<glyph name="uni03020300" format="1">
  <advance width="369"/>
  <outline>
    <contour>
      <point x="139" y="407" type="line"/>
      <point x="63" y="315" type="line"/>
      <point x="166" y="315" type="line"/>
      <point x="191" y="352" type="line"/>
      <point x="178" y="352" type="line"/>
      <point x="202" y="315" type="line"/>
      <point x="305" y="315" type="line"/>
      <point x="229" y="407" type="line"/>
    </contour>
    <contour>
      <point x="11" y="391" type="line"/>
      <point x="108" y="391" type="line"/>
      <point x="38" y="488" type="line"/>
      <point x="-75" y="462" type="line"/>
    </contour>
    <contour>
      <point x="184" y="283" type="move" name="_top"/>
    </contour>
  </outline>
</glyph>
<glyph name="uni03020301.case" format="1">
  <advance width="373"/>
  <outline>
    <contour>
      <point x="202" y="423" type="line"/>
      <point x="305" y="423" type="line"/>
      <point x="229" y="514" type="line"/>
      <point x="139" y="514" type="line"/>
      <point x="63" y="423" type="line"/>
      <point x="166" y="423" type="line"/>
      <point x="191" y="460" type="line"/>
      <point x="178" y="460" type="line"/>
    </contour>
    <contour>
      <point x="330" y="595" type="line"/>
      <point x="261" y="498" type="line"/>
      <point x="358" y="498" type="line"/>
      <point x="444" y="570" type="line"/>
    </contour>
    <contour>
      <point x="184" y="391" type="move" name="_top"/>
    </contour>
  </outline>
</glyph>
